<svg width="44" height="44" viewBox="0 0 44 44" fill="none" xmlns="http://www.w3.org/2000/svg">
    <circle cx="22" cy="22" r="22" fill="#97BEF7" />
    <path
        d="M26.5911 34.2567H17.4102L18.0656 32.6641L18.3152 32.0585L18.8599 30.7354H25.1414L25.6861 32.0585L25.9357 32.6641L26.5911 34.2567Z"
        fill="#A1A8AF" />
    <path d="M25.6873 32.0585H18.3164L18.8611 30.7354H25.1427L25.6873 32.0585Z" fill="#879198" />
    <path
        d="M28.9806 34.862H15.0195C15.5167 34.1043 16.3426 33.6509 17.2256 33.6509H26.7746C27.6576 33.6509 28.4834 34.1042 28.9806 34.862Z"
        fill="#ACB5BC" />
    <path
        d="M34.9999 11.9053V29.149C34.9999 30.1251 34.2384 30.9166 33.2983 30.9166H10.7016C9.76156 30.9166 9 30.1251 9 29.1489V11.9053C9 10.9292 9.76156 10.1377 10.7016 10.1377H33.2984C34.2384 10.1377 34.9999 10.9291 34.9999 11.9053Z"
        fill="#A1A8AF" />
    <path
        d="M35.0012 11.9053V29.149C35.0012 30.1251 34.2397 30.9166 33.2996 30.9166H18.1875L19.4343 27.7592L26.3923 10.1377H33.2996C34.2397 10.1377 35.0012 10.9291 35.0012 11.9053Z"
        fill="#99CCF0" />
    <path
        d="M21.9993 29.7357C21.8242 29.7357 21.6624 29.6231 21.5952 29.4553C21.5208 29.2696 21.5769 29.0495 21.7283 28.9249C22.0452 28.6639 22.5169 28.9759 22.4252 29.3838C22.3794 29.5866 22.2007 29.7357 21.9993 29.7357Z"
        fill="#879198" />
    <path
        d="M34.9999 11.9053V27.7592H9V11.9053C9 10.9292 9.76151 10.1377 10.7015 10.1377H33.2983C34.2384 10.1377 34.9999 10.9291 34.9999 11.9053Z"
        fill="#97EAFA" />
    <path
        d="M35.0005 11.9053V27.7592H19.4336L26.3916 10.1377H33.2989C34.239 10.1377 35.0005 10.9291 35.0005 11.9053Z"
        fill="#4DE9FF" />
    <path
        d="M22.5918 25.3989H21.983H19.2158C17.6516 25.3989 16.3828 24.0821 16.3828 22.4571V19.7552C16.3828 18.1307 17.6515 16.814 19.2158 16.814H21.1444L22.5918 25.3989Z"
        fill="#4A9BD1" />
    <path
        d="M26.6806 20.9146C27.2898 20.9146 27.7812 20.3904 27.7593 19.7527C27.7386 19.1453 27.24 18.6726 26.6547 18.6726H26.4297C27.0259 18.6726 27.5092 18.1708 27.5092 17.5516C27.5092 16.9325 27.0259 16.4307 26.4297 16.4307H24.6116H21.4651C19.8814 16.4307 18.5977 17.7638 18.5977 19.4084V22.4419C18.5977 24.0748 19.8724 25.3984 21.4448 25.3984H24.6117H25.5753C26.1607 25.3984 26.6592 24.9257 26.68 24.3183C26.7018 23.6806 26.2105 23.1564 25.6013 23.1564H26.6548C27.2402 23.1564 27.7387 22.6838 27.7595 22.0763C27.7812 21.4387 27.2898 20.9146 26.6806 20.9146Z"
        fill="#F5D792" />
    <path
        d="M26.6786 20.9146C27.2878 20.9146 27.7792 20.3904 27.7573 19.7527C27.7366 19.1453 27.2381 18.6726 26.6527 18.6726H26.4277C27.0239 18.6726 27.5072 18.1708 27.5072 17.5516C27.5072 16.9325 27.0239 16.4307 26.4277 16.4307H24.6096H24.6005C25.1967 16.4307 25.68 16.9325 25.68 17.5516C25.68 17.7728 25.5711 17.9789 25.4309 18.1525C25.2446 18.3833 25.2847 18.7329 25.5135 18.9176C25.7566 19.1139 25.9185 19.412 25.9301 19.7527C25.9427 20.1192 25.7857 20.4482 25.5343 20.6617C25.3826 20.7906 25.3826 21.0385 25.5343 21.1673C25.7801 21.376 25.9356 21.695 25.9308 22.0515C25.9249 22.4861 25.6603 22.8638 25.2961 23.044C25.0242 23.1784 24.8471 23.4571 24.8538 23.7697C24.8573 23.9334 24.8574 24.1204 24.8507 24.3183C24.8299 24.9257 24.3314 25.3984 23.7461 25.3984H24.6096H25.5732C26.1586 25.3984 26.6571 24.9257 26.6779 24.3183C26.6997 23.6806 26.2084 23.1564 25.5992 23.1564H26.6528C27.2381 23.1564 27.7366 22.6838 27.7574 22.0763C27.7792 21.4387 27.2878 20.9146 26.6786 20.9146Z"
        fill="#D8C295" />
    <path
        d="M22.6598 14.1253C22.6598 15.3328 22.4078 16.2345 22.3477 16.4307C22.3401 16.4567 22.3355 16.4707 22.3355 16.4707L19.1836 18.6543C19.1836 18.6543 20.7365 16.1357 20.9733 13.2054C21.0059 12.8045 21.4229 12.5617 21.7663 12.7488C21.8462 12.7924 21.9279 12.8426 22.0066 12.8995C22.3548 13.1503 22.6598 13.5385 22.6598 14.1253Z"
        fill="#F5D792" />
    <path
        d="M22.6621 14.1256C22.6621 15.3331 22.4102 16.2348 22.3501 16.431H21.4648C21.4648 16.431 22.1395 14.4223 22.0089 12.8999C22.3571 13.1507 22.6621 13.5388 22.6621 14.1256Z"
        fill="#D8C295" />
    <path
        d="M33.2989 10.1377H26.3916L23.9067 16.4308H24.6014H24.6105H26.4286C27.0248 16.4308 27.5081 16.9327 27.5081 17.5518C27.5081 18.1709 27.0248 18.6728 26.4286 18.6728H26.6536C27.2389 18.6728 27.7374 19.1454 27.7582 19.7529C27.7587 19.7666 27.759 19.7803 27.759 19.7938C27.7589 20.4129 27.2757 20.9147 26.6795 20.9147C27.2756 20.9147 27.7589 21.4166 27.759 22.0357C27.759 22.0492 27.7587 22.0629 27.7582 22.0766C27.7375 22.684 27.239 23.1567 26.6536 23.1567H25.6C26.1962 23.1567 26.6795 23.6585 26.6795 24.2776C26.6795 24.2912 26.6793 24.3049 26.6788 24.3185C26.658 24.926 26.1595 25.3986 25.5741 25.3986H24.6105H22.5929V25.3987H21.9842H20.3656L19.4336 27.7592H35.0006V11.9053C35.0005 10.9291 34.2389 10.1377 33.2989 10.1377Z"
        fill="#4DE9FF" />
    <path
        d="M20.4379 25.21L20.3633 25.3989H21.9818H22.5906L21.4411 25.3987C21.088 25.3987 20.75 25.332 20.4379 25.21Z"
        fill="#7EAECF" />
    <path
        d="M24.6026 16.4312H23.9079L20.4414 25.2101C20.7535 25.3322 21.0916 25.3989 21.4447 25.3989H22.5941H24.6117H25.5753C26.1606 25.3989 26.6592 24.9263 26.68 24.3188C26.6591 24.9262 26.1606 25.3989 25.5753 25.3989H24.6117H23.7481C24.3334 25.3989 24.8319 24.9263 24.8528 24.3188C24.8595 24.1209 24.8594 23.934 24.8559 23.7702C24.8492 23.4576 25.0263 23.179 25.2981 23.0445C25.6624 22.8643 25.9269 22.4866 25.9328 22.052C25.9376 21.6955 25.7822 21.3765 25.5363 21.1678C25.3846 21.0389 25.3846 20.7911 25.5363 20.6623C25.7877 20.4487 25.9448 20.1198 25.9322 19.7532C25.9205 19.4126 25.7587 19.1144 25.5156 18.9182C25.2867 18.7333 25.2467 18.3838 25.4329 18.1531C25.5731 17.9794 25.6821 17.7732 25.6821 17.5522C25.6821 16.933 25.1988 16.4312 24.6026 16.4312Z"
        fill="#F7E3BA" />
    <path
        d="M26.4277 16.4312H24.6096H24.6005C25.1967 16.4312 25.68 16.933 25.68 17.5521C25.68 17.7732 25.5711 17.9794 25.4309 18.153C25.2446 18.3838 25.2847 18.7334 25.5135 18.9181C25.7566 19.1144 25.9185 19.4125 25.9301 19.7531C25.9427 20.1197 25.7857 20.4487 25.5343 20.6622C25.3826 20.7911 25.3826 21.039 25.5343 21.1677C25.7801 21.3765 25.9356 21.6955 25.9308 22.052C25.9249 22.4866 25.6603 22.8643 25.2961 23.0445C25.0242 23.1789 24.8471 23.4576 24.8538 23.7702C24.8573 23.9339 24.8574 24.1209 24.8507 24.3188C24.8299 24.9262 24.3314 25.3989 23.7461 25.3989H24.6096H25.5733C26.1586 25.3989 26.6571 24.9262 26.6779 24.3188C26.6784 24.3051 26.6787 24.2914 26.6787 24.2779C26.6786 23.6588 26.1954 23.1569 25.5992 23.1569H26.6528C27.2381 23.1569 27.7366 22.6843 27.7574 22.0768C27.7579 22.0631 27.7581 22.0495 27.7581 22.0359C27.7581 21.4168 27.2748 20.915 26.6787 20.915C27.2748 20.915 27.7581 20.4132 27.7581 19.7941C27.7581 19.7805 27.7579 19.7668 27.7574 19.7531C27.7366 19.1457 27.2381 18.673 26.6528 18.673H26.4278C27.024 18.673 27.5073 18.1712 27.5073 17.5521C27.5071 16.933 27.0239 16.4312 26.4277 16.4312Z"
        fill="#DECCA8" />
</svg>
    