<svg width="91" height="27" viewBox="0 0 91 27" fill="none" xmlns="http://www.w3.org/2000/svg">
    <g clip-path="url(#clip0_1509_139)">
        <path
            d="M90.4015 23.6712C90.4015 25.0811 89.2567 26.2231 87.8409 26.2231H4.04435C2.62914 26.2231 1.48047 25.0811 1.48047 23.6712V3.32083C1.48047 1.91164 2.6292 0.765625 4.04435 0.765625H87.8401C89.2567 0.765625 90.4008 1.91164 90.4008 3.32083L90.4015 23.6712Z"
            fill="white" />
        <path
            d="M87.8416 26.817H4.04506C2.30393 26.817 0.886719 25.4064 0.886719 23.6714V3.32172C0.886719 1.58538 2.30393 0.172852 4.04506 0.172852H87.8409C89.58 0.172852 90.9992 1.58538 90.9992 3.32172V23.6714C91.0005 25.4064 89.5813 26.817 87.8416 26.817Z"
            fill="#A6A6A6" />
        <path
            d="M90.4015 23.6712C90.4015 25.0811 89.2567 26.2231 87.8409 26.2231H4.04435C2.62914 26.2231 1.48047 25.0811 1.48047 23.6712V3.32083C1.48047 1.91164 2.6292 0.765625 4.04435 0.765625H87.8401C89.2567 0.765625 90.4008 1.91164 90.4008 3.32083L90.4015 23.6712Z"
            fill="black" />
        <path
            d="M21.0078 13.3544C20.9884 11.207 22.7703 10.1623 22.8518 10.1136C21.8426 8.6458 20.2785 8.44525 19.7289 8.42926C18.4152 8.29134 17.1409 9.21348 16.4717 9.21348C15.7891 9.21348 14.7586 8.44258 13.648 8.46524C12.2187 8.48723 10.8817 9.31275 10.1483 10.5947C8.63502 13.2085 9.76366 17.0497 11.2136 19.1625C11.9389 20.1979 12.7865 21.3525 13.8957 21.3119C14.981 21.2679 15.3864 20.6223 16.6961 20.6223C17.9937 20.6223 18.3745 21.3119 19.5058 21.2859C20.6706 21.2679 21.4038 20.2465 22.1038 19.2024C22.942 18.0171 23.2785 16.8485 23.2919 16.7885C23.2652 16.7792 21.0305 15.9276 21.0078 13.3544ZM18.8706 7.03939C19.4543 6.31113 19.8537 5.32037 19.7429 4.31494C18.8979 4.35225 17.8414 4.89794 17.233 5.6102C16.6947 6.23784 16.2138 7.26659 16.338 8.23404C17.2871 8.30466 18.2615 7.75631 18.8706 7.03939Z"
            fill="white" />
        <path
            d="M87.841 0.172363H42.957L60.5373 26.8165H87.841C89.5801 26.8165 90.9994 25.406 90.9994 23.6689V3.32123C91 1.58489 89.5807 0.172363 87.841 0.172363Z"
            fill="url(#paint0_linear_1509_139)" />
        <path
            d="M36.7261 21.1631H35.2094L34.3786 18.5586H31.4907L30.6993 21.1631H29.2227L32.0845 12.2962H33.8516L36.7261 21.1631ZM34.1282 17.4659L33.3768 15.1506C33.2974 14.914 33.1478 14.357 32.9286 13.4802H32.902C32.8138 13.8573 32.6729 14.4143 32.4799 15.1506L31.7412 17.4659H34.1282ZM44.0714 17.8877C44.0714 18.975 43.7755 19.8345 43.1831 20.4656C42.6528 21.0272 41.9936 21.3078 41.2075 21.3078C40.3587 21.3078 39.7482 21.0059 39.3776 20.4009V23.7557H37.9537V16.8709C37.9537 16.1879 37.9357 15.4877 37.901 14.7694H39.1532L39.2327 15.7829H39.2593C39.7342 15.0193 40.4548 14.6375 41.4219 14.6375C42.1779 14.6375 42.8091 14.9353 43.314 15.5316C43.8182 16.1293 44.0714 16.9142 44.0714 17.8877ZM42.6207 17.9396C42.6207 17.3173 42.4805 16.8043 42.1986 16.3998C41.8907 15.9794 41.4773 15.7689 40.9591 15.7689C40.6078 15.7689 40.2885 15.8861 40.0033 16.1173C39.7175 16.3505 39.5305 16.655 39.4431 17.0321C39.399 17.208 39.3769 17.3513 39.3769 17.4646V18.5313C39.3769 18.9957 39.5199 19.3882 39.8057 19.7093C40.0916 20.0292 40.4629 20.1897 40.9197 20.1897C41.4561 20.1897 41.8735 19.9825 42.172 19.5714C42.4711 19.1589 42.6207 18.6152 42.6207 17.9396ZM51.4426 17.8877C51.4426 18.975 51.1467 19.8345 50.5543 20.4656C50.0233 21.0272 49.3648 21.3078 48.5781 21.3078C47.7292 21.3078 47.1188 21.0059 46.7481 20.4009V23.7557H45.3242V16.8709C45.3242 16.1879 45.3062 15.4877 45.2715 14.7694H46.5237L46.6032 15.7829H46.6299C47.1041 15.0193 47.8247 14.6375 48.7924 14.6375C49.5478 14.6375 50.1789 14.9353 50.6852 15.5316C51.1888 16.1293 51.4426 16.9142 51.4426 17.8877ZM49.9913 17.9396C49.9913 17.3173 49.8504 16.8043 49.5685 16.3998C49.2606 15.9794 48.8486 15.7689 48.3303 15.7689C47.979 15.7689 47.6598 15.8861 47.3732 16.1173C47.0874 16.3505 46.9011 16.655 46.8136 17.0321C46.7702 17.208 46.7468 17.3513 46.7468 17.4646V18.5313C46.7468 18.9957 46.8904 19.3882 47.1749 19.7093C47.4607 20.0285 47.8321 20.1897 48.2902 20.1897C48.8271 20.1897 49.2446 19.9825 49.5425 19.5714C49.8417 19.1589 49.9913 18.6152 49.9913 17.9396ZM59.684 18.6759C59.684 19.4308 59.4195 20.0444 58.894 20.5182C58.3156 21.0352 57.5082 21.2944 56.4729 21.2944C55.5165 21.2944 54.7498 21.1105 54.1715 20.742L54.5007 19.558C55.1252 19.9272 55.8111 20.1111 56.5577 20.1111C57.0947 20.1111 57.5121 19.9898 57.81 19.7493C58.1085 19.5081 58.2595 19.1856 58.2595 18.7831C58.2595 18.4227 58.1346 18.1209 57.8895 17.8751C57.643 17.6299 57.2356 17.4013 56.6633 17.1914C55.1071 16.6124 54.3284 15.7656 54.3284 14.6516C54.3284 13.924 54.6036 13.3283 55.1526 12.8626C55.7016 12.3975 56.4296 12.165 57.3352 12.165C58.144 12.165 58.8179 12.3056 59.3528 12.5861L58.9955 13.7441C58.4919 13.4722 57.9235 13.3363 57.2877 13.3363C56.7855 13.3363 56.3914 13.4596 56.1096 13.7048C55.8725 13.924 55.7523 14.1912 55.7523 14.5083C55.7523 14.8582 55.8893 15.1487 56.1617 15.3765C56.3981 15.5864 56.8296 15.815 57.4533 16.0601C58.2187 16.368 58.781 16.7264 59.141 17.1382C59.5037 17.5499 59.684 18.0636 59.684 18.6759ZM64.4039 15.8355H62.8343V18.9397C62.8343 19.7293 63.1109 20.1231 63.6652 20.1231C63.9196 20.1231 64.1307 20.1017 64.2977 20.0571L64.337 21.1358C64.0566 21.2405 63.6872 21.293 63.2297 21.293C62.6674 21.293 62.2279 21.1218 61.9107 20.7793C61.5948 20.4369 61.4359 19.8632 61.4359 19.0557V15.8328H60.5008V14.7668H61.4359V13.5961L62.8343 13.175V14.7668H64.4039V15.8355ZM71.4712 17.9136C71.4712 18.8964 71.1894 19.7032 70.627 20.3343C70.0386 20.9839 69.2559 21.3077 68.2801 21.3077C67.3384 21.3077 66.5897 20.9966 66.0314 20.3749C65.4731 19.7519 65.1939 18.967 65.1939 18.0203C65.1939 17.0294 65.4824 16.2179 66.0575 15.587C66.6338 14.9553 67.4099 14.6396 68.3856 14.6396C69.326 14.6396 70.0814 14.9513 70.653 15.5736C71.1994 16.1773 71.4712 16.9569 71.4712 17.9136ZM69.9952 17.9463C69.9952 17.3606 69.8684 16.8582 69.6138 16.4378C69.3153 15.9301 68.8879 15.6763 68.3342 15.6763C67.7639 15.6763 67.3265 15.9301 67.0285 16.4378C66.7734 16.8582 66.6465 17.3692 66.6465 17.9729C66.6465 18.5593 66.7734 19.0629 67.0285 19.4821C67.3364 19.9898 67.7659 20.2436 68.3222 20.2436C68.8665 20.2436 69.2933 19.9845 69.6018 19.4694C69.8637 19.039 69.9952 18.5333 69.9952 17.9463ZM76.1016 16.0187C75.9606 15.9927 75.8097 15.9794 75.6527 15.9794C75.1518 15.9794 74.7645 16.1673 74.4921 16.5457C74.2556 16.8788 74.1367 17.2999 74.1367 17.8083V21.1631H72.7128V16.783C72.7128 16.0467 72.6988 15.3751 72.6714 14.7701H73.9117L73.9638 15.9934H74.0032C74.1541 15.573 74.3905 15.2338 74.7151 14.9799C75.0324 14.7515 75.3749 14.6375 75.7443 14.6375C75.8758 14.6375 75.9948 14.6468 76.1003 14.6635L76.1016 16.0187ZM82.4697 17.6638C82.4697 17.9183 82.4529 18.1328 82.4175 18.3081H78.1458C78.1619 18.9397 78.369 19.4234 78.7656 19.7566C79.1257 20.0538 79.5911 20.203 80.1628 20.203C80.7953 20.203 81.3722 20.1031 81.8912 19.9012L82.1143 20.8866C81.5079 21.1505 80.7919 21.2817 79.9658 21.2817C78.972 21.2817 78.1919 20.9898 77.6242 20.4076C77.0579 19.8246 76.7741 19.041 76.7741 18.0596C76.7741 17.0961 77.0379 16.2932 77.5661 15.6529C78.1192 14.9693 78.8665 14.6275 79.8069 14.6275C80.7305 14.6275 81.4297 14.9693 81.9046 15.6529C82.2806 16.1946 82.4697 16.8662 82.4697 17.6638ZM81.1118 17.2953C81.1218 16.8736 81.0283 16.5104 80.8353 16.2033C80.5888 15.8075 80.2095 15.6103 79.7013 15.6103C79.2358 15.6103 78.8564 15.8028 78.5679 16.1893C78.3308 16.4965 78.1899 16.8656 78.1466 17.294L81.1118 17.2953Z"
            fill="white" />
        <path
            d="M33.4426 9.12262H32.6965L32.2885 7.84269H30.8692L30.4799 9.12262H29.7539L31.1604 4.76445H32.0287L33.4426 9.12262ZM32.1656 7.30566L31.7962 6.16764C31.7575 6.05104 31.686 5.77987 31.5758 5.34678H31.5625C31.5171 5.53401 31.4523 5.80585 31.3548 6.16764L30.9921 7.30566H32.1656ZM36.9595 5.98042L35.7667 9.12262H35.0861L33.9321 5.98042H34.6841L35.2224 7.64214C35.3132 7.91998 35.3907 8.18516 35.4488 8.43702H35.4682C35.5203 8.21114 35.5977 7.94596 35.6946 7.64214L36.2262 5.98042H36.9595ZM39.4987 9.12262L39.4466 8.76077H39.4272C39.2135 9.05194 38.9023 9.19386 38.507 9.19386C37.9432 9.19386 37.5412 8.79942 37.5412 8.26906C37.5412 7.4935 38.215 7.09239 39.3818 7.09239V7.03443C39.3818 6.62066 39.1614 6.41345 38.7273 6.41345C38.416 6.41345 38.1436 6.4914 37.9045 6.64665L37.7622 6.18758C38.054 6.00635 38.4167 5.91573 38.8448 5.91573C39.6676 5.91573 40.083 6.34882 40.083 7.21566V8.373C40.083 8.69015 40.0964 8.93601 40.1284 9.12323L39.4987 9.12262ZM39.4012 7.55752C38.6232 7.55752 38.2345 7.74541 38.2345 8.19116C38.2345 8.52097 38.4355 8.68221 38.714 8.68221C39.0706 8.68221 39.4012 8.41103 39.4012 8.04257V7.55752ZM41.6419 5.46271C41.4088 5.46271 41.2272 5.28148 41.2272 5.04229C41.2272 4.80309 41.4149 4.62852 41.6553 4.62852C41.895 4.62852 42.0894 4.80309 42.0828 5.04229C42.0828 5.29481 41.9018 5.46271 41.6419 5.46271ZM42.0052 9.12262H41.3053V5.98042H42.0052V9.12262ZM43.9487 9.12262H43.2488V4.53857H43.9487V9.12262ZM46.9234 9.12262L46.8713 8.76077H46.8519C46.6382 9.05194 46.327 9.19386 45.9316 9.19386C45.3679 9.19386 44.9659 8.79942 44.9659 8.26906C44.9659 7.4935 45.6397 7.09239 46.8065 7.09239V7.03443C46.8065 6.62066 46.5861 6.41345 46.152 6.41345C45.8407 6.41345 45.5682 6.4914 45.3292 6.64665L45.1863 6.18691C45.4781 6.00568 45.8408 5.91507 46.2689 5.91507C47.0917 5.91507 47.5071 6.34815 47.5071 7.21499V8.37233C47.5071 8.68948 47.5211 8.93534 47.5519 9.12257L46.9234 9.12262ZM46.8259 7.55752C46.0478 7.55752 45.6591 7.74541 45.6591 8.19116C45.6591 8.52097 45.8601 8.68221 46.1386 8.68221C46.4952 8.68221 46.8259 8.41103 46.8259 8.04257V7.55752ZM50.3429 9.19392C49.8961 9.19392 49.5661 9.00602 49.3524 8.63757H49.3384L49.2983 9.12262H48.7019C48.7213 8.87077 48.728 8.5856 48.728 8.27577V4.53857H49.4286V6.44016H49.4419C49.6496 6.09102 49.9856 5.91645 50.4464 5.91645C51.2051 5.91645 51.7367 6.56342 51.7367 7.50688C51.7367 8.48232 51.1463 9.19392 50.3429 9.19392ZM50.2006 6.46481C49.7979 6.46481 49.4293 6.81394 49.4293 7.299V7.84868C49.4293 8.28177 49.7605 8.63757 50.1887 8.63757C50.7129 8.63757 51.0248 8.21114 51.0248 7.5322C51.0241 6.89856 50.6995 6.46481 50.2006 6.46481ZM53.4712 9.12262H52.772V4.53857H53.4712V9.12262ZM57.2814 7.71942H55.1803C55.1943 8.31442 55.5883 8.65023 56.172 8.65023C56.4832 8.65023 56.7684 8.59826 57.0209 8.50164L57.1297 8.9867C56.8319 9.11596 56.4819 9.18059 56.0738 9.18059C55.0881 9.18059 54.505 8.55961 54.505 7.59683C54.505 6.63338 55.1021 5.90912 55.995 5.90912C56.7985 5.90912 57.3047 6.50412 57.3047 7.40294C57.3074 7.52554 57.3014 7.63547 57.2814 7.71942ZM56.6395 7.22171C56.6395 6.73665 56.393 6.39418 55.9456 6.39418C55.5435 6.39418 55.227 6.74332 55.1802 7.22171H56.6395ZM61.5236 9.19392C60.6033 9.19392 60.0069 8.50831 60.0069 7.57751C60.0069 6.60739 60.616 5.91579 61.5764 5.91579C62.4826 5.91579 63.0931 6.56875 63.0931 7.5262C63.0932 8.50831 62.464 9.19392 61.5236 9.19392ZM61.5503 6.42616C61.0448 6.42616 60.7209 6.89789 60.7209 7.55752C60.7209 8.20448 61.0515 8.67621 61.5437 8.67621C62.0359 8.67621 62.3658 8.17183 62.3658 7.54419C62.3665 6.90456 62.0425 6.42616 61.5503 6.42616ZM66.8559 9.12262H66.1567V7.31832C66.1567 6.76264 65.9429 6.48413 65.5215 6.48413C65.1068 6.48413 64.8209 6.83993 64.8209 7.25369V9.12262H64.1217V6.87857C64.1217 6.60073 64.1143 6.3029 64.0956 5.97975H64.7114L64.7441 6.46481H64.7635C64.9504 6.129 65.3338 5.91512 65.7613 5.91512C66.4218 5.91512 66.8559 6.4195 66.8559 7.24036L66.8559 9.12262ZM71.4354 6.50412H70.6654V8.02991C70.6654 8.41836 70.801 8.61225 71.0728 8.61225C71.1963 8.61225 71.3005 8.59892 71.384 8.5796L71.4034 9.10996C71.2671 9.16199 71.0848 9.18792 70.8597 9.18792C70.3081 9.18792 69.9788 8.88409 69.9788 8.08855V6.50412H69.5193V5.98042H69.9788V5.40475L70.6654 5.19753V5.97975H71.4354V6.50412ZM75.1421 9.12262H74.4415V7.33165C74.4415 6.7693 74.2278 6.4848 73.8064 6.4848C73.4437 6.4848 73.1071 6.73066 73.1071 7.22837V9.12262H72.4066V4.53857H73.1071V6.42616H73.1205C73.3409 6.08369 73.6588 5.91512 74.0669 5.91512C74.7341 5.91512 75.1421 6.43216 75.1421 7.25369V9.12262ZM78.7186 7.71942H76.6181C76.6315 8.31442 77.0255 8.65023 77.6093 8.65023C77.9212 8.65023 78.2056 8.59826 78.4581 8.50164L78.5677 8.9867C78.2697 9.11596 77.9192 9.18059 77.5111 9.18059C76.5253 9.18059 75.9423 8.55961 75.9423 7.59683C75.9423 6.63338 76.5394 5.90912 77.4323 5.90912C78.2358 5.90912 78.742 6.50412 78.742 7.40294C78.7445 7.52554 78.7379 7.63547 78.7186 7.71942ZM78.0767 7.22171C78.0767 6.73665 77.8309 6.39418 77.3834 6.39418C76.9807 6.39418 76.6641 6.74332 76.6181 7.22171H78.0767Z"
            fill="white" />
    </g>
    <defs>
        <linearGradient id="paint0_linear_1509_139" x1="66.9787" y1="26.8889" x2="66.9787"
            y2="2.87193" gradientUnits="userSpaceOnUse">
            <stop stop-color="#1A1A1A" stop-opacity="0.1" />
            <stop offset="0.123" stop-color="#212121" stop-opacity="0.151" />
            <stop offset="0.308" stop-color="#353535" stop-opacity="0.227" />
            <stop offset="0.532" stop-color="#575757" stop-opacity="0.318" />
            <stop offset="0.783" stop-color="#858585" stop-opacity="0.421" />
            <stop offset="1" stop-color="#B3B3B3" stop-opacity="0.51" />
        </linearGradient>
        <clipPath id="clip0_1509_139">
            <rect width="90.1132" height="26.6464" fill="white"
                transform="translate(0.886719 0.171387)" />
        </clipPath>
    </defs>
</svg>
    