<svg width="14" height="14" viewBox="0 0 14 14" fill="none" xmlns="http://www.w3.org/2000/svg">
    <path
        d="M13.1504 10.929V4.43453C13.6315 4.35679 14 3.94267 14 3.43935C14 2.88064 13.5472 2.42782 12.9887 2.42782C12.4298 2.42782 11.977 2.88064 11.977 3.43935C11.977 3.75884 12.128 4.04042 12.3594 4.22562L10.5606 6.47388L7.52806 2.47641C7.9797 2.27413 8.29473 1.82172 8.29473 1.29467C8.29473 0.579715 7.7152 0 7.00008 0C6.28491 0 5.70538 0.579715 5.70538 1.29464C5.70538 1.8217 6.02038 2.2741 6.47205 2.47639L3.43935 6.47385L1.64079 4.22559C1.87214 4.04039 2.02325 3.75881 2.02325 3.43932C2.02325 2.88061 1.57035 2.4278 1.01145 2.4278C0.452813 2.42782 0 2.88064 0 3.43935C0 3.94267 0.368566 4.35679 0.849816 4.43455V10.929C0.466539 10.9504 0.161875 11.265 0.161875 11.6533C0.161875 12.0557 0.487785 12.3817 0.89034 12.3817H2.54929H6.35253H13.1099C13.5122 12.3817 13.8383 12.0557 13.8383 11.6533C13.8383 11.2648 13.5334 10.9504 13.1504 10.929Z"
        fill="#FFB241" />
    <path d="M7.00183 1.78027L3.4411 6.47386L0.851562 3.23701V11.5722H7.00183V1.78027Z"
        fill="#FEE580" />
    <path d="M7 1.78027L10.5606 6.47386L13.1503 3.23701V11.5722H7V1.78027Z" fill="#E2CC70" />
    <path opacity="0.13"
        d="M11.2094 11.1406L7.75645 7.6875L6.24609 8.87449L8.67373 11.3025L11.2094 11.1406Z"
        fill="#B98F4B" />
    <path
        d="M7.00391 7.2832C7.54025 7.2832 7.97477 7.71794 7.97477 8.25429C7.97477 8.79064 7.54025 9.22557 7.00391 9.22557V7.2832Z"
        fill="#D36306" />
    <path
        d="M7.00217 9.22557C6.4658 9.22557 6.03125 8.79066 6.03125 8.25429C6.03125 7.71791 6.46577 7.2832 7.00217 7.2832V9.22557Z"
        fill="#D98510" />
    <path
        d="M7 0C7.71515 0 8.29464 0.579715 8.29464 1.29464C8.29464 2.01001 7.71515 2.5897 7 2.5897V0Z"
        fill="#E2CC70" />
    <path
        d="M7.00173 2.5897C6.28655 2.5897 5.70703 2.01001 5.70703 1.29464C5.70703 0.579715 6.28655 0 7.00173 0V2.5897Z"
        fill="#FEE580" />
    <path
        d="M2.02322 3.43926C2.02322 3.99798 1.57032 4.45076 1.01142 4.45076C0.452812 4.45076 0 3.99795 0 3.43926C0 2.88057 0.452812 2.42773 1.01142 2.42773C1.57032 2.42773 2.02322 2.88055 2.02322 3.43926Z"
        fill="#FEE580" />
    <path
        d="M13.9996 3.43926C13.9996 3.99798 13.5468 4.45076 12.9883 4.45076C12.4294 4.45076 11.9766 3.99795 11.9766 3.43926C11.9766 2.88057 12.4294 2.42773 12.9883 2.42773C13.5468 2.42773 13.9996 2.88055 13.9996 3.43926Z"
        fill="#E2CC70" />
    <path
        d="M13.8366 11.6532C13.8366 12.0556 13.5105 12.3815 13.1082 12.3815H0.888621C0.486039 12.3815 0.160156 12.0556 0.160156 11.6532C0.160156 11.2509 0.486066 10.9248 0.888621 10.9248H13.1082C13.5105 10.9248 13.8366 11.2509 13.8366 11.6532Z"
        fill="#EC950C" />
    <path d="M6.35012 10.9248H2.54688V12.3815H6.35012V10.9248Z" fill="#FFB241" />
</svg>
    