<svg width="90" height="27" viewBox="0 0 90 27" fill="none" xmlns="http://www.w3.org/2000/svg">
    <path
        d="M85.862 26.6935H3.30239C1.48609 26.6935 0 25.192 0 23.3568V3.3367C0 1.50151 1.48607 0 3.30239 0H85.8619C87.6782 0 89.1643 1.50151 89.1643 3.3367V23.3568C89.1643 25.192 87.6783 26.6935 85.862 26.6935Z"
        fill="black" />
    <path
        d="M85.862 0H3.30239C1.48609 0 0 1.50151 0 3.3367V23.3568C0 25.192 1.48607 26.6935 3.30239 26.6935H85.8619C87.6782 26.6935 89.1643 25.192 89.1643 23.3568V3.3367C89.1643 1.50151 87.6783 0 85.862 0ZM85.8619 0.533854C87.3916 0.533854 88.6359 1.79141 88.6359 3.3367V23.3568C88.6359 24.9024 87.3916 26.1599 85.8619 26.1599H3.30239C1.773 26.1599 0.528387 24.9024 0.528387 23.3568V3.3367C0.528387 1.79141 1.77297 0.533884 3.30239 0.533884H85.8619"
        fill="#A6A6A6" />
    <path
        d="M31.3193 6.83618C31.3193 7.39529 31.1554 7.84052 30.8272 8.17265C30.4544 8.56758 29.9686 8.76519 29.3713 8.76519C28.7993 8.76519 28.313 8.565 27.9131 8.16404C27.5124 7.76338 27.3125 7.26653 27.3125 6.67375C27.3125 6.08069 27.5124 5.58415 27.9131 5.18316C28.313 4.78253 28.7993 4.58203 29.3713 4.58203C29.6551 4.58203 29.9268 4.63812 30.1848 4.74996C30.4428 4.86206 30.6497 5.01088 30.8045 5.19725L30.4562 5.54942C30.1938 5.2327 29.8326 5.07447 29.3713 5.07447C28.9541 5.07447 28.5934 5.22257 28.289 5.51894C27.9845 5.81562 27.8324 6.20036 27.8324 6.67375C27.8324 7.14717 27.9845 7.53187 28.289 7.82858C28.5934 8.12496 28.9541 8.27303 29.3713 8.27303C29.8138 8.27303 30.1827 8.12415 30.4781 7.82597C30.6699 7.63171 30.7807 7.3617 30.8104 7.01496H29.3713V6.53402H31.2916C31.3102 6.6386 31.3192 6.73895 31.3192 6.83618"
        fill="white" />
    <path
        d="M31.3189 6.83602H31.2528C31.2523 7.38238 31.0943 7.80673 30.7801 8.12531L30.7794 8.12585L30.7791 8.12639C30.4181 8.5077 29.9542 8.69749 29.3708 8.6983C28.8142 8.69749 28.3482 8.50563 27.9591 8.1167C27.5708 7.72699 27.3789 7.25123 27.3781 6.67359C27.3789 6.09567 27.5708 5.62018 27.9591 5.23074C28.3482 4.84154 28.8142 4.64941 29.3708 4.6486C29.6462 4.6486 29.9083 4.70289 30.1583 4.81104C30.4085 4.92003 30.6062 5.06285 30.7535 5.24016L30.8041 5.19709L30.7574 5.14991L30.4091 5.50232L30.4557 5.54925L30.5066 5.50655C30.2321 5.17415 29.8467 5.00658 29.3709 5.00757C28.9383 5.00703 28.5577 5.16323 28.2429 5.47086C27.9251 5.77947 27.7654 6.18586 27.7659 6.67359C27.7654 7.16134 27.9251 7.5677 28.2429 7.87634C28.5577 8.18397 28.9383 8.34014 29.3708 8.3396C29.828 8.34041 30.2177 8.1837 30.5244 7.87299C30.7292 7.66544 30.8454 7.37797 30.8758 7.02053L30.882 6.94807H29.4369V6.60059H31.2912V6.53385L31.2261 6.54558C31.2442 6.64677 31.2528 6.74293 31.2528 6.83602H31.3849C31.3849 6.73459 31.3755 6.63034 31.3562 6.52192L31.3464 6.46712H29.3048V7.08153H30.81V7.0148L30.7442 7.00907C30.7151 7.34486 30.6093 7.59772 30.431 7.77866C30.1472 8.06433 29.7989 8.20532 29.3709 8.20613C28.9692 8.20559 28.6284 8.06586 28.3345 7.78043C28.0435 7.49602 27.8988 7.13291 27.898 6.67359C27.8988 6.21426 28.0435 5.85115 28.3345 5.56674C28.6284 5.28131 28.9692 5.14158 29.3709 5.14104C29.8175 5.14212 30.1547 5.2912 30.4053 5.59229L30.4517 5.64808L30.8508 5.2443L30.8936 5.20105L30.8547 5.15432C30.6924 4.95887 30.4762 4.80372 30.2104 4.68855C29.9442 4.57302 29.6632 4.51514 29.3709 4.51514C28.7837 4.51463 28.277 4.72316 27.866 5.13585C27.4535 5.54772 27.2455 6.06544 27.2461 6.67359C27.2455 7.28146 27.4535 7.79948 27.8663 8.21159C28.277 8.62401 28.7837 8.8323 29.3709 8.83176C29.9824 8.8323 30.4896 8.6271 30.8745 8.21861L30.8268 8.17248L30.8735 8.21969C31.2156 7.87428 31.3853 7.40766 31.3849 6.83602H31.3189ZM34.3632 5.16347H32.5585V6.43302H34.186V6.91415H32.5585V8.1837H34.3632V8.6756H32.0497V4.67157H34.3632V5.16347Z"
        fill="white" />
    <path
        d="M34.3639 5.16312V5.09639H32.4931V6.4994H34.1206V6.84689L32.4931 6.84707V8.25008H34.2978V8.60851H32.1165V4.73796H34.2978V5.16312H34.3639H34.4299V4.60449H31.9844V8.74198H34.4299V8.11662H32.6252V6.98053H34.2527V6.36594H32.6252V5.22985H34.4299V5.16312H34.3639ZM36.5112 8.67527H36.0017V5.16309H34.8948V4.67119H37.618V5.16309H36.5112V8.67521"
        fill="white" />
    <path
        d="M36.5105 8.67528V8.60851H36.067V5.09639H34.9602V4.73799H37.5513V5.09639H36.4445V8.67524H36.5105H36.5766V5.22985H37.6834V4.60449H34.8281V5.22982H35.9349V8.74195H36.5766V8.67521H36.5105M39.5877 8.67528V4.67119H40.0967V8.67521H39.5877"
        fill="white" />
    <path
        d="M39.5895 8.67527H39.6555V4.73796H40.0324V8.60851H39.5895V8.67524V8.74198H40.1645V4.60449H39.5234V8.74198H39.5895V8.67524M42.3573 8.67527H41.8477V5.16309H40.7409V4.67119H43.4641V5.16309H42.3573V8.67521"
        fill="white" />
    <path
        d="M42.3581 8.67579V8.60903H41.9146V5.0969H40.8079V4.7385H43.3989V5.0969H42.2921V8.67576H42.3581H42.4242V5.23036H43.531V4.605H40.6758V5.23033H41.7825V8.74246H42.4242V8.67573H42.3581M46.0904 7.82312C46.3837 8.12313 46.7426 8.273 47.167 8.273C47.5914 8.273 47.9505 8.12313 48.2434 7.82312C48.537 7.52308 48.6841 7.13955 48.6841 6.67375C48.6841 6.20798 48.537 5.82444 48.2434 5.5244C47.9505 5.22436 47.5914 5.07447 47.167 5.07447C46.7426 5.07447 46.3837 5.22436 46.0904 5.5244C45.7975 5.82444 45.6505 6.20794 45.6505 6.67375C45.6505 7.13955 45.7975 7.52308 46.0904 7.82312ZM48.62 8.15831C48.2304 8.56311 47.7459 8.76519 47.167 8.76519C46.5875 8.76519 46.1032 8.56311 45.7145 8.15831C45.3246 7.75396 45.1306 7.25901 45.1306 6.67375C45.1306 6.08849 45.3246 5.59344 45.7145 5.18918C46.1033 4.7843 46.5875 4.58203 47.167 4.58203C47.7429 4.58203 48.2261 4.78538 48.6175 5.19179C49.0083 5.59818 49.2039 6.09215 49.2039 6.67375C49.2039 7.25901 49.0088 7.75396 48.62 8.15831Z"
        fill="white" />
    <path
        d="M46.0844 7.82296L46.0374 7.86987C46.3416 8.1819 46.7211 8.34041 47.161 8.3396C47.6006 8.34041 47.9807 8.1819 48.2844 7.86987C48.5906 7.55753 48.7446 7.15348 48.7441 6.67359C48.7445 6.19372 48.5906 5.78964 48.2844 5.4773C47.9807 5.16527 47.6006 5.00679 47.161 5.00757C46.7211 5.00679 46.3416 5.16527 46.0374 5.4773C45.732 5.78964 45.5776 6.19372 45.5784 6.67359C45.5776 7.15345 45.732 7.55753 46.0374 7.86987L46.0844 7.82296L46.1314 7.77602C45.8512 7.48795 45.7111 7.12559 45.7105 6.67359C45.7111 6.22161 45.8512 5.85925 46.1313 5.57115C46.4141 5.28314 46.7518 5.14185 47.161 5.14107C47.5699 5.14185 47.9084 5.28314 48.1904 5.57115C48.4711 5.85925 48.6112 6.22161 48.6117 6.67359C48.6112 7.12556 48.4711 7.48795 48.1904 7.77602C47.9084 8.06406 47.5699 8.20533 47.161 8.20611C46.7518 8.20533 46.4141 8.06406 46.1314 7.77602L46.0844 7.82296ZM48.6141 8.15815L48.5668 8.11178C48.1881 8.50383 47.725 8.69752 47.161 8.6983C46.5968 8.69749 46.1337 8.50383 45.7556 8.11178C45.3777 7.71838 45.1912 7.24397 45.1907 6.67359C45.1912 6.1032 45.3777 5.62879 45.7556 5.23542C46.1337 4.84334 46.5967 4.64941 47.161 4.64863C47.7214 4.64941 48.1834 4.84415 48.5643 5.23827C48.9435 5.63347 49.1311 6.10713 49.1319 6.67359C49.1311 7.24397 48.944 7.71838 48.5668 8.11178L48.6141 8.15815L48.6616 8.20452C49.0619 7.78904 49.2644 7.27366 49.264 6.67359C49.2645 6.07693 49.0612 5.5626 48.6589 5.14527C48.2565 4.72628 47.7523 4.51442 47.161 4.51514C46.5666 4.51442 46.0609 4.72529 45.661 5.14266V5.14236C45.2598 5.55813 45.0581 6.07351 45.0586 6.67359C45.0581 7.27366 45.2598 7.78904 45.661 8.20479L45.6628 8.20668L45.661 8.20452C46.0609 8.62188 46.5666 8.8323 47.161 8.83176C47.7552 8.8323 48.2608 8.62188 48.6616 8.20452L48.6141 8.15815ZM49.9125 8.67563V4.67155H50.5323L52.4582 7.7864H52.4802L52.4582 7.01477V4.67155H52.9678V8.67557H52.4363L50.4213 5.40976H50.3994L50.4213 6.18166V8.67557H49.9126"
        fill="white" />
    <path
        d="M49.918 8.67528H49.9841V4.73796H50.5011L52.427 7.85281H52.5535L52.5297 7.01346V4.73799H52.9072V8.60851H52.4784L50.4635 5.34271H50.337L50.3607 6.18242V8.60851H49.918V8.67525V8.74198H50.4928V6.18029L50.4709 5.40764L50.4049 5.40944V5.47617H50.4268V5.40944L50.3708 5.44492L52.4051 8.74198H53.0393V4.60449H52.3977V7.01523L52.4196 7.78788L52.4856 7.78608V7.71935H52.4637V7.78608L52.5197 7.75066L50.5743 4.60449H49.852V8.74198H49.918V8.67525M70.631 20.02H71.8634V11.6775H70.631L70.631 20.02ZM81.7316 14.6827L80.3189 18.2995H80.2766L78.8103 14.6826H77.4827L79.6815 19.7379L78.4279 22.5499H79.7138L83.1021 14.6826L81.7316 14.6827ZM74.7424 19.0725C74.3382 19.0725 73.7755 18.8686 73.7755 18.3639C73.7755 17.72 74.4769 17.4732 75.0819 17.4732C75.6242 17.4732 75.8785 17.5912 76.208 17.7524C76.1123 18.525 75.4537 19.0725 74.7424 19.0725ZM74.8911 14.5001C73.9987 14.5001 73.0747 14.8974 72.6923 15.7775L73.7861 16.2389C74.0199 15.7775 74.4551 15.627 74.9122 15.627C75.5495 15.627 76.1975 16.0136 76.208 16.7005V16.7863C75.9848 16.6575 75.5073 16.4643 74.9227 16.4643C73.7438 16.4643 72.543 17.1189 72.543 18.3425C72.543 19.4588 73.51 20.178 74.5932 20.178C75.4221 20.178 75.8785 19.8023 76.1658 19.3623H76.208V20.0062H77.3976V16.8076C77.3976 15.3268 76.3038 14.5001 74.8911 14.5001ZM67.2744 15.6982H65.5215V12.8386H67.2744C68.1958 12.8386 68.7189 13.6094 68.7189 14.2684C68.7189 14.9149 68.1958 15.6982 67.2744 15.6982ZM67.2427 11.6775H64.2897V20.02H65.5215V16.8593H67.2427C68.6086 16.8593 69.9513 15.8601 69.9513 14.2684C69.9513 12.6767 68.6086 11.6775 67.2427 11.6775ZM51.1396 19.074C50.2882 19.074 49.5754 18.3537 49.5754 17.3645C49.5754 16.3648 50.2882 15.6336 51.1396 15.6336C51.9802 15.6336 52.6399 16.3648 52.6399 17.3645C52.6399 18.3537 51.9802 19.074 51.1396 19.074ZM52.5548 15.1498H52.5122C52.2356 14.8166 51.7033 14.5155 51.0331 14.5155C49.6285 14.5155 48.3411 15.7626 48.3411 17.3645C48.3411 18.9557 49.6285 20.1921 51.0331 20.1921C51.7033 20.1921 52.2356 19.8909 52.5122 19.5471H52.5548V19.9556C52.5548 21.0416 51.9802 21.6222 51.0545 21.6222C50.299 21.6222 49.8308 21.0737 49.6391 20.6115L48.5646 21.063C48.8732 21.8155 49.6925 22.7402 51.0545 22.7402C52.5016 22.7402 53.7253 21.8799 53.7253 19.7836V14.6876H52.5548V15.1498ZM54.5764 20.02H55.8107V11.6772H54.5764V20.02ZM57.6303 17.2678C57.5984 16.1711 58.4709 15.6122 59.0986 15.6122C59.5884 15.6122 60.0032 15.8593 60.1413 16.2144L57.6303 17.2678ZM61.4609 16.3217C61.2271 15.6872 60.5138 14.5155 59.056 14.5155C57.609 14.5155 56.4067 15.6659 56.4067 17.3538C56.4067 18.945 57.5984 20.1921 59.1944 20.1921C60.4821 20.1921 61.2271 19.3964 61.5356 18.9342L60.5778 18.289C60.2588 18.7622 59.8223 19.074 59.1944 19.074C58.5666 19.074 58.1198 18.7836 57.8324 18.214L61.5884 16.6442L61.4609 16.3217ZM31.5359 15.3864V16.5905H34.3875C34.3024 17.2678 34.0789 17.7623 33.7384 18.1063C33.3235 18.5258 32.6744 18.988 31.5359 18.988C29.7801 18.988 28.4076 17.5581 28.4076 15.7842C28.4076 14.0103 29.7801 12.5803 31.5359 12.5803C32.483 12.5803 33.1744 12.9566 33.6852 13.4404L34.5258 12.5912C33.813 11.903 32.8659 11.3762 31.5359 11.3762C29.1311 11.3762 27.1094 13.3544 27.1094 15.7842C27.1094 18.214 29.1311 20.1921 31.5359 20.1921C32.8341 20.1921 33.813 19.7622 34.579 18.9557C35.3664 18.1601 35.6112 17.042 35.6112 16.139C35.6112 15.8593 35.5901 15.6015 35.5472 15.3864H31.5359ZM38.8533 19.074C38.0018 19.074 37.2676 18.3644 37.2676 17.3538C37.2676 16.3324 38.0018 15.6336 38.8533 15.6336C39.7043 15.6336 40.4386 16.3324 40.4386 17.3538C40.4386 18.3644 39.7043 19.074 38.8533 19.074ZM38.8533 14.5155C37.2995 14.5155 36.0333 15.7089 36.0333 17.3538C36.0333 18.988 37.2995 20.1921 38.8533 20.1921C40.4066 20.1921 41.6729 18.988 41.6729 17.3538C41.6729 15.7089 40.4066 14.5155 38.8533 14.5155ZM45.0044 19.074C44.1533 19.074 43.419 18.3644 43.419 17.3538C43.419 16.3324 44.1533 15.6336 45.0044 15.6336C45.8556 15.6336 46.5898 16.3324 46.5898 17.3538C46.5898 18.3644 45.8555 19.074 45.0044 19.074ZM45.0044 14.5155C43.4508 14.5155 42.1848 15.7089 42.1848 17.3538C42.1848 18.988 43.4508 20.1921 45.0044 20.1921C46.5579 20.1921 47.8241 18.988 47.8241 17.3538C47.8241 15.7089 46.5578 14.5155 45.0044 14.5155Z"
        fill="white" />
    <path
        d="M6.93989 5.07942C6.71824 5.28148 6.58594 5.6185 6.58594 6.06585V5.96472V20.727V20.6297C6.58594 21.0429 6.69942 21.3619 6.89161 21.5674L6.94066 21.6148V21.6151C7.09622 21.7569 7.29569 21.8322 7.52429 21.832C7.74766 21.832 7.99898 21.76 8.26422 21.6081L17.8512 16.1043L21.1442 14.2136C21.5624 13.9736 21.7972 13.6639 21.8365 13.3484V13.3471C21.7972 13.031 21.5625 12.7215 21.1442 12.4814L17.8509 10.591L8.26425 5.08722C7.99845 4.93501 7.74695 4.86279 7.52298 4.86279C7.29465 4.86279 7.09544 4.93786 6.93995 5.07942H6.93989Z"
        fill="#00C1FF" />
    <path
        d="M6.94069 21.6152L6.89161 21.5678C6.69942 21.3623 6.58594 21.0433 6.58594 20.6301V20.7274V5.96877V6.06624C6.58594 5.61888 6.71824 5.28187 6.93989 5.07981L15.1231 13.3478L6.94069 21.6152Z"
        fill="url(#paint0_linear_1509_150)" />
    <path
        d="M17.8531 16.1045L15.125 13.3476L17.8529 10.5911L21.1462 12.4816C21.5644 12.7217 21.7992 13.0311 21.8384 13.3473V13.3486C21.7992 13.664 21.5644 13.9738 21.1462 14.2138L17.8531 16.1045"
        fill="url(#paint1_linear_1509_150)" />
    <path
        d="M7.52497 21.8315C7.2964 21.8318 7.09693 21.7564 6.94141 21.6146V21.6144L15.1238 13.347L17.8519 16.1039L8.2649 21.6076C7.99967 21.7596 7.74835 21.8315 7.52497 21.8315Z"
        fill="url(#paint2_linear_1509_150)" />
    <path
        d="M15.1246 13.3472L6.94141 5.07919C7.09696 4.93763 7.29616 4.86256 7.52447 4.86256C7.74844 4.86256 7.99996 4.93475 8.26573 5.08698L17.8524 10.5907L15.1246 13.3472"
        fill="url(#paint3_linear_1509_150)" />
    <path
        d="M7.52742 21.9292C7.29885 21.9292 7.09911 21.8539 6.94356 21.7121L6.94329 21.7123C6.94265 21.7116 6.94197 21.711 6.94124 21.7105L6.89869 21.6685C6.89736 21.6672 6.89611 21.6657 6.89453 21.6641L6.94359 21.6146C7.09914 21.7564 7.29858 21.8317 7.52722 21.8314C7.75056 21.8314 8.00188 21.7595 8.26711 21.6075L17.8541 16.1038L17.9155 16.1659L17.8533 16.2016L8.26708 21.705C8.02537 21.8435 7.79545 21.9156 7.58778 21.9277C7.56768 21.9287 7.54755 21.9292 7.52742 21.9292Z"
        fill="url(#paint4_linear_1509_150)" />
    <path
        d="M6.89161 21.6646C6.69942 21.4591 6.58594 21.1403 6.58594 20.7269V20.6297C6.58594 21.0428 6.69942 21.3618 6.89161 21.5673L6.94066 21.6148L6.89161 21.6646Z"
        fill="url(#paint5_linear_1509_150)" />
    <path
        d="M17.913 16.1665L17.8516 16.1044L21.1446 14.2137C21.5628 13.9737 21.7976 13.664 21.8369 13.3485C21.8369 13.4643 21.8113 13.58 21.7605 13.6927C21.6581 13.9197 21.4527 14.1342 21.1446 14.3112L17.913 16.1665"
        fill="url(#paint6_linear_1509_150)" />
    <path
        d="M21.8371 13.3472C21.7979 13.031 21.5631 12.7215 21.1449 12.4814L17.8516 10.591L17.913 10.5289H17.9133L21.1449 12.3842C21.606 12.649 21.8369 12.9981 21.8371 13.3472Z"
        fill="url(#paint7_linear_1509_150)" />
    <path
        d="M6.58594 6.06592V5.96395C6.58594 5.92718 6.58692 5.89122 6.58879 5.85631V5.85472C6.58879 5.85424 6.58879 5.85373 6.58897 5.85319V5.84926C6.60886 5.49341 6.71824 5.21583 6.89161 5.03048L6.93989 5.07946C6.71824 5.28154 6.58594 5.61856 6.58594 6.06592Z"
        fill="url(#paint8_linear_1509_150)" />
    <path
        d="M17.8538 10.5908L8.26711 5.08703C8.00134 4.93482 7.74984 4.86263 7.52588 4.86263C7.29754 4.86263 7.09834 4.9377 6.94282 5.07926L6.89453 5.03026C6.90961 5.01413 6.92528 4.99857 6.94151 4.98362C6.94201 4.98308 6.94282 4.98254 6.94332 4.98203C7.09763 4.84155 7.29472 4.76648 7.521 4.76513H7.52588C7.74984 4.76513 8.00134 4.83735 8.26711 4.98962L17.9155 10.5285L17.9152 10.5287L17.8538 10.5908Z"
        fill="url(#paint9_linear_1509_150)" />
    <defs>
        <linearGradient id="paint0_linear_1509_150" x1="11.8155" y1="5.81278" x2="4.70183"
            y2="12.876" gradientUnits="userSpaceOnUse">
            <stop stop-color="#00A0FF" />
            <stop offset="0.00657" stop-color="#00A1FF" />
            <stop offset="0.2601" stop-color="#00BEFF" />
            <stop offset="0.5122" stop-color="#00D2FF" />
            <stop offset="0.7604" stop-color="#00DFFF" />
            <stop offset="1" stop-color="#00E3FF" />
        </linearGradient>
        <linearGradient id="paint1_linear_1509_150" x1="22.348" y1="13.2999" x2="6.36641"
            y2="13.2999" gradientUnits="userSpaceOnUse">
            <stop stop-color="#FFE000" />
            <stop offset="0.4087" stop-color="#FFBD00" />
            <stop offset="0.7754" stop-color="#FFA500" />
            <stop offset="1" stop-color="#FF9C00" />
        </linearGradient>
        <linearGradient id="paint2_linear_1509_150" x1="16.4035" y1="15.9681" x2="4.34965"
            y2="27.8492" gradientUnits="userSpaceOnUse">
            <stop stop-color="#FF3A44" />
            <stop offset="1" stop-color="#C31162" />
        </linearGradient>
        <linearGradient id="paint3_linear_1509_150" x1="4.83236" y1="3.85342" x2="10.2046"
            y2="9.15675" gradientUnits="userSpaceOnUse">
            <stop stop-color="#32A071" />
            <stop offset="0.0685" stop-color="#2DA771" />
            <stop offset="0.4762" stop-color="#15CF74" />
            <stop offset="0.8009" stop-color="#06E775" />
            <stop offset="1" stop-color="#00F076" />
        </linearGradient>
        <linearGradient id="paint4_linear_1509_150" x1="16.3997" y1="17.8804" x2="6.7458"
            y2="27.466" gradientUnits="userSpaceOnUse">
            <stop stop-color="#CC2E36" />
            <stop offset="1" stop-color="#9C0E4E" />
        </linearGradient>
        <linearGradient id="paint5_linear_1509_150" x1="7.67606" y1="5.81229" x2="1.40903"
            y2="12.035" gradientUnits="userSpaceOnUse">
            <stop stop-color="#008DE0" />
            <stop offset="0.00657" stop-color="#008DE0" />
            <stop offset="0.2601" stop-color="#00A7E0" />
            <stop offset="0.5122" stop-color="#00B8E0" />
            <stop offset="0.7604" stop-color="#00C4E0" />
            <stop offset="1" stop-color="#00C7E0" />
        </linearGradient>
        <linearGradient id="paint6_linear_1509_150" x1="22.3465" y1="13.3479" x2="6.36486"
            y2="13.3479" gradientUnits="userSpaceOnUse">
            <stop stop-color="#E0C500" />
            <stop offset="0.4087" stop-color="#E0A600" />
            <stop offset="0.7754" stop-color="#E09100" />
            <stop offset="1" stop-color="#E08900" />
        </linearGradient>
        <linearGradient id="paint7_linear_1509_150" x1="22.3467" y1="13.3478" x2="6.36518"
            y2="13.3478" gradientUnits="userSpaceOnUse">
            <stop stop-color="#FFE840" />
            <stop offset="0.4087" stop-color="#FFCE40" />
            <stop offset="0.7754" stop-color="#FFBC40" />
            <stop offset="1" stop-color="#FFB540" />
        </linearGradient>
        <linearGradient id="paint8_linear_1509_150" x1="7.66932" y1="5.8238" x2="1.63539"
            y2="11.5555" gradientUnits="userSpaceOnUse">
            <stop stop-color="#40B8FF" />
            <stop offset="0.00657" stop-color="#40B9FF" />
            <stop offset="0.2601" stop-color="#40CEFF" />
            <stop offset="0.5122" stop-color="#40DDFF" />
            <stop offset="0.7604" stop-color="#40E7FF" />
            <stop offset="1" stop-color="#40EAFF" />
        </linearGradient>
        <linearGradient id="paint9_linear_1509_150" x1="4.82182" y1="5.60202" x2="9.13274"
            y2="9.88246" gradientUnits="userSpaceOnUse">
            <stop stop-color="#65B895" />
            <stop offset="0.0685" stop-color="#62BD95" />
            <stop offset="0.4762" stop-color="#50DB97" />
            <stop offset="0.8009" stop-color="#44ED98" />
            <stop offset="1" stop-color="#40F498" />
        </linearGradient>
    </defs>
</svg>
    