<svg width="34" height="34" viewBox="0 0 34 34" fill="none" xmlns="http://www.w3.org/2000/svg">
    <path
        d="M25.5 11.3332V10.1998C25.5 8.61303 25.5 7.81961 25.1912 7.21353C24.9196 6.6804 24.4861 6.24695 23.953 5.97532C23.347 5.6665 22.5535 5.6665 20.9667 5.6665H8.78333C7.19651 5.6665 6.40311 5.6665 5.79703 5.97532C5.26389 6.24695 4.83045 6.6804 4.55882 7.21353C4.25 7.81961 4.25 8.61303 4.25 10.1998V11.3332M4.25 11.3332V23.7998C4.25 25.3866 4.25 26.1801 4.55882 26.7862C4.83045 27.3193 5.26389 27.7528 5.79703 28.0243C6.40311 28.3332 7.19651 28.3332 8.78333 28.3332H25.2167C26.8035 28.3332 27.597 28.3332 28.203 28.0243C28.7361 27.7528 29.1696 27.3193 29.4412 26.7862C29.75 26.1801 29.75 25.3866 29.75 23.7998V15.8665C29.75 14.2797 29.75 13.4863 29.4412 12.8802C29.1696 12.3471 28.7361 11.9136 28.203 11.642C27.597 11.3332 26.8035 11.3332 25.2167 11.3332H4.25ZM29.75 16.9998H26.9167C25.3518 16.9998 24.0833 18.2683 24.0833 19.8332C24.0833 21.398 25.3518 22.6665 26.9167 22.6665H29.75"
        stroke="#2D3037" stroke-width="3" stroke-linecap="round" stroke-linejoin="round" />
</svg>