<svg width="424" height="216" viewBox="0 0 424 216" fill="none" xmlns="http://www.w3.org/2000/svg">
    <rect x="342" y="9" width="24" height="24" fill="#088EF6" />
    <rect x="342" y="49" width="24" height="24" fill="#FF714B" />
    <rect x="342" y="89" width="24" height="24" fill="#4AAAC3" />
    <rect x="342" y="129" width="24" height="24" fill="#FFCD4B" />
    <rect x="342" y="169" width="24" height="24" fill="#956FF9" />
    <path
        d="M386.201 23.481C386.565 23.481 386.889 23.4203 387.174 23.299C387.463 23.1777 387.706 23.0073 387.902 22.788C388.098 22.5687 388.247 22.3027 388.35 21.99C388.457 21.6773 388.511 21.3273 388.511 20.94V14.878H390.394V20.94C390.394 21.542 390.296 22.0997 390.1 22.613C389.909 23.1217 389.631 23.5627 389.267 23.936C388.908 24.3047 388.469 24.594 387.951 24.804C387.433 25.0093 386.85 25.112 386.201 25.112C385.548 25.112 384.962 25.0093 384.444 24.804C383.926 24.594 383.485 24.3047 383.121 23.936C382.762 23.5627 382.484 23.1217 382.288 22.613C382.097 22.0997 382.001 21.542 382.001 20.94V14.878H383.884V20.933C383.884 21.3203 383.935 21.6703 384.038 21.983C384.145 22.2957 384.297 22.564 384.493 22.788C384.694 23.0073 384.936 23.1777 385.221 23.299C385.51 23.4203 385.837 23.481 386.201 23.481ZM397.908 16.719C397.852 16.817 397.791 16.8893 397.726 16.936C397.665 16.978 397.588 16.999 397.495 16.999C397.397 16.999 397.289 16.964 397.173 16.894C397.061 16.8193 396.925 16.7377 396.767 16.649C396.608 16.5603 396.421 16.481 396.207 16.411C395.997 16.3363 395.747 16.299 395.458 16.299C395.196 16.299 394.968 16.3317 394.772 16.397C394.576 16.4577 394.41 16.544 394.275 16.656C394.144 16.768 394.046 16.9033 393.981 17.062C393.915 17.216 393.883 17.3863 393.883 17.573C393.883 17.811 393.948 18.0093 394.079 18.168C394.214 18.3267 394.391 18.462 394.611 18.574C394.83 18.686 395.08 18.7863 395.36 18.875C395.64 18.9637 395.927 19.0593 396.221 19.162C396.515 19.26 396.802 19.3767 397.082 19.512C397.362 19.6427 397.611 19.8107 397.831 20.016C398.05 20.2167 398.225 20.464 398.356 20.758C398.491 21.052 398.559 21.409 398.559 21.829C398.559 22.2863 398.479 22.7157 398.321 23.117C398.167 23.5137 397.938 23.8613 397.635 24.16C397.336 24.454 396.97 24.6873 396.536 24.86C396.102 25.028 395.605 25.112 395.045 25.112C394.723 25.112 394.405 25.0793 394.093 25.014C393.78 24.9533 393.479 24.8647 393.19 24.748C392.905 24.6313 392.637 24.4913 392.385 24.328C392.133 24.1647 391.909 23.9827 391.713 23.782L392.266 22.879C392.312 22.8137 392.373 22.76 392.448 22.718C392.522 22.6713 392.602 22.648 392.686 22.648C392.802 22.648 392.928 22.697 393.064 22.795C393.199 22.8883 393.36 22.9933 393.547 23.11C393.733 23.2267 393.95 23.334 394.198 23.432C394.45 23.5253 394.751 23.572 395.101 23.572C395.637 23.572 396.053 23.446 396.347 23.194C396.641 22.9373 396.788 22.571 396.788 22.095C396.788 21.829 396.72 21.612 396.585 21.444C396.454 21.276 396.279 21.136 396.06 21.024C395.84 20.9073 395.591 20.8093 395.311 20.73C395.031 20.6507 394.746 20.5643 394.457 20.471C394.167 20.3777 393.883 20.2657 393.603 20.135C393.323 20.0043 393.073 19.834 392.854 19.624C392.634 19.414 392.457 19.1527 392.322 18.84C392.191 18.5227 392.126 18.133 392.126 17.671C392.126 17.3023 392.198 16.943 392.343 16.593C392.492 16.243 392.707 15.9327 392.987 15.662C393.267 15.3913 393.612 15.1743 394.023 15.011C394.433 14.8477 394.905 14.766 395.437 14.766C396.034 14.766 396.585 14.8593 397.089 15.046C397.593 15.2327 398.022 15.494 398.377 15.83L397.908 16.719ZM409.189 19.939C409.189 20.681 409.066 21.3623 408.818 21.983C408.571 22.6037 408.223 23.138 407.775 23.586C407.327 24.034 406.788 24.3817 406.158 24.629C405.528 24.8763 404.828 25 404.058 25H400.201V14.878H404.058C404.828 14.878 405.528 15.004 406.158 15.256C406.788 15.5033 407.327 15.851 407.775 16.299C408.223 16.7423 408.571 17.2743 408.818 17.895C409.066 18.5157 409.189 19.197 409.189 19.939ZM407.257 19.939C407.257 19.3837 407.183 18.8867 407.033 18.448C406.889 18.0047 406.676 17.6313 406.396 17.328C406.121 17.02 405.785 16.7843 405.388 16.621C404.996 16.4577 404.553 16.376 404.058 16.376H402.091V23.502H404.058C404.553 23.502 404.996 23.4203 405.388 23.257C405.785 23.0937 406.121 22.8603 406.396 22.557C406.676 22.249 406.889 21.8757 407.033 21.437C407.183 20.9937 407.257 20.4943 407.257 19.939Z"
        fill="#010218" />
    <path
        d="M390.471 60.925V65.02C389.958 65.398 389.409 65.6757 388.826 65.853C388.247 66.0257 387.627 66.112 386.964 66.112C386.138 66.112 385.389 65.9837 384.717 65.727C384.05 65.4703 383.478 65.1133 383.002 64.656C382.531 64.1987 382.167 63.6527 381.91 63.018C381.653 62.3833 381.525 61.6903 381.525 60.939C381.525 60.1783 381.649 59.4807 381.896 58.846C382.143 58.2113 382.493 57.6653 382.946 57.208C383.403 56.7507 383.956 56.396 384.605 56.144C385.254 55.892 385.982 55.766 386.789 55.766C387.2 55.766 387.582 55.7987 387.937 55.864C388.296 55.9293 388.628 56.0203 388.931 56.137C389.239 56.249 389.519 56.3867 389.771 56.55C390.023 56.7133 390.254 56.893 390.464 57.089L389.925 57.943C389.841 58.0783 389.731 58.1623 389.596 58.195C389.461 58.223 389.314 58.188 389.155 58.09C389.001 58.0013 388.847 57.9127 388.693 57.824C388.539 57.7353 388.366 57.6583 388.175 57.593C387.988 57.5277 387.776 57.474 387.538 57.432C387.305 57.39 387.034 57.369 386.726 57.369C386.227 57.369 385.774 57.453 385.368 57.621C384.967 57.789 384.624 58.0293 384.339 58.342C384.054 58.6547 383.835 59.0303 383.681 59.469C383.527 59.9077 383.45 60.3977 383.45 60.939C383.45 61.5177 383.532 62.0357 383.695 62.493C383.863 62.9457 384.096 63.3307 384.395 63.648C384.698 63.9607 385.062 64.201 385.487 64.369C385.912 64.5323 386.385 64.614 386.908 64.614C387.281 64.614 387.615 64.5743 387.909 64.495C388.203 64.4157 388.49 64.3083 388.77 64.173V62.339H387.496C387.375 62.339 387.279 62.3063 387.209 62.241C387.144 62.171 387.111 62.087 387.111 61.989V60.925H390.471ZM396.072 64.53C396.422 64.53 396.716 64.488 396.954 64.404C397.192 64.32 397.381 64.208 397.521 64.068C397.666 63.928 397.769 63.7647 397.829 63.578C397.895 63.3913 397.927 63.193 397.927 62.983C397.927 62.7637 397.892 62.5677 397.822 62.395C397.752 62.2177 397.643 62.0683 397.493 61.947C397.344 61.821 397.15 61.7253 396.912 61.66C396.679 61.5947 396.397 61.562 396.065 61.562H394.168V64.53H396.072ZM394.168 57.334V60.26H395.666C396.31 60.26 396.796 60.1433 397.122 59.91C397.454 59.6767 397.619 59.3057 397.619 58.797C397.619 58.2697 397.47 57.894 397.171 57.67C396.873 57.446 396.406 57.334 395.771 57.334H394.168ZM395.771 55.878C396.434 55.878 397.001 55.941 397.472 56.067C397.944 56.193 398.329 56.3727 398.627 56.606C398.931 56.8393 399.152 57.1217 399.292 57.453C399.432 57.7843 399.502 58.1577 399.502 58.573C399.502 58.811 399.467 59.0397 399.397 59.259C399.327 59.4737 399.218 59.6767 399.068 59.868C398.924 60.0547 398.737 60.225 398.508 60.379C398.284 60.533 398.016 60.6637 397.703 60.771C399.094 61.0837 399.789 61.835 399.789 63.025C399.789 63.4543 399.708 63.851 399.544 64.215C399.381 64.579 399.143 64.894 398.83 65.16C398.518 65.4213 398.133 65.6267 397.675 65.776C397.218 65.9253 396.695 66 396.107 66H392.285V55.878H395.771ZM404.79 60.967C405.135 60.967 405.436 60.925 405.693 60.841C405.95 60.7523 406.162 60.6287 406.33 60.47C406.503 60.3067 406.631 60.1107 406.715 59.882C406.799 59.6487 406.841 59.3897 406.841 59.105C406.841 58.8343 406.799 58.5893 406.715 58.37C406.631 58.1507 406.505 57.964 406.337 57.81C406.169 57.656 405.957 57.5393 405.7 57.46C405.443 57.376 405.14 57.334 404.79 57.334H403.383V60.967H404.79ZM404.79 55.878C405.467 55.878 406.052 55.9573 406.547 56.116C407.042 56.2747 407.45 56.4963 407.772 56.781C408.094 57.0657 408.332 57.4063 408.486 57.803C408.645 58.1997 408.724 58.6337 408.724 59.105C408.724 59.595 408.642 60.0453 408.479 60.456C408.316 60.862 408.071 61.212 407.744 61.506C407.417 61.8 407.007 62.0287 406.512 62.192C406.022 62.3553 405.448 62.437 404.79 62.437H403.383V66H401.5V55.878H404.79Z"
        fill="#010218" />
    <path
        d="M385.984 102.402C385.984 102.971 385.914 103.485 385.774 103.942C385.634 104.399 385.424 104.789 385.144 105.111C384.869 105.433 384.523 105.68 384.108 105.853C383.693 106.026 383.21 106.112 382.659 106.112C382.407 106.112 382.16 106.096 381.917 106.063C381.674 106.035 381.42 105.988 381.154 105.923C381.168 105.736 381.184 105.55 381.203 105.363C381.222 105.176 381.238 104.99 381.252 104.803C381.266 104.7 381.306 104.619 381.371 104.558C381.441 104.493 381.539 104.46 381.665 104.46C381.744 104.46 381.847 104.476 381.973 104.509C382.104 104.542 382.267 104.558 382.463 104.558C382.729 104.558 382.965 104.521 383.17 104.446C383.375 104.367 383.546 104.243 383.681 104.075C383.821 103.907 383.926 103.69 383.996 103.424C384.066 103.153 384.101 102.827 384.101 102.444V95.878H385.984V102.402ZM391.433 100.967C391.778 100.967 392.079 100.925 392.336 100.841C392.592 100.752 392.805 100.629 392.973 100.47C393.145 100.307 393.274 100.111 393.358 99.882C393.442 99.6487 393.484 99.3897 393.484 99.105C393.484 98.8343 393.442 98.5893 393.358 98.37C393.274 98.1507 393.148 97.964 392.98 97.81C392.812 97.656 392.599 97.5393 392.343 97.46C392.086 97.376 391.783 97.334 391.433 97.334H390.026V100.967H391.433ZM391.433 95.878C392.109 95.878 392.695 95.9573 393.19 96.116C393.684 96.2747 394.093 96.4963 394.415 96.781C394.737 97.0657 394.975 97.4063 395.129 97.803C395.287 98.1997 395.367 98.6337 395.367 99.105C395.367 99.595 395.285 100.045 395.122 100.456C394.958 100.862 394.713 101.212 394.387 101.506C394.06 101.8 393.649 102.029 393.155 102.192C392.665 102.355 392.091 102.437 391.433 102.437H390.026V106H388.143V95.878H391.433ZM400.898 102.08V106H399.022V102.08L395.333 95.878H396.992C397.155 95.878 397.283 95.9177 397.377 95.997C397.475 96.0763 397.556 96.1767 397.622 96.298L399.47 99.679C399.577 99.8797 399.67 100.069 399.75 100.246C399.834 100.423 399.908 100.601 399.974 100.778C400.034 100.601 400.104 100.423 400.184 100.246C400.263 100.069 400.354 99.8797 400.457 99.679L402.298 96.298C402.349 96.1953 402.426 96.0997 402.529 96.011C402.631 95.9223 402.762 95.878 402.921 95.878H404.587L400.898 102.08Z"
        fill="#010218" />
    <path
        d="M127.17 211.964C127.17 212.448 127.11 212.884 126.99 213.272C126.874 213.656 126.698 213.984 126.462 214.256C126.23 214.524 125.94 214.732 125.592 214.88C125.248 215.024 124.848 215.096 124.392 215.096C124.184 215.096 123.978 215.082 123.774 215.054C123.57 215.03 123.358 214.99 123.138 214.934L123.21 214.094C123.222 214.014 123.252 213.95 123.3 213.902C123.352 213.854 123.426 213.83 123.522 213.83C123.594 213.83 123.686 213.846 123.798 213.878C123.914 213.906 124.064 213.92 124.248 213.92C124.492 213.92 124.708 213.884 124.896 213.812C125.088 213.74 125.248 213.628 125.376 213.476C125.508 213.32 125.606 213.122 125.67 212.882C125.738 212.638 125.772 212.344 125.772 212V206.36H127.17V211.964ZM131.823 210.764C132.135 210.764 132.409 210.724 132.645 210.644C132.885 210.564 133.083 210.452 133.239 210.308C133.399 210.16 133.519 209.982 133.599 209.774C133.679 209.566 133.719 209.334 133.719 209.078C133.719 208.826 133.679 208.6 133.599 208.4C133.523 208.2 133.407 208.03 133.251 207.89C133.095 207.75 132.897 207.644 132.657 207.572C132.421 207.496 132.143 207.458 131.823 207.458H130.539V210.764H131.823ZM131.823 206.36C132.387 206.36 132.875 206.426 133.287 206.558C133.703 206.69 134.045 206.876 134.313 207.116C134.585 207.352 134.787 207.638 134.919 207.974C135.051 208.306 135.117 208.674 135.117 209.078C135.117 209.49 135.047 209.868 134.907 210.212C134.767 210.552 134.559 210.846 134.283 211.094C134.007 211.338 133.663 211.53 133.251 211.67C132.843 211.806 132.367 211.874 131.823 211.874H130.539V215H129.135V206.36H131.823ZM139.752 211.616V215H138.354V211.616L135.198 206.36H136.428C136.552 206.36 136.65 206.39 136.722 206.45C136.794 206.51 136.854 206.586 136.902 206.678L138.672 209.774C138.752 209.93 138.824 210.078 138.888 210.218C138.956 210.358 139.016 210.496 139.068 210.632C139.112 210.492 139.166 210.354 139.23 210.218C139.294 210.078 139.366 209.93 139.446 209.774L141.204 206.678C141.244 206.598 141.302 206.526 141.378 206.462C141.454 206.394 141.552 206.36 141.672 206.36H142.908L139.752 211.616Z"
        fill="#010218" />
    <path
        d="M99.42 203.866L99.414 205H94.026V196.36H99.414V197.494H95.436V200.098H98.616V201.196H95.436V203.866H99.42ZM104.348 203.866C104.68 203.866 104.976 203.81 105.236 203.698C105.5 203.586 105.722 203.43 105.902 203.23C106.086 203.03 106.226 202.79 106.322 202.51C106.418 202.226 106.466 201.912 106.466 201.568V196.36H107.864V201.568C107.864 202.076 107.782 202.546 107.618 202.978C107.458 203.41 107.226 203.784 106.922 204.1C106.618 204.412 106.248 204.658 105.812 204.838C105.38 205.014 104.892 205.102 104.348 205.102C103.804 205.102 103.314 205.014 102.878 204.838C102.446 204.658 102.078 204.412 101.774 204.1C101.47 203.784 101.236 203.41 101.072 202.978C100.912 202.546 100.832 202.076 100.832 201.568V196.36H102.236V201.562C102.236 201.906 102.284 202.22 102.38 202.504C102.476 202.784 102.614 203.026 102.794 203.23C102.974 203.43 103.194 203.586 103.454 203.698C103.718 203.81 104.016 203.866 104.348 203.866ZM112.319 200.5C112.639 200.5 112.919 200.462 113.159 200.386C113.399 200.306 113.599 200.196 113.759 200.056C113.919 199.916 114.039 199.75 114.119 199.558C114.199 199.362 114.239 199.146 114.239 198.91C114.239 198.438 114.083 198.078 113.771 197.83C113.459 197.582 112.987 197.458 112.355 197.458H111.215V200.5H112.319ZM116.387 205H115.133C114.885 205 114.705 204.904 114.593 204.712L112.577 201.802C112.509 201.702 112.435 201.63 112.355 201.586C112.275 201.542 112.155 201.52 111.995 201.52H111.215V205H109.811V196.36H112.355C112.923 196.36 113.411 196.418 113.819 196.534C114.231 196.65 114.569 196.816 114.833 197.032C115.097 197.244 115.291 197.5 115.415 197.8C115.543 198.1 115.607 198.434 115.607 198.802C115.607 199.102 115.561 199.382 115.469 199.642C115.381 199.902 115.251 200.138 115.079 200.35C114.911 200.562 114.703 200.746 114.455 200.902C114.207 201.058 113.925 201.18 113.609 201.268C113.781 201.372 113.929 201.518 114.053 201.706L116.387 205Z"
        fill="#010218" />
    <path
        d="M384.017 137.376V140.183H387.559V141.632H384.017V144.495H388.511V146H382.127V135.878H388.511V137.376H384.017ZM394.254 144.481C394.618 144.481 394.942 144.42 395.227 144.299C395.516 144.178 395.759 144.007 395.955 143.788C396.151 143.569 396.3 143.303 396.403 142.99C396.51 142.677 396.564 142.327 396.564 141.94V135.878H398.447V141.94C398.447 142.542 398.349 143.1 398.153 143.613C397.961 144.122 397.684 144.563 397.32 144.936C396.96 145.305 396.522 145.594 396.004 145.804C395.486 146.009 394.902 146.112 394.254 146.112C393.6 146.112 393.015 146.009 392.497 145.804C391.979 145.594 391.538 145.305 391.174 144.936C390.814 144.563 390.537 144.122 390.341 143.613C390.149 143.1 390.054 142.542 390.054 141.94V135.878H391.937V141.933C391.937 142.32 391.988 142.67 392.091 142.983C392.198 143.296 392.35 143.564 392.546 143.788C392.746 144.007 392.989 144.178 393.274 144.299C393.563 144.42 393.89 144.481 394.254 144.481ZM403.629 140.694C403.984 140.694 404.292 140.65 404.553 140.561C404.819 140.472 405.036 140.351 405.204 140.197C405.377 140.038 405.505 139.852 405.589 139.637C405.673 139.422 405.715 139.187 405.715 138.93C405.715 138.417 405.545 138.022 405.204 137.747C404.868 137.472 404.353 137.334 403.657 137.334H402.453V140.694H403.629ZM408.473 146H406.772C406.45 146 406.217 145.874 406.072 145.622L403.944 142.381C403.865 142.26 403.776 142.173 403.678 142.122C403.585 142.071 403.445 142.045 403.258 142.045H402.453V146H400.57V135.878H403.657C404.343 135.878 404.931 135.95 405.421 136.095C405.916 136.235 406.32 136.433 406.632 136.69C406.95 136.947 407.183 137.255 407.332 137.614C407.482 137.969 407.556 138.361 407.556 138.79C407.556 139.131 407.505 139.453 407.402 139.756C407.304 140.059 407.16 140.335 406.968 140.582C406.782 140.829 406.548 141.046 406.268 141.233C405.993 141.42 405.678 141.567 405.323 141.674C405.445 141.744 405.557 141.828 405.659 141.926C405.762 142.019 405.855 142.131 405.939 142.262L408.473 146Z"
        fill="#010218" />
    <path
        d="M391.78 180.939C391.78 181.681 391.656 182.369 391.409 183.004C391.166 183.634 390.821 184.18 390.373 184.642C389.925 185.104 389.386 185.466 388.756 185.727C388.126 185.984 387.426 186.112 386.656 186.112C385.891 186.112 385.193 185.984 384.563 185.727C383.933 185.466 383.392 185.104 382.939 184.642C382.491 184.18 382.143 183.634 381.896 183.004C381.649 182.369 381.525 181.681 381.525 180.939C381.525 180.197 381.649 179.511 381.896 178.881C382.143 178.246 382.491 177.698 382.939 177.236C383.392 176.774 383.933 176.415 384.563 176.158C385.193 175.897 385.891 175.766 386.656 175.766C387.169 175.766 387.652 175.827 388.105 175.948C388.558 176.065 388.973 176.233 389.351 176.452C389.729 176.667 390.067 176.93 390.366 177.243C390.669 177.551 390.926 177.896 391.136 178.279C391.346 178.662 391.505 179.077 391.612 179.525C391.724 179.973 391.78 180.444 391.78 180.939ZM389.855 180.939C389.855 180.384 389.78 179.887 389.631 179.448C389.482 179.005 389.269 178.629 388.994 178.321C388.719 178.013 388.383 177.777 387.986 177.614C387.594 177.451 387.151 177.369 386.656 177.369C386.161 177.369 385.716 177.451 385.319 177.614C384.927 177.777 384.591 178.013 384.311 178.321C384.036 178.629 383.823 179.005 383.674 179.448C383.525 179.887 383.45 180.384 383.45 180.939C383.45 181.494 383.525 181.994 383.674 182.437C383.823 182.876 384.036 183.249 384.311 183.557C384.591 183.86 384.927 184.094 385.319 184.257C385.716 184.42 386.161 184.502 386.656 184.502C387.151 184.502 387.594 184.42 387.986 184.257C388.383 184.094 388.719 183.86 388.994 183.557C389.269 183.249 389.482 182.876 389.631 182.437C389.78 181.994 389.855 181.494 389.855 180.939ZM395.541 186.112C394.916 186.112 394.435 185.937 394.099 185.587C393.768 185.232 393.602 184.745 393.602 184.124V180.113H392.867C392.774 180.113 392.694 180.083 392.629 180.022C392.564 179.961 392.531 179.87 392.531 179.749V179.063L393.686 178.874L394.05 176.914C394.073 176.821 394.118 176.748 394.183 176.697C394.248 176.646 394.332 176.62 394.435 176.62H395.331V178.881H397.249V180.113H395.331V184.005C395.331 184.229 395.385 184.404 395.492 184.53C395.604 184.656 395.756 184.719 395.947 184.719C396.054 184.719 396.143 184.707 396.213 184.684C396.288 184.656 396.351 184.628 396.402 184.6C396.458 184.572 396.507 184.546 396.549 184.523C396.591 184.495 396.633 184.481 396.675 184.481C396.726 184.481 396.768 184.495 396.801 184.523C396.834 184.546 396.869 184.584 396.906 184.635L397.424 185.475C397.172 185.685 396.883 185.844 396.556 185.951C396.229 186.058 395.891 186.112 395.541 186.112ZM400.085 179.588C400.365 179.327 400.673 179.114 401.009 178.951C401.345 178.788 401.739 178.706 402.192 178.706C402.584 178.706 402.932 178.774 403.235 178.909C403.538 179.04 403.79 179.226 403.991 179.469C404.196 179.707 404.35 179.994 404.453 180.33C404.56 180.661 404.614 181.028 404.614 181.429V186H402.885V181.429C402.885 180.99 402.785 180.652 402.584 180.414C402.383 180.171 402.078 180.05 401.667 180.05C401.368 180.05 401.088 180.118 400.827 180.253C400.566 180.388 400.318 180.573 400.085 180.806V186H398.356V175.598H400.085V179.588ZM410.885 181.583C410.885 181.359 410.853 181.149 410.787 180.953C410.727 180.752 410.633 180.577 410.507 180.428C410.381 180.279 410.22 180.162 410.024 180.078C409.833 179.989 409.609 179.945 409.352 179.945C408.853 179.945 408.459 180.087 408.169 180.372C407.885 180.657 407.703 181.06 407.623 181.583H410.885ZM407.588 182.626C407.616 182.995 407.682 183.314 407.784 183.585C407.887 183.851 408.022 184.073 408.19 184.25C408.358 184.423 408.557 184.553 408.785 184.642C409.019 184.726 409.275 184.768 409.555 184.768C409.835 184.768 410.076 184.735 410.276 184.67C410.482 184.605 410.659 184.532 410.808 184.453C410.962 184.374 411.095 184.301 411.207 184.236C411.324 184.171 411.436 184.138 411.543 184.138C411.688 184.138 411.795 184.192 411.865 184.299L412.362 184.929C412.171 185.153 411.956 185.342 411.718 185.496C411.48 185.645 411.231 185.767 410.969 185.86C410.713 185.949 410.449 186.012 410.178 186.049C409.912 186.086 409.653 186.105 409.401 186.105C408.902 186.105 408.438 186.023 408.008 185.86C407.579 185.692 407.206 185.447 406.888 185.125C406.571 184.798 406.321 184.397 406.139 183.921C405.957 183.44 405.866 182.885 405.866 182.255C405.866 181.765 405.946 181.305 406.104 180.876C406.263 180.442 406.489 180.066 406.783 179.749C407.082 179.427 407.444 179.173 407.868 178.986C408.298 178.799 408.781 178.706 409.317 178.706C409.77 178.706 410.188 178.778 410.57 178.923C410.953 179.068 411.282 179.28 411.557 179.56C411.833 179.835 412.047 180.176 412.201 180.582C412.36 180.983 412.439 181.443 412.439 181.961C412.439 182.222 412.411 182.4 412.355 182.493C412.299 182.582 412.192 182.626 412.033 182.626H407.588ZM415.368 180.064C415.592 179.635 415.858 179.299 416.166 179.056C416.474 178.809 416.838 178.685 417.258 178.685C417.589 178.685 417.855 178.757 418.056 178.902L417.944 180.197C417.92 180.281 417.885 180.342 417.839 180.379C417.797 180.412 417.738 180.428 417.664 180.428C417.594 180.428 417.489 180.416 417.349 180.393C417.213 180.37 417.08 180.358 416.95 180.358C416.758 180.358 416.588 180.386 416.439 180.442C416.289 180.498 416.154 180.58 416.033 180.687C415.916 180.79 415.811 180.916 415.718 181.065C415.629 181.214 415.545 181.385 415.466 181.576V186H413.737V178.818H414.752C414.929 178.818 415.053 178.851 415.123 178.916C415.193 178.977 415.239 179.089 415.263 179.252L415.368 180.064ZM423.314 180.218C423.267 180.293 423.218 180.346 423.167 180.379C423.116 180.407 423.05 180.421 422.971 180.421C422.887 180.421 422.796 180.398 422.698 180.351C422.605 180.304 422.495 180.253 422.369 180.197C422.243 180.136 422.098 180.083 421.935 180.036C421.776 179.989 421.587 179.966 421.368 179.966C421.027 179.966 420.759 180.038 420.563 180.183C420.372 180.328 420.276 180.517 420.276 180.75C420.276 180.904 420.325 181.035 420.423 181.142C420.526 181.245 420.659 181.336 420.822 181.415C420.99 181.494 421.179 181.567 421.389 181.632C421.599 181.693 421.811 181.76 422.026 181.835C422.245 181.91 422.46 181.996 422.67 182.094C422.88 182.187 423.067 182.309 423.23 182.458C423.398 182.603 423.531 182.778 423.629 182.983C423.732 183.188 423.783 183.436 423.783 183.725C423.783 184.07 423.72 184.39 423.594 184.684C423.473 184.973 423.291 185.225 423.048 185.44C422.805 185.65 422.504 185.816 422.145 185.937C421.79 186.054 421.38 186.112 420.913 186.112C420.666 186.112 420.423 186.089 420.185 186.042C419.952 186 419.725 185.939 419.506 185.86C419.291 185.781 419.091 185.687 418.904 185.58C418.722 185.473 418.561 185.356 418.421 185.23L418.82 184.572C418.871 184.493 418.932 184.432 419.002 184.39C419.072 184.348 419.161 184.327 419.268 184.327C419.375 184.327 419.476 184.357 419.569 184.418C419.667 184.479 419.779 184.544 419.905 184.614C420.031 184.684 420.178 184.749 420.346 184.81C420.519 184.871 420.736 184.901 420.997 184.901C421.202 184.901 421.377 184.878 421.522 184.831C421.671 184.78 421.793 184.714 421.886 184.635C421.984 184.556 422.054 184.465 422.096 184.362C422.143 184.255 422.166 184.145 422.166 184.033C422.166 183.865 422.115 183.727 422.012 183.62C421.914 183.513 421.781 183.419 421.613 183.34C421.45 183.261 421.261 183.191 421.046 183.13C420.836 183.065 420.619 182.995 420.395 182.92C420.176 182.845 419.959 182.759 419.744 182.661C419.534 182.558 419.345 182.43 419.177 182.276C419.014 182.122 418.881 181.933 418.778 181.709C418.68 181.485 418.631 181.214 418.631 180.897C418.631 180.603 418.689 180.323 418.806 180.057C418.923 179.791 419.093 179.56 419.317 179.364C419.546 179.163 419.828 179.005 420.164 178.888C420.505 178.767 420.897 178.706 421.34 178.706C421.835 178.706 422.285 178.788 422.691 178.951C423.097 179.114 423.435 179.329 423.706 179.595L423.314 180.218Z"
        fill="#010218" />
    <path
        d="M9.144 133.68C9.144 134.32 9.04 134.91 8.832 135.45C8.624 135.99 8.33 136.456 7.95 136.848C7.574 137.236 7.12 137.54 6.588 137.76C6.06 137.98 5.472 138.09 4.824 138.09C4.18 138.09 3.592 137.98 3.06 137.76C2.532 137.54 2.078 137.236 1.698 136.848C1.318 136.456 1.024 135.99 0.816 135.45C0.608 134.91 0.504 134.32 0.504 133.68C0.504 133.04 0.608 132.45 0.816 131.91C1.024 131.37 1.318 130.904 1.698 130.512C2.078 130.12 2.532 129.814 3.06 129.594C3.592 129.374 4.18 129.264 4.824 129.264C5.472 129.264 6.06 129.374 6.588 129.594C7.12 129.814 7.574 130.12 7.95 130.512C8.33 130.904 8.624 131.37 8.832 131.91C9.04 132.45 9.144 133.04 9.144 133.68ZM7.71 133.68C7.71 133.184 7.642 132.738 7.506 132.342C7.374 131.946 7.182 131.61 6.93 131.334C6.682 131.058 6.38 130.846 6.024 130.698C5.668 130.55 5.268 130.476 4.824 130.476C4.384 130.476 3.986 130.55 3.63 130.698C3.274 130.846 2.97 131.058 2.718 131.334C2.466 131.61 2.272 131.946 2.136 132.342C2 132.738 1.932 133.184 1.932 133.68C1.932 134.18 2 134.628 2.136 135.024C2.272 135.42 2.466 135.756 2.718 136.032C2.97 136.304 3.274 136.514 3.63 136.662C3.986 136.806 4.384 136.878 4.824 136.878C5.268 136.878 5.668 136.806 6.024 136.662C6.38 136.514 6.682 136.304 6.93 136.032C7.182 135.756 7.374 135.42 7.506 135.024C7.642 134.628 7.71 134.18 7.71 133.68ZM12.3808 138.096C11.8728 138.096 11.4808 137.954 11.2048 137.67C10.9328 137.382 10.7968 136.978 10.7968 136.458V132.894H10.1248C10.0528 132.894 9.99081 132.872 9.93881 132.828C9.88681 132.78 9.86081 132.71 9.86081 132.618V132.096L10.8508 131.952L11.1328 130.182C11.1528 130.114 11.1868 130.06 11.2348 130.02C11.2828 129.976 11.3468 129.954 11.4268 129.954H12.0868V131.964H13.7848V132.894H12.0868V136.368C12.0868 136.588 12.1408 136.756 12.2488 136.872C12.3568 136.988 12.5008 137.046 12.6808 137.046C12.7808 137.046 12.8668 137.034 12.9388 137.01C13.0108 136.982 13.0728 136.954 13.1248 136.926C13.1768 136.894 13.2208 136.866 13.2568 136.842C13.2968 136.814 13.3348 136.8 13.3708 136.8C13.4428 136.8 13.5008 136.84 13.5448 136.92L13.9288 137.55C13.7288 137.726 13.4928 137.862 13.2208 137.958C12.9488 138.05 12.6688 138.096 12.3808 138.096ZM16.0916 132.606C16.3436 132.358 16.6196 132.16 16.9196 132.012C17.2196 131.86 17.5696 131.784 17.9696 131.784C18.3056 131.784 18.5996 131.84 18.8516 131.952C19.1076 132.064 19.3216 132.222 19.4936 132.426C19.6696 132.63 19.8016 132.876 19.8896 133.164C19.9776 133.448 20.0216 133.762 20.0216 134.106V138H18.7376V134.106C18.7376 133.694 18.6416 133.374 18.4496 133.146C18.2616 132.918 17.9736 132.804 17.5856 132.804C17.2976 132.804 17.0296 132.87 16.7816 133.002C16.5376 133.134 16.3076 133.314 16.0916 133.542V138H14.8016V129.12H16.0916V132.606ZM25.5422 134.25C25.5422 134.034 25.5102 133.834 25.4462 133.65C25.3862 133.462 25.2962 133.3 25.1762 133.164C25.0562 133.024 24.9062 132.916 24.7262 132.84C24.5502 132.76 24.3462 132.72 24.1142 132.72C23.6462 132.72 23.2782 132.854 23.0102 133.122C22.7422 133.39 22.5722 133.766 22.5002 134.25H25.5422ZM22.4642 135.042C22.4802 135.39 22.5342 135.692 22.6262 135.948C22.7182 136.2 22.8402 136.41 22.9922 136.578C23.1482 136.746 23.3322 136.872 23.5442 136.956C23.7602 137.036 24.0002 137.076 24.2642 137.076C24.5162 137.076 24.7342 137.048 24.9182 136.992C25.1022 136.932 25.2622 136.868 25.3982 136.8C25.5342 136.728 25.6502 136.664 25.7462 136.608C25.8422 136.548 25.9302 136.518 26.0102 136.518C26.1142 136.518 26.1942 136.558 26.2502 136.638L26.6162 137.112C26.4642 137.292 26.2922 137.444 26.1002 137.568C25.9082 137.692 25.7042 137.794 25.4882 137.874C25.2722 137.95 25.0502 138.004 24.8222 138.036C24.5942 138.072 24.3722 138.09 24.1562 138.09C23.7322 138.09 23.3382 138.02 22.9742 137.88C22.6142 137.736 22.3002 137.526 22.0322 137.25C21.7682 136.974 21.5602 136.632 21.4082 136.224C21.2602 135.816 21.1862 135.346 21.1862 134.814C21.1862 134.39 21.2522 133.994 21.3842 133.626C21.5202 133.258 21.7122 132.938 21.9602 132.666C22.2122 132.394 22.5162 132.18 22.8722 132.024C23.2322 131.864 23.6382 131.784 24.0902 131.784C24.4662 131.784 24.8142 131.846 25.1342 131.97C25.4542 132.09 25.7302 132.268 25.9622 132.504C26.1942 132.74 26.3742 133.03 26.5022 133.374C26.6342 133.714 26.7002 134.102 26.7002 134.538C26.7002 134.738 26.6782 134.872 26.6342 134.94C26.5902 135.008 26.5102 135.042 26.3942 135.042H22.4642ZM29.1212 133.014C29.3132 132.626 29.5452 132.322 29.8172 132.102C30.0892 131.878 30.4152 131.766 30.7952 131.766C30.9272 131.766 31.0512 131.782 31.1672 131.814C31.2832 131.842 31.3872 131.886 31.4792 131.946L31.3892 132.918C31.3732 132.986 31.3472 133.034 31.3112 133.062C31.2792 133.086 31.2352 133.098 31.1792 133.098C31.1192 133.098 31.0332 133.088 30.9212 133.068C30.8092 133.044 30.6912 133.032 30.5672 133.032C30.3872 133.032 30.2272 133.058 30.0872 133.11C29.9512 133.162 29.8272 133.238 29.7152 133.338C29.6072 133.438 29.5112 133.56 29.4272 133.704C29.3432 133.848 29.2652 134.012 29.1932 134.196V138H27.9032V131.88H28.6532C28.7892 131.88 28.8832 131.906 28.9352 131.958C28.9872 132.006 29.0232 132.092 29.0432 132.216L29.1212 133.014ZM35.9517 132.99C35.9197 133.046 35.8837 133.086 35.8437 133.11C35.8037 133.134 35.7537 133.146 35.6937 133.146C35.6257 133.146 35.5517 133.126 35.4717 133.086C35.3917 133.042 35.2977 132.994 35.1897 132.942C35.0817 132.89 34.9537 132.844 34.8057 132.804C34.6617 132.76 34.4917 132.738 34.2957 132.738C34.1357 132.738 33.9897 132.758 33.8577 132.798C33.7297 132.834 33.6197 132.888 33.5277 132.96C33.4397 133.028 33.3717 133.11 33.3237 133.206C33.2757 133.298 33.2517 133.398 33.2517 133.506C33.2517 133.65 33.2957 133.77 33.3837 133.866C33.4717 133.962 33.5877 134.046 33.7317 134.118C33.8757 134.186 34.0397 134.248 34.2237 134.304C34.4077 134.36 34.5957 134.42 34.7877 134.484C34.9797 134.548 35.1677 134.622 35.3517 134.706C35.5357 134.79 35.6997 134.894 35.8437 135.018C35.9877 135.138 36.1037 135.286 36.1917 135.462C36.2797 135.634 36.3237 135.844 36.3237 136.092C36.3237 136.38 36.2717 136.646 36.1677 136.89C36.0637 137.134 35.9117 137.346 35.7117 137.526C35.5117 137.706 35.2617 137.846 34.9617 137.946C34.6657 138.046 34.3257 138.096 33.9417 138.096C33.7297 138.096 33.5237 138.076 33.3237 138.036C33.1277 138 32.9397 137.95 32.7597 137.886C32.5837 137.818 32.4177 137.738 32.2617 137.646C32.1097 137.554 31.9737 137.454 31.8537 137.346L32.1537 136.854C32.1897 136.794 32.2337 136.748 32.2857 136.716C32.3417 136.68 32.4097 136.662 32.4897 136.662C32.5737 136.662 32.6557 136.69 32.7357 136.746C32.8197 136.798 32.9157 136.856 33.0237 136.92C33.1357 136.984 33.2697 137.044 33.4257 137.1C33.5817 137.152 33.7757 137.178 34.0077 137.178C34.1997 137.178 34.3657 137.156 34.5057 137.112C34.6457 137.064 34.7617 137 34.8537 136.92C34.9457 136.84 35.0137 136.75 35.0577 136.65C35.1017 136.546 35.1237 136.436 35.1237 136.32C35.1237 136.164 35.0797 136.036 34.9917 135.936C34.9037 135.836 34.7857 135.75 34.6377 135.678C34.4937 135.606 34.3277 135.542 34.1397 135.486C33.9557 135.43 33.7677 135.37 33.5757 135.306C33.3837 135.242 33.1937 135.168 33.0057 135.084C32.8217 135 32.6557 134.894 32.5077 134.766C32.3637 134.634 32.2477 134.476 32.1597 134.292C32.0717 134.104 32.0277 133.876 32.0277 133.608C32.0277 133.364 32.0757 133.132 32.1717 132.912C32.2717 132.692 32.4157 132.498 32.6037 132.33C32.7957 132.162 33.0297 132.03 33.3057 131.934C33.5857 131.834 33.9077 131.784 34.2717 131.784C34.6837 131.784 35.0577 131.85 35.3937 131.982C35.7297 132.114 36.0117 132.294 36.2397 132.522L35.9517 132.99Z"
        fill="#010218" />
    <path
        d="M130.696 193.64V189.856C130.696 189.499 130.72 189.104 130.768 188.672L127.176 193.64H130.696ZM133.872 193.64V194.784C133.872 194.891 133.837 194.984 133.768 195.064C133.699 195.139 133.6 195.176 133.472 195.176H132.416V198H130.696V195.176H125.816C125.683 195.176 125.565 195.136 125.464 195.056C125.363 194.971 125.299 194.867 125.272 194.744L125.064 193.744L130.544 186.424H132.416V193.64H133.872ZM140.241 189.232C140.241 189.669 140.167 190.064 140.017 190.416C139.873 190.768 139.679 191.069 139.433 191.32C139.188 191.565 138.903 191.755 138.577 191.888C138.252 192.021 137.913 192.088 137.561 192.088C137.177 192.088 136.823 192.021 136.497 191.888C136.172 191.755 135.889 191.565 135.649 191.32C135.415 191.069 135.231 190.768 135.097 190.416C134.964 190.064 134.897 189.669 134.897 189.232C134.897 188.784 134.964 188.379 135.097 188.016C135.231 187.653 135.415 187.347 135.649 187.096C135.889 186.845 136.172 186.653 136.497 186.52C136.823 186.381 137.177 186.312 137.561 186.312C137.945 186.312 138.3 186.381 138.625 186.52C138.956 186.653 139.241 186.845 139.481 187.096C139.721 187.347 139.908 187.653 140.041 188.016C140.175 188.379 140.241 188.784 140.241 189.232ZM138.721 189.232C138.721 188.923 138.689 188.664 138.625 188.456C138.567 188.248 138.484 188.08 138.377 187.952C138.276 187.824 138.153 187.733 138.009 187.68C137.871 187.621 137.721 187.592 137.561 187.592C137.401 187.592 137.252 187.621 137.113 187.68C136.975 187.733 136.855 187.824 136.753 187.952C136.657 188.08 136.58 188.248 136.521 188.456C136.463 188.664 136.433 188.923 136.433 189.232C136.433 189.531 136.463 189.781 136.521 189.984C136.58 190.181 136.657 190.341 136.753 190.464C136.855 190.587 136.975 190.675 137.113 190.728C137.252 190.781 137.401 190.808 137.561 190.808C137.721 190.808 137.871 190.781 138.009 190.728C138.153 190.675 138.276 190.587 138.377 190.464C138.484 190.341 138.567 190.181 138.625 189.984C138.689 189.781 138.721 189.531 138.721 189.232ZM144.089 186.744C144.159 186.664 144.239 186.592 144.329 186.528C144.425 186.464 144.559 186.432 144.729 186.432H146.169L137.577 197.704C137.508 197.789 137.425 197.861 137.329 197.92C137.233 197.973 137.116 198 136.977 198H135.505L144.089 186.744ZM146.777 195.28C146.777 195.717 146.703 196.112 146.553 196.464C146.409 196.816 146.215 197.117 145.969 197.368C145.724 197.613 145.439 197.805 145.113 197.944C144.788 198.077 144.449 198.144 144.097 198.144C143.713 198.144 143.359 198.077 143.033 197.944C142.708 197.805 142.425 197.613 142.185 197.368C141.951 197.117 141.767 196.816 141.633 196.464C141.5 196.112 141.433 195.717 141.433 195.28C141.433 194.832 141.5 194.427 141.633 194.064C141.767 193.701 141.951 193.395 142.185 193.144C142.425 192.893 142.708 192.701 143.033 192.568C143.359 192.429 143.713 192.36 144.097 192.36C144.481 192.36 144.836 192.429 145.161 192.568C145.492 192.701 145.775 192.893 146.009 193.144C146.249 193.395 146.436 193.701 146.569 194.064C146.708 194.427 146.777 194.832 146.777 195.28ZM145.249 195.28C145.249 194.971 145.22 194.712 145.161 194.504C145.103 194.296 145.02 194.128 144.913 194C144.812 193.872 144.689 193.781 144.545 193.728C144.407 193.669 144.257 193.64 144.097 193.64C143.937 193.64 143.788 193.669 143.649 193.728C143.511 193.781 143.391 193.872 143.289 194C143.188 194.128 143.108 194.296 143.049 194.504C142.996 194.712 142.969 194.971 142.969 195.28C142.969 195.579 142.996 195.829 143.049 196.032C143.108 196.235 143.188 196.397 143.289 196.52C143.391 196.643 143.511 196.731 143.649 196.784C143.788 196.837 143.937 196.864 144.097 196.864C144.257 196.864 144.407 196.837 144.545 196.784C144.689 196.731 144.812 196.643 144.913 196.52C145.02 196.397 145.103 196.235 145.161 196.032C145.22 195.829 145.249 195.579 145.249 195.28Z"
        fill="#010218" />
    <path
        d="M102.848 186.16C103.061 186.16 103.229 186.221 103.352 186.344C103.48 186.461 103.544 186.619 103.544 186.816V188H95.608V187.344C95.608 187.211 95.6347 187.072 95.688 186.928C95.7467 186.779 95.8373 186.645 95.96 186.528L99.472 183.008C99.7653 182.709 100.027 182.424 100.256 182.152C100.491 181.88 100.685 181.611 100.84 181.344C100.995 181.077 101.112 180.808 101.192 180.536C101.277 180.259 101.32 179.968 101.32 179.664C101.32 179.387 101.28 179.144 101.2 178.936C101.12 178.723 101.005 178.544 100.856 178.4C100.712 178.256 100.536 178.149 100.328 178.08C100.125 178.005 99.896 177.968 99.64 177.968C99.4053 177.968 99.1867 178.003 98.984 178.072C98.7867 178.136 98.6107 178.229 98.456 178.352C98.3013 178.469 98.1707 178.608 98.064 178.768C97.9573 178.928 97.8773 179.104 97.824 179.296C97.7333 179.541 97.616 179.704 97.472 179.784C97.328 179.864 97.12 179.883 96.848 179.84L95.808 179.656C95.888 179.101 96.0427 178.616 96.272 178.2C96.5013 177.779 96.7867 177.429 97.128 177.152C97.4747 176.869 97.8693 176.659 98.312 176.52C98.76 176.376 99.24 176.304 99.752 176.304C100.285 176.304 100.773 176.384 101.216 176.544C101.659 176.699 102.037 176.92 102.352 177.208C102.667 177.496 102.912 177.843 103.088 178.248C103.264 178.653 103.352 179.104 103.352 179.6C103.352 180.027 103.288 180.421 103.16 180.784C103.037 181.147 102.869 181.493 102.656 181.824C102.448 182.155 102.203 182.475 101.92 182.784C101.637 183.093 101.341 183.408 101.032 183.728L98.424 186.392C98.6747 186.317 98.9227 186.261 99.168 186.224C99.4187 186.181 99.656 186.16 99.88 186.16H102.848ZM110.241 179.232C110.241 179.669 110.167 180.064 110.017 180.416C109.873 180.768 109.679 181.069 109.433 181.32C109.188 181.565 108.903 181.755 108.577 181.888C108.252 182.021 107.913 182.088 107.561 182.088C107.177 182.088 106.823 182.021 106.497 181.888C106.172 181.755 105.889 181.565 105.649 181.32C105.415 181.069 105.231 180.768 105.097 180.416C104.964 180.064 104.897 179.669 104.897 179.232C104.897 178.784 104.964 178.379 105.097 178.016C105.231 177.653 105.415 177.347 105.649 177.096C105.889 176.845 106.172 176.653 106.497 176.52C106.823 176.381 107.177 176.312 107.561 176.312C107.945 176.312 108.3 176.381 108.625 176.52C108.956 176.653 109.241 176.845 109.481 177.096C109.721 177.347 109.908 177.653 110.041 178.016C110.175 178.379 110.241 178.784 110.241 179.232ZM108.721 179.232C108.721 178.923 108.689 178.664 108.625 178.456C108.567 178.248 108.484 178.08 108.377 177.952C108.276 177.824 108.153 177.733 108.009 177.68C107.871 177.621 107.721 177.592 107.561 177.592C107.401 177.592 107.252 177.621 107.113 177.68C106.975 177.733 106.855 177.824 106.753 177.952C106.657 178.08 106.58 178.248 106.521 178.456C106.463 178.664 106.433 178.923 106.433 179.232C106.433 179.531 106.463 179.781 106.521 179.984C106.58 180.181 106.657 180.341 106.753 180.464C106.855 180.587 106.975 180.675 107.113 180.728C107.252 180.781 107.401 180.808 107.561 180.808C107.721 180.808 107.871 180.781 108.009 180.728C108.153 180.675 108.276 180.587 108.377 180.464C108.484 180.341 108.567 180.181 108.625 179.984C108.689 179.781 108.721 179.531 108.721 179.232ZM114.089 176.744C114.159 176.664 114.239 176.592 114.329 176.528C114.425 176.464 114.559 176.432 114.729 176.432H116.169L107.577 187.704C107.508 187.789 107.425 187.861 107.329 187.92C107.233 187.973 107.116 188 106.977 188H105.505L114.089 176.744ZM116.777 185.28C116.777 185.717 116.703 186.112 116.553 186.464C116.409 186.816 116.215 187.117 115.969 187.368C115.724 187.613 115.439 187.805 115.113 187.944C114.788 188.077 114.449 188.144 114.097 188.144C113.713 188.144 113.359 188.077 113.033 187.944C112.708 187.805 112.425 187.613 112.185 187.368C111.951 187.117 111.767 186.816 111.633 186.464C111.5 186.112 111.433 185.717 111.433 185.28C111.433 184.832 111.5 184.427 111.633 184.064C111.767 183.701 111.951 183.395 112.185 183.144C112.425 182.893 112.708 182.701 113.033 182.568C113.359 182.429 113.713 182.36 114.097 182.36C114.481 182.36 114.836 182.429 115.161 182.568C115.492 182.701 115.775 182.893 116.009 183.144C116.249 183.395 116.436 183.701 116.569 184.064C116.708 184.427 116.777 184.832 116.777 185.28ZM115.249 185.28C115.249 184.971 115.22 184.712 115.161 184.504C115.103 184.296 115.02 184.128 114.913 184C114.812 183.872 114.689 183.781 114.545 183.728C114.407 183.669 114.257 183.64 114.097 183.64C113.937 183.64 113.788 183.669 113.649 183.728C113.511 183.781 113.391 183.872 113.289 184C113.188 184.128 113.108 184.296 113.049 184.504C112.996 184.712 112.969 184.971 112.969 185.28C112.969 185.579 112.996 185.829 113.049 186.032C113.108 186.235 113.188 186.397 113.289 186.52C113.391 186.643 113.511 186.731 113.649 186.784C113.788 186.837 113.937 186.864 114.097 186.864C114.257 186.864 114.407 186.837 114.545 186.784C114.689 186.731 114.812 186.643 114.913 186.52C115.02 186.397 115.103 186.235 115.161 186.032C115.22 185.829 115.249 185.579 115.249 185.28Z"
        fill="#010218" />
    <path
        d="M12.848 119.16C13.0613 119.16 13.2293 119.221 13.352 119.344C13.48 119.461 13.544 119.619 13.544 119.816V121H5.608V120.344C5.608 120.211 5.63467 120.072 5.688 119.928C5.74667 119.779 5.83733 119.645 5.96 119.528L9.472 116.008C9.76533 115.709 10.0267 115.424 10.256 115.152C10.4907 114.88 10.6853 114.611 10.84 114.344C10.9947 114.077 11.112 113.808 11.192 113.536C11.2773 113.259 11.32 112.968 11.32 112.664C11.32 112.387 11.28 112.144 11.2 111.936C11.12 111.723 11.0053 111.544 10.856 111.4C10.712 111.256 10.536 111.149 10.328 111.08C10.1253 111.005 9.896 110.968 9.64 110.968C9.40533 110.968 9.18667 111.003 8.984 111.072C8.78667 111.136 8.61067 111.229 8.456 111.352C8.30133 111.469 8.17067 111.608 8.064 111.768C7.95733 111.928 7.87733 112.104 7.824 112.296C7.73333 112.541 7.616 112.704 7.472 112.784C7.328 112.864 7.12 112.883 6.848 112.84L5.808 112.656C5.888 112.101 6.04267 111.616 6.272 111.2C6.50133 110.779 6.78667 110.429 7.128 110.152C7.47467 109.869 7.86933 109.659 8.312 109.52C8.76 109.376 9.24 109.304 9.752 109.304C10.2853 109.304 10.7733 109.384 11.216 109.544C11.6587 109.699 12.0373 109.92 12.352 110.208C12.6667 110.496 12.912 110.843 13.088 111.248C13.264 111.653 13.352 112.104 13.352 112.6C13.352 113.027 13.288 113.421 13.16 113.784C13.0373 114.147 12.8693 114.493 12.656 114.824C12.448 115.155 12.2027 115.475 11.92 115.784C11.6373 116.093 11.3413 116.408 11.032 116.728L8.424 119.392C8.67467 119.317 8.92267 119.261 9.168 119.224C9.41867 119.181 9.656 119.16 9.88 119.16H12.848ZM18.9213 119.584C19.2466 119.584 19.5319 119.539 19.7773 119.448C20.0226 119.352 20.2279 119.221 20.3933 119.056C20.5639 118.891 20.6919 118.693 20.7773 118.464C20.8626 118.235 20.9053 117.987 20.9053 117.72C20.9053 117.085 20.7293 116.605 20.3773 116.28C20.0253 115.955 19.5399 115.792 18.9213 115.792C18.3026 115.792 17.8173 115.955 17.4653 116.28C17.1133 116.605 16.9373 117.085 16.9373 117.72C16.9373 117.987 16.9799 118.235 17.0653 118.464C17.1506 118.693 17.2759 118.891 17.4413 119.056C17.6119 119.221 17.8199 119.352 18.0653 119.448C18.3106 119.539 18.5959 119.584 18.9213 119.584ZM18.9213 110.792C18.6279 110.792 18.3746 110.837 18.1613 110.928C17.9479 111.019 17.7693 111.141 17.6253 111.296C17.4866 111.445 17.3826 111.619 17.3133 111.816C17.2493 112.013 17.2173 112.221 17.2173 112.44C17.2173 112.669 17.2439 112.893 17.2973 113.112C17.3559 113.325 17.4519 113.517 17.5853 113.688C17.7186 113.853 17.8946 113.987 18.1133 114.088C18.3319 114.189 18.6013 114.24 18.9213 114.24C19.2413 114.24 19.5106 114.189 19.7293 114.088C19.9479 113.987 20.1239 113.853 20.2573 113.688C20.3906 113.517 20.4839 113.325 20.5373 113.112C20.5959 112.893 20.6253 112.669 20.6253 112.44C20.6253 112.221 20.5906 112.013 20.5213 111.816C20.4519 111.619 20.3479 111.445 20.2093 111.296C20.0706 111.141 19.8946 111.019 19.6813 110.928C19.4679 110.837 19.2146 110.792 18.9213 110.792ZM20.8733 114.968C21.5773 115.197 22.0973 115.549 22.4333 116.024C22.7693 116.493 22.9373 117.069 22.9373 117.752C22.9373 118.264 22.8386 118.728 22.6413 119.144C22.4493 119.56 22.1773 119.915 21.8253 120.208C21.4733 120.501 21.0493 120.728 20.5533 120.888C20.0626 121.048 19.5186 121.128 18.9213 121.128C18.3239 121.128 17.7773 121.048 17.2813 120.888C16.7906 120.728 16.3693 120.501 16.0173 120.208C15.6653 119.915 15.3906 119.56 15.1933 119.144C15.0013 118.728 14.9053 118.264 14.9053 117.752C14.9053 117.069 15.0733 116.493 15.4093 116.024C15.7453 115.549 16.2653 115.197 16.9693 114.968C16.4093 114.733 15.9879 114.4 15.7053 113.968C15.4279 113.536 15.2893 113.016 15.2893 112.408C15.2893 111.971 15.3773 111.563 15.5533 111.184C15.7346 110.805 15.9853 110.477 16.3053 110.2C16.6253 109.917 17.0066 109.699 17.4493 109.544C17.8973 109.384 18.3879 109.304 18.9213 109.304C19.4546 109.304 19.9426 109.384 20.3853 109.544C20.8333 109.699 21.2173 109.917 21.5373 110.2C21.8573 110.477 22.1053 110.805 22.2812 111.184C22.4626 111.563 22.5533 111.971 22.5533 112.408C22.5533 113.016 22.4119 113.536 22.1293 113.968C21.8519 114.4 21.4333 114.733 20.8733 114.968ZM29.5225 112.232C29.5225 112.669 29.4478 113.064 29.2985 113.416C29.1545 113.768 28.9598 114.069 28.7145 114.32C28.4692 114.565 28.1838 114.755 27.8585 114.888C27.5332 115.021 27.1945 115.088 26.8425 115.088C26.4585 115.088 26.1038 115.021 25.7785 114.888C25.4532 114.755 25.1705 114.565 24.9305 114.32C24.6958 114.069 24.5118 113.768 24.3785 113.416C24.2452 113.064 24.1785 112.669 24.1785 112.232C24.1785 111.784 24.2452 111.379 24.3785 111.016C24.5118 110.653 24.6958 110.347 24.9305 110.096C25.1705 109.845 25.4532 109.653 25.7785 109.52C26.1038 109.381 26.4585 109.312 26.8425 109.312C27.2265 109.312 27.5812 109.381 27.9065 109.52C28.2372 109.653 28.5225 109.845 28.7625 110.096C29.0025 110.347 29.1892 110.653 29.3225 111.016C29.4558 111.379 29.5225 111.784 29.5225 112.232ZM28.0025 112.232C28.0025 111.923 27.9705 111.664 27.9065 111.456C27.8478 111.248 27.7652 111.08 27.6585 110.952C27.5572 110.824 27.4345 110.733 27.2905 110.68C27.1518 110.621 27.0025 110.592 26.8425 110.592C26.6825 110.592 26.5332 110.621 26.3945 110.68C26.2558 110.733 26.1358 110.824 26.0345 110.952C25.9385 111.08 25.8612 111.248 25.8025 111.456C25.7438 111.664 25.7145 111.923 25.7145 112.232C25.7145 112.531 25.7438 112.781 25.8025 112.984C25.8612 113.181 25.9385 113.341 26.0345 113.464C26.1358 113.587 26.2558 113.675 26.3945 113.728C26.5332 113.781 26.6825 113.808 26.8425 113.808C27.0025 113.808 27.1518 113.781 27.2905 113.728C27.4345 113.675 27.5572 113.587 27.6585 113.464C27.7652 113.341 27.8478 113.181 27.9065 112.984C27.9705 112.781 28.0025 112.531 28.0025 112.232ZM33.3705 109.744C33.4398 109.664 33.5198 109.592 33.6105 109.528C33.7065 109.464 33.8398 109.432 34.0105 109.432H35.4505L26.8585 120.704C26.7892 120.789 26.7065 120.861 26.6105 120.92C26.5145 120.973 26.3972 121 26.2585 121H24.7865L33.3705 109.744ZM36.0585 118.28C36.0585 118.717 35.9838 119.112 35.8345 119.464C35.6905 119.816 35.4958 120.117 35.2505 120.368C35.0052 120.613 34.7198 120.805 34.3945 120.944C34.0692 121.077 33.7305 121.144 33.3785 121.144C32.9945 121.144 32.6398 121.077 32.3145 120.944C31.9892 120.805 31.7065 120.613 31.4665 120.368C31.2318 120.117 31.0478 119.816 30.9145 119.464C30.7812 119.112 30.7145 118.717 30.7145 118.28C30.7145 117.832 30.7812 117.427 30.9145 117.064C31.0478 116.701 31.2318 116.395 31.4665 116.144C31.7065 115.893 31.9892 115.701 32.3145 115.568C32.6398 115.429 32.9945 115.36 33.3785 115.36C33.7625 115.36 34.1172 115.429 34.4425 115.568C34.7732 115.701 35.0558 115.893 35.2905 116.144C35.5305 116.395 35.7172 116.701 35.8505 117.064C35.9892 117.427 36.0585 117.832 36.0585 118.28ZM34.5305 118.28C34.5305 117.971 34.5012 117.712 34.4425 117.504C34.3838 117.296 34.3012 117.128 34.1945 117C34.0932 116.872 33.9705 116.781 33.8265 116.728C33.6878 116.669 33.5385 116.64 33.3785 116.64C33.2185 116.64 33.0692 116.669 32.9305 116.728C32.7918 116.781 32.6718 116.872 32.5705 117C32.4692 117.128 32.3892 117.296 32.3305 117.504C32.2772 117.712 32.2505 117.971 32.2505 118.28C32.2505 118.579 32.2772 118.829 32.3305 119.032C32.3892 119.235 32.4692 119.397 32.5705 119.52C32.6718 119.643 32.7918 119.731 32.9305 119.784C33.0692 119.837 33.2185 119.864 33.3785 119.864C33.5385 119.864 33.6878 119.837 33.8265 119.784C33.9705 119.731 34.0932 119.643 34.1945 119.52C34.3012 119.397 34.3838 119.235 34.4425 119.032C34.5012 118.829 34.5305 118.579 34.5305 118.28Z"
        fill="#010218" />
    <path
        d="M112.206 56.5998C123.298 23.4149 163.794 38.2083 215.893 37.043C269.792 51.6624 298.366 60.9341 304.354 105.975C305.137 111.859 302.71 163.579 203.138 154.115L196.554 126.548L189.976 93.2193L148.002 73.4695L112.206 56.5998Z"
        fill="#0C518A" />
    <path
        d="M121.146 42.6206C137.24 22.2511 200.95 23.6468 244.656 41.4108C288.362 59.1745 310.102 84.8439 296.793 108.924C290.139 120.964 258.273 146.709 209.264 136.614L197.407 81.1194L121.146 42.6206Z"
        fill="#088EF7" />
    <path
        d="M91.2799 159.214L154.632 106.019L154.342 86.715L79.0679 56.0344C30.9434 93.4197 39.9912 136.623 91.2799 159.214Z"
        fill="#762BF3" />
    <path
        d="M90.289 135.087L154.332 86.4959L79.479 55.2122C30.539 78.6072 41.6718 118.44 90.289 135.087Z"
        fill="#956FF9" />
    <path
        d="M102.822 143.531L164.131 93.3313L119.376 148.845C116.089 148.31 119.376 148.845 102.822 143.531Z"
        fill="#FFCD4B" />
    <path d="M102.823 143.365L119.281 148.828V160.761V172.693L102 168.167L102.823 143.365Z"
        fill="#FBB604" />
    <path d="M163.668 93.8849L164.668 99.8848L125.168 149.885L119.056 149.008L163.668 93.8849Z"
        fill="#FBB604" />
    <path d="M119.281 148.885L125.168 149.385L125.668 166.385L119.281 172.578V148.885Z"
        fill="#FBB604" />
    <path d="M125.043 149.948L150.142 153.651V165.995V177.927L125.454 173.812L125.043 149.948Z"
        fill="#3B889C" />
    <path
        d="M168.667 94.8848L169.478 114.151L165.775 124.849L157.546 153.651L149.668 153.885L168.667 94.8848Z"
        fill="#3B889C" />
    <path d="M150.168 153.885L157.547 153.24V155.297L150.141 177.927L150.168 153.885Z"
        fill="#3B889C" />
    <path
        d="M125.168 149.885L169.086 93.9893L150.14 153.651C125.168 149.885 150.69 153.863 125.168 149.885Z"
        fill="#4AAAC3" />
    <path d="M155.668 155.419H186.116V172.289V180.107L156.079 179.284L155.668 155.419Z"
        fill="#F85225" />
    <path
        d="M156.079 155.419L165.955 122.503L173.118 96.4649L186.528 155.419C156.079 155.419 182.825 155.419 156.079 155.419Z"
        fill="#FF714B" />
    <path
        d="M257.434 189.866C257.766 189.866 258.062 189.81 258.322 189.698C258.586 189.586 258.808 189.43 258.988 189.23C259.172 189.03 259.312 188.79 259.408 188.51C259.504 188.226 259.552 187.912 259.552 187.568V182.36H260.95V187.568C260.95 188.076 260.868 188.546 260.704 188.978C260.544 189.41 260.312 189.784 260.008 190.1C259.704 190.412 259.334 190.658 258.898 190.838C258.466 191.014 257.978 191.102 257.434 191.102C256.89 191.102 256.4 191.014 255.964 190.838C255.532 190.658 255.164 190.412 254.86 190.1C254.556 189.784 254.322 189.41 254.158 188.978C253.998 188.546 253.918 188.076 253.918 187.568V182.36H255.322V187.562C255.322 187.906 255.37 188.22 255.466 188.504C255.562 188.784 255.7 189.026 255.88 189.23C256.06 189.43 256.28 189.586 256.54 189.698C256.804 189.81 257.102 189.866 257.434 189.866ZM267.415 183.836C267.371 183.908 267.325 183.962 267.277 183.998C267.229 184.03 267.169 184.046 267.097 184.046C267.021 184.046 266.935 184.014 266.839 183.95C266.747 183.886 266.631 183.816 266.491 183.74C266.355 183.66 266.193 183.588 266.005 183.524C265.817 183.456 265.593 183.422 265.333 183.422C265.093 183.422 264.881 183.452 264.697 183.512C264.517 183.572 264.365 183.656 264.241 183.764C264.117 183.872 264.023 184 263.959 184.148C263.899 184.292 263.869 184.45 263.869 184.622C263.869 184.842 263.927 185.026 264.043 185.174C264.159 185.318 264.311 185.442 264.499 185.546C264.691 185.65 264.909 185.742 265.153 185.822C265.397 185.898 265.645 185.98 265.897 186.068C266.153 186.156 266.403 186.256 266.647 186.368C266.891 186.48 267.107 186.622 267.295 186.794C267.487 186.966 267.641 187.176 267.757 187.424C267.873 187.672 267.931 187.974 267.931 188.33C267.931 188.714 267.865 189.074 267.733 189.41C267.601 189.746 267.409 190.04 267.157 190.292C266.909 190.54 266.601 190.736 266.233 190.88C265.869 191.024 265.453 191.096 264.985 191.096C264.709 191.096 264.439 191.068 264.175 191.012C263.915 190.96 263.665 190.886 263.425 190.79C263.189 190.69 262.967 190.57 262.759 190.43C262.551 190.29 262.365 190.134 262.201 189.962L262.609 189.29C262.645 189.234 262.691 189.19 262.747 189.158C262.803 189.126 262.865 189.11 262.933 189.11C263.025 189.11 263.127 189.154 263.239 189.242C263.351 189.326 263.485 189.42 263.641 189.524C263.801 189.624 263.993 189.718 264.217 189.806C264.441 189.89 264.709 189.932 265.021 189.932C265.529 189.932 265.921 189.808 266.197 189.56C266.477 189.312 266.617 188.97 266.617 188.534C266.617 188.29 266.559 188.092 266.443 187.94C266.327 187.784 266.173 187.654 265.981 187.55C265.793 187.446 265.577 187.358 265.333 187.286C265.089 187.214 264.841 187.138 264.589 187.058C264.337 186.974 264.089 186.878 263.845 186.77C263.601 186.658 263.383 186.514 263.191 186.338C263.003 186.158 262.851 185.938 262.735 185.678C262.619 185.414 262.561 185.086 262.561 184.694C262.561 184.382 262.621 184.08 262.741 183.788C262.865 183.496 263.043 183.238 263.275 183.014C263.511 182.786 263.801 182.604 264.145 182.468C264.489 182.332 264.881 182.264 265.321 182.264C265.817 182.264 266.271 182.342 266.683 182.498C267.099 182.654 267.457 182.876 267.757 183.164L267.415 183.836ZM277.032 186.68C277.032 187.32 276.928 187.906 276.72 188.438C276.512 188.966 276.218 189.42 275.838 189.8C275.462 190.18 275.008 190.476 274.476 190.688C273.948 190.896 273.36 191 272.712 191H269.448V182.36H272.712C273.36 182.36 273.948 182.466 274.476 182.678C275.008 182.886 275.462 183.18 275.838 183.56C276.218 183.94 276.512 184.396 276.72 184.928C276.928 185.456 277.032 186.04 277.032 186.68ZM275.598 186.68C275.598 186.184 275.53 185.738 275.394 185.342C275.262 184.946 275.07 184.612 274.818 184.34C274.57 184.068 274.268 183.86 273.912 183.716C273.556 183.568 273.156 183.494 272.712 183.494H270.858V189.866H272.712C273.156 189.866 273.556 189.794 273.912 189.65C274.268 189.506 274.57 189.298 274.818 189.026C275.07 188.75 275.262 188.416 275.394 188.024C275.53 187.628 275.598 187.18 275.598 186.68Z"
        fill="#010218" />
    <path
        d="M253.176 166.632L252.776 167.128C253 167.016 253.24 166.931 253.496 166.872C253.757 166.808 254.037 166.776 254.336 166.776C254.773 166.776 255.197 166.848 255.608 166.992C256.024 167.136 256.389 167.355 256.704 167.648C257.019 167.936 257.272 168.296 257.464 168.728C257.656 169.16 257.752 169.664 257.752 170.24C257.752 170.779 257.653 171.285 257.456 171.76C257.259 172.229 256.981 172.64 256.624 172.992C256.267 173.344 255.835 173.621 255.328 173.824C254.827 174.027 254.272 174.128 253.664 174.128C253.045 174.128 252.491 174.029 252 173.832C251.509 173.635 251.091 173.36 250.744 173.008C250.397 172.651 250.131 172.224 249.944 171.728C249.763 171.227 249.672 170.672 249.672 170.064C249.672 169.52 249.781 168.963 250 168.392C250.224 167.816 250.568 167.219 251.032 166.6L253.792 162.896C253.888 162.768 254.027 162.659 254.208 162.568C254.395 162.477 254.608 162.432 254.848 162.432H256.608L253.176 166.632ZM253.624 172.512C253.939 172.512 254.227 172.459 254.488 172.352C254.755 172.245 254.981 172.096 255.168 171.904C255.36 171.712 255.509 171.488 255.616 171.232C255.723 170.971 255.776 170.688 255.776 170.384C255.776 170.053 255.725 169.757 255.624 169.496C255.523 169.229 255.379 169.005 255.192 168.824C255.005 168.637 254.781 168.496 254.52 168.4C254.259 168.304 253.971 168.256 253.656 168.256C253.341 168.256 253.056 168.309 252.8 168.416C252.544 168.523 252.325 168.672 252.144 168.864C251.963 169.051 251.821 169.275 251.72 169.536C251.619 169.792 251.568 170.069 251.568 170.368C251.568 170.688 251.611 170.981 251.696 171.248C251.787 171.509 251.917 171.733 252.088 171.92C252.264 172.107 252.48 172.253 252.736 172.36C252.992 172.461 253.288 172.512 253.624 172.512ZM266.129 172.16C266.343 172.16 266.511 172.221 266.633 172.344C266.761 172.461 266.825 172.619 266.825 172.816V174H258.889V173.344C258.889 173.211 258.916 173.072 258.969 172.928C259.028 172.779 259.119 172.645 259.241 172.528L262.753 169.008C263.047 168.709 263.308 168.424 263.537 168.152C263.772 167.88 263.967 167.611 264.121 167.344C264.276 167.077 264.393 166.808 264.473 166.536C264.559 166.259 264.601 165.968 264.601 165.664C264.601 165.387 264.561 165.144 264.481 164.936C264.401 164.723 264.287 164.544 264.137 164.4C263.993 164.256 263.817 164.149 263.609 164.08C263.407 164.005 263.177 163.968 262.921 163.968C262.687 163.968 262.468 164.003 262.265 164.072C262.068 164.136 261.892 164.229 261.737 164.352C261.583 164.469 261.452 164.608 261.345 164.768C261.239 164.928 261.159 165.104 261.105 165.296C261.015 165.541 260.897 165.704 260.753 165.784C260.609 165.864 260.401 165.883 260.129 165.84L259.089 165.656C259.169 165.101 259.324 164.616 259.553 164.2C259.783 163.779 260.068 163.429 260.409 163.152C260.756 162.869 261.151 162.659 261.593 162.52C262.041 162.376 262.521 162.304 263.033 162.304C263.567 162.304 264.055 162.384 264.497 162.544C264.94 162.699 265.319 162.92 265.633 163.208C265.948 163.496 266.193 163.843 266.369 164.248C266.545 164.653 266.633 165.104 266.633 165.6C266.633 166.027 266.569 166.421 266.441 166.784C266.319 167.147 266.151 167.493 265.937 167.824C265.729 168.155 265.484 168.475 265.201 168.784C264.919 169.093 264.623 169.408 264.313 169.728L261.705 172.392C261.956 172.317 262.204 172.261 262.449 172.224C262.7 172.181 262.937 172.16 263.161 172.16H266.129ZM273.523 165.232C273.523 165.669 273.448 166.064 273.299 166.416C273.155 166.768 272.96 167.069 272.715 167.32C272.469 167.565 272.184 167.755 271.859 167.888C271.533 168.021 271.195 168.088 270.843 168.088C270.459 168.088 270.104 168.021 269.779 167.888C269.453 167.755 269.171 167.565 268.931 167.32C268.696 167.069 268.512 166.768 268.379 166.416C268.245 166.064 268.179 165.669 268.179 165.232C268.179 164.784 268.245 164.379 268.379 164.016C268.512 163.653 268.696 163.347 268.931 163.096C269.171 162.845 269.453 162.653 269.779 162.52C270.104 162.381 270.459 162.312 270.843 162.312C271.227 162.312 271.581 162.381 271.907 162.52C272.237 162.653 272.523 162.845 272.763 163.096C273.003 163.347 273.189 163.653 273.323 164.016C273.456 164.379 273.523 164.784 273.523 165.232ZM272.003 165.232C272.003 164.923 271.971 164.664 271.907 164.456C271.848 164.248 271.765 164.08 271.659 163.952C271.557 163.824 271.435 163.733 271.291 163.68C271.152 163.621 271.003 163.592 270.843 163.592C270.683 163.592 270.533 163.621 270.395 163.68C270.256 163.733 270.136 163.824 270.035 163.952C269.939 164.08 269.861 164.248 269.803 164.456C269.744 164.664 269.715 164.923 269.715 165.232C269.715 165.531 269.744 165.781 269.803 165.984C269.861 166.181 269.939 166.341 270.035 166.464C270.136 166.587 270.256 166.675 270.395 166.728C270.533 166.781 270.683 166.808 270.843 166.808C271.003 166.808 271.152 166.781 271.291 166.728C271.435 166.675 271.557 166.587 271.659 166.464C271.765 166.341 271.848 166.181 271.907 165.984C271.971 165.781 272.003 165.531 272.003 165.232ZM277.371 162.744C277.44 162.664 277.52 162.592 277.611 162.528C277.707 162.464 277.84 162.432 278.011 162.432H279.451L270.859 173.704C270.789 173.789 270.707 173.861 270.611 173.92C270.515 173.973 270.397 174 270.259 174H268.787L277.371 162.744ZM280.059 171.28C280.059 171.717 279.984 172.112 279.835 172.464C279.691 172.816 279.496 173.117 279.251 173.368C279.005 173.613 278.72 173.805 278.395 173.944C278.069 174.077 277.731 174.144 277.379 174.144C276.995 174.144 276.64 174.077 276.315 173.944C275.989 173.805 275.707 173.613 275.467 173.368C275.232 173.117 275.048 172.816 274.915 172.464C274.781 172.112 274.715 171.717 274.715 171.28C274.715 170.832 274.781 170.427 274.915 170.064C275.048 169.701 275.232 169.395 275.467 169.144C275.707 168.893 275.989 168.701 276.315 168.568C276.64 168.429 276.995 168.36 277.379 168.36C277.763 168.36 278.117 168.429 278.443 168.568C278.773 168.701 279.056 168.893 279.291 169.144C279.531 169.395 279.717 169.701 279.851 170.064C279.989 170.427 280.059 170.832 280.059 171.28ZM278.531 171.28C278.531 170.971 278.501 170.712 278.443 170.504C278.384 170.296 278.301 170.128 278.195 170C278.093 169.872 277.971 169.781 277.827 169.728C277.688 169.669 277.539 169.64 277.379 169.64C277.219 169.64 277.069 169.669 276.931 169.728C276.792 169.781 276.672 169.872 276.571 170C276.469 170.128 276.389 170.296 276.331 170.504C276.277 170.712 276.251 170.971 276.251 171.28C276.251 171.579 276.277 171.829 276.331 172.032C276.389 172.235 276.469 172.397 276.571 172.52C276.672 172.643 276.792 172.731 276.931 172.784C277.069 172.837 277.219 172.864 277.379 172.864C277.539 172.864 277.688 172.837 277.827 172.784C277.971 172.731 278.093 172.643 278.195 172.52C278.301 172.397 278.384 172.235 278.443 172.032C278.501 171.829 278.531 171.579 278.531 171.28Z"
        fill="#010218" />
    <path
        d="M166.696 193.64V189.856C166.696 189.499 166.72 189.104 166.768 188.672L163.176 193.64H166.696ZM169.872 193.64V194.784C169.872 194.891 169.837 194.984 169.768 195.064C169.699 195.139 169.6 195.176 169.472 195.176H168.416V198H166.696V195.176H161.816C161.683 195.176 161.565 195.136 161.464 195.056C161.363 194.971 161.299 194.867 161.272 194.744L161.064 193.744L166.544 186.424H168.416V193.64H169.872ZM176.241 189.232C176.241 189.669 176.167 190.064 176.017 190.416C175.873 190.768 175.679 191.069 175.433 191.32C175.188 191.565 174.903 191.755 174.577 191.888C174.252 192.021 173.913 192.088 173.561 192.088C173.177 192.088 172.823 192.021 172.497 191.888C172.172 191.755 171.889 191.565 171.649 191.32C171.415 191.069 171.231 190.768 171.097 190.416C170.964 190.064 170.897 189.669 170.897 189.232C170.897 188.784 170.964 188.379 171.097 188.016C171.231 187.653 171.415 187.347 171.649 187.096C171.889 186.845 172.172 186.653 172.497 186.52C172.823 186.381 173.177 186.312 173.561 186.312C173.945 186.312 174.3 186.381 174.625 186.52C174.956 186.653 175.241 186.845 175.481 187.096C175.721 187.347 175.908 187.653 176.041 188.016C176.175 188.379 176.241 188.784 176.241 189.232ZM174.721 189.232C174.721 188.923 174.689 188.664 174.625 188.456C174.567 188.248 174.484 188.08 174.377 187.952C174.276 187.824 174.153 187.733 174.009 187.68C173.871 187.621 173.721 187.592 173.561 187.592C173.401 187.592 173.252 187.621 173.113 187.68C172.975 187.733 172.855 187.824 172.753 187.952C172.657 188.08 172.58 188.248 172.521 188.456C172.463 188.664 172.433 188.923 172.433 189.232C172.433 189.531 172.463 189.781 172.521 189.984C172.58 190.181 172.657 190.341 172.753 190.464C172.855 190.587 172.975 190.675 173.113 190.728C173.252 190.781 173.401 190.808 173.561 190.808C173.721 190.808 173.871 190.781 174.009 190.728C174.153 190.675 174.276 190.587 174.377 190.464C174.484 190.341 174.567 190.181 174.625 189.984C174.689 189.781 174.721 189.531 174.721 189.232ZM180.089 186.744C180.159 186.664 180.239 186.592 180.329 186.528C180.425 186.464 180.559 186.432 180.729 186.432H182.169L173.577 197.704C173.508 197.789 173.425 197.861 173.329 197.92C173.233 197.973 173.116 198 172.977 198H171.505L180.089 186.744ZM182.777 195.28C182.777 195.717 182.703 196.112 182.553 196.464C182.409 196.816 182.215 197.117 181.969 197.368C181.724 197.613 181.439 197.805 181.113 197.944C180.788 198.077 180.449 198.144 180.097 198.144C179.713 198.144 179.359 198.077 179.033 197.944C178.708 197.805 178.425 197.613 178.185 197.368C177.951 197.117 177.767 196.816 177.633 196.464C177.5 196.112 177.433 195.717 177.433 195.28C177.433 194.832 177.5 194.427 177.633 194.064C177.767 193.701 177.951 193.395 178.185 193.144C178.425 192.893 178.708 192.701 179.033 192.568C179.359 192.429 179.713 192.36 180.097 192.36C180.481 192.36 180.836 192.429 181.161 192.568C181.492 192.701 181.775 192.893 182.009 193.144C182.249 193.395 182.436 193.701 182.569 194.064C182.708 194.427 182.777 194.832 182.777 195.28ZM181.249 195.28C181.249 194.971 181.22 194.712 181.161 194.504C181.103 194.296 181.02 194.128 180.913 194C180.812 193.872 180.689 193.781 180.545 193.728C180.407 193.669 180.257 193.64 180.097 193.64C179.937 193.64 179.788 193.669 179.649 193.728C179.511 193.781 179.391 193.872 179.289 194C179.188 194.128 179.108 194.296 179.049 194.504C178.996 194.712 178.969 194.971 178.969 195.28C178.969 195.579 178.996 195.829 179.049 196.032C179.108 196.235 179.188 196.397 179.289 196.52C179.391 196.643 179.511 196.731 179.649 196.784C179.788 196.837 179.937 196.864 180.097 196.864C180.257 196.864 180.407 196.837 180.545 196.784C180.689 196.731 180.812 196.643 180.913 196.52C181.02 196.397 181.103 196.235 181.161 196.032C181.22 195.829 181.249 195.579 181.249 195.28Z"
        fill="#010218" />
    <path
        d="M168.1 210.746V214.166C167.24 214.786 166.24 215.096 165.1 215.096C164.4 215.096 163.766 214.988 163.198 214.772C162.634 214.552 162.152 214.248 161.752 213.86C161.352 213.468 161.044 213.002 160.828 212.462C160.612 211.922 160.504 211.328 160.504 210.68C160.504 210.028 160.608 209.432 160.816 208.892C161.024 208.348 161.322 207.882 161.71 207.494C162.098 207.102 162.566 206.8 163.114 206.588C163.662 206.372 164.278 206.264 164.962 206.264C165.31 206.264 165.632 206.292 165.928 206.348C166.228 206.4 166.506 206.474 166.762 206.57C167.018 206.666 167.254 206.782 167.47 206.918C167.686 207.054 167.884 207.206 168.064 207.374L167.662 208.016C167.598 208.116 167.516 208.178 167.416 208.202C167.316 208.226 167.208 208.202 167.092 208.13C166.976 208.062 166.852 207.99 166.72 207.914C166.592 207.838 166.444 207.768 166.276 207.704C166.108 207.636 165.914 207.582 165.694 207.542C165.474 207.498 165.214 207.476 164.914 207.476C164.458 207.476 164.046 207.552 163.678 207.704C163.314 207.852 163.002 208.066 162.742 208.346C162.482 208.622 162.282 208.958 162.142 209.354C162.002 209.75 161.932 210.192 161.932 210.68C161.932 211.196 162.006 211.658 162.154 212.066C162.302 212.47 162.512 212.814 162.784 213.098C163.056 213.378 163.384 213.592 163.768 213.74C164.156 213.888 164.588 213.962 165.064 213.962C165.42 213.962 165.736 213.924 166.012 213.848C166.292 213.772 166.566 213.666 166.834 213.53V211.814H165.628C165.536 211.814 165.464 211.79 165.412 211.742C165.36 211.69 165.334 211.624 165.334 211.544V210.746H168.1ZM172.9 213.89C173.216 213.89 173.482 213.854 173.698 213.782C173.918 213.706 174.096 213.604 174.232 213.476C174.372 213.348 174.472 213.198 174.532 213.026C174.596 212.85 174.628 212.662 174.628 212.462C174.628 212.054 174.488 211.734 174.208 211.502C173.932 211.266 173.494 211.148 172.894 211.148H171.16V213.89H172.9ZM171.16 207.458V210.158H172.564C173.164 210.158 173.612 210.042 173.908 209.81C174.204 209.578 174.352 209.244 174.352 208.808C174.352 208.332 174.212 207.988 173.932 207.776C173.656 207.564 173.222 207.458 172.63 207.458H171.16ZM172.63 206.36C173.182 206.36 173.654 206.414 174.046 206.522C174.438 206.626 174.76 206.776 175.012 206.972C175.264 207.168 175.448 207.408 175.564 207.692C175.684 207.972 175.744 208.288 175.744 208.64C175.744 208.844 175.712 209.042 175.648 209.234C175.588 209.422 175.492 209.6 175.36 209.768C175.232 209.932 175.07 210.08 174.874 210.212C174.678 210.344 174.446 210.454 174.178 210.542C175.402 210.802 176.014 211.452 176.014 212.492C176.014 212.86 175.944 213.198 175.804 213.506C175.668 213.81 175.468 214.074 175.204 214.298C174.944 214.518 174.622 214.69 174.238 214.814C173.854 214.938 173.416 215 172.924 215H169.756V206.36H172.63ZM180.284 210.764C180.596 210.764 180.87 210.724 181.106 210.644C181.346 210.564 181.544 210.452 181.7 210.308C181.86 210.16 181.98 209.982 182.06 209.774C182.14 209.566 182.18 209.334 182.18 209.078C182.18 208.826 182.14 208.6 182.06 208.4C181.984 208.2 181.868 208.03 181.712 207.89C181.556 207.75 181.358 207.644 181.118 207.572C180.882 207.496 180.604 207.458 180.284 207.458H179V210.764H180.284ZM180.284 206.36C180.848 206.36 181.336 206.426 181.748 206.558C182.164 206.69 182.506 206.876 182.774 207.116C183.046 207.352 183.248 207.638 183.38 207.974C183.512 208.306 183.578 208.674 183.578 209.078C183.578 209.49 183.508 209.868 183.368 210.212C183.228 210.552 183.02 210.846 182.744 211.094C182.468 211.338 182.124 211.53 181.712 211.67C181.304 211.806 180.828 211.874 180.284 211.874H179V215H177.596V206.36H180.284Z"
        fill="#010218" />
</svg>