<svg width="58" height="58" viewBox="0 0 58 58" fill="none" xmlns="http://www.w3.org/2000/svg">
    <path
        d="M51.332 33.0439C51.2697 33.667 50.6976 33.9785 50.2105 34.2617C49.7574 34.5223 49.3043 34.7885 48.8568 35.049C48.1318 35.4682 47.4125 35.8873 46.6875 36.3064C45.7812 36.8332 44.8806 37.36 43.9744 37.8811C42.9775 38.4588 41.9806 39.0422 40.9781 39.6199C39.9755 40.2033 38.973 40.7867 37.9648 41.3701C37.0416 41.9082 36.124 42.4406 35.2007 42.9787C34.4474 43.4148 33.6998 43.851 32.9464 44.2871C32.4537 44.5703 31.9609 44.8592 31.4681 45.1424C31.0943 45.3576 30.7431 45.5728 30.3183 45.6975C29.2138 46.0146 27.9904 45.907 26.9935 45.3293C26.6367 45.1197 26.2742 44.9158 25.9173 44.7062C25.2603 44.3268 24.6089 43.9529 23.9519 43.5734C23.091 43.075 22.23 42.5766 21.3691 42.0838C20.3892 41.5174 19.4037 40.951 18.4238 40.3846C17.4099 39.8012 16.3961 39.2121 15.3822 38.6287C14.425 38.0736 13.4677 37.5242 12.5048 36.9691L10.058 35.5588C9.47457 35.2189 8.8855 34.8848 8.30211 34.5449C8.03589 34.392 7.76968 34.2391 7.50347 34.0805C7.08433 33.8369 6.67086 33.4518 6.67086 32.9307C6.67086 33.4064 6.67086 33.8822 6.66519 34.3637C6.66519 34.5336 6.65386 34.7092 6.66519 34.8848C6.69918 35.3436 7.06168 35.7004 7.44117 35.927C7.67339 36.0686 7.91128 36.1988 8.14918 36.3348C8.76089 36.6859 9.37261 37.0428 9.98433 37.3939C10.8679 37.9037 11.7459 38.4135 12.6294 38.9232C13.6773 39.5293 14.7308 40.1353 15.7787 40.7414C16.8718 41.3758 17.965 42.0045 19.0638 42.6389C20.106 43.2393 21.1425 43.8396 22.1847 44.44C23.0513 44.9385 23.9123 45.4369 24.7789 45.9354C25.3623 46.2752 25.9513 46.6094 26.5347 46.9492C26.8746 47.1418 27.2087 47.3627 27.5769 47.4986C28.7267 47.9178 30.0748 47.8271 31.1339 47.2098C31.5361 46.9775 31.9382 46.7396 32.3404 46.5074C33.0824 46.077 33.8244 45.6465 34.5607 45.216C35.5293 44.6553 36.4921 44.0945 37.4607 43.5281C38.5425 42.8994 39.6244 42.2707 40.7005 41.642L43.9461 39.7559C44.9146 39.1895 45.8832 38.6287 46.8574 38.0623C47.6107 37.6262 48.364 37.19 49.1173 36.7482C49.5308 36.5047 49.95 36.2668 50.3634 36.0232C50.488 35.9496 50.6183 35.876 50.7373 35.791C51.0545 35.5531 51.3037 35.2246 51.3093 34.8111C51.315 34.6016 51.3093 34.3977 51.3093 34.1881C51.3093 33.7746 51.3093 33.3555 51.315 32.942C51.3377 32.9873 51.332 33.0156 51.332 33.0439C51.332 33.0326 51.3263 33.0609 51.332 33.0439Z"
        fill="#7A9EFD" />
    <path
        d="M50.5242 31.8263C51.6003 32.4493 51.606 33.4632 50.5355 34.0862L31.0341 45.42C29.9636 46.0431 28.2134 46.0431 27.1372 45.42L7.49428 34.0862C6.4181 33.4632 6.41244 32.4493 7.48295 31.8263L26.99 20.4868C28.0605 19.8638 29.8107 19.8638 30.8869 20.4868L50.5242 31.8263Z"
        fill="#E4ECF9" />
    <path
        d="M16.8582 27.8217C16.8582 27.8047 16.8639 27.7877 16.8639 27.7707C16.8639 27.7594 16.8695 27.748 16.8695 27.7367C16.8695 27.7254 16.8752 27.7141 16.8752 27.7084C16.8809 27.6914 16.8809 27.6801 16.8865 27.6631C16.8865 27.6574 16.8922 27.6461 16.8922 27.6404L16.9092 27.5895C16.9092 27.5838 16.9148 27.5781 16.9148 27.5668C16.9205 27.5441 16.9318 27.5215 16.9432 27.4988C16.9432 27.4988 16.9432 27.4932 16.9488 27.4932C16.9602 27.4705 16.9658 27.4535 16.9771 27.4365C16.9828 27.4309 16.9828 27.4252 16.9885 27.4195C16.9998 27.4025 17.0055 27.3855 17.0168 27.3629C17.0168 27.3572 17.0225 27.3572 17.0225 27.3516C17.0338 27.3289 17.0451 27.3119 17.0621 27.2893C17.0678 27.2836 17.0678 27.2779 17.0734 27.2723C17.0848 27.2553 17.0904 27.2439 17.1018 27.227C17.1074 27.2213 17.1131 27.21 17.1188 27.2043C17.1301 27.193 17.1357 27.1816 17.1471 27.1703C17.1527 27.159 17.1641 27.1533 17.1697 27.142C17.1754 27.1307 17.1867 27.125 17.1924 27.1137C17.2037 27.0967 17.2207 27.0854 17.232 27.0684L17.2547 27.0457C17.283 27.0174 17.3113 26.9947 17.3396 26.9721C17.3453 26.9664 17.351 26.9664 17.3566 26.9607C17.385 26.9381 17.4189 26.9154 17.4529 26.8984C17.4756 26.8814 17.5039 26.8701 17.5266 26.8645C17.5322 26.8588 17.5436 26.8588 17.5492 26.8531C17.5662 26.8475 17.5775 26.8418 17.5945 26.8361C17.6059 26.8361 17.6115 26.8305 17.6229 26.8305C17.6285 26.8305 17.6398 26.8248 17.6455 26.8248C17.6568 26.8248 17.6682 26.8191 17.6795 26.8191H17.7475C17.7645 26.8191 17.7758 26.8248 17.7928 26.8248H17.8041C17.8154 26.8248 17.8268 26.8305 17.8381 26.8361C17.8437 26.8361 17.8438 26.8361 17.8494 26.8418C17.8607 26.8475 17.8777 26.8531 17.8891 26.8588L17.0508 26.3717H17.0451C17.0338 26.366 17.0225 26.3604 17.0168 26.3547H17.0111C17.0055 26.3547 17.0055 26.3547 16.9998 26.349C16.9941 26.349 16.9885 26.3434 16.9828 26.3434C16.9771 26.3434 16.9715 26.3434 16.9658 26.3377H16.9488C16.9375 26.3377 16.9262 26.332 16.9148 26.332H16.8299C16.8242 26.332 16.8186 26.332 16.8129 26.3377C16.8072 26.3377 16.7959 26.3434 16.7902 26.3434C16.7846 26.3434 16.7789 26.3434 16.7789 26.349C16.7732 26.349 16.7676 26.3547 16.7676 26.3547C16.7562 26.3604 16.7393 26.366 16.7223 26.3717C16.7166 26.3717 16.7109 26.3773 16.7053 26.3773C16.7053 26.3773 16.6996 26.383 16.6939 26.383C16.6713 26.3943 16.643 26.4057 16.6203 26.4227C16.5863 26.4396 16.558 26.4623 16.5297 26.485C16.524 26.4906 16.5184 26.4906 16.5127 26.4963C16.4844 26.5189 16.4561 26.5473 16.4277 26.5699L16.4221 26.5756L16.4107 26.5869C16.3994 26.5982 16.3824 26.6152 16.3711 26.6322L16.3598 26.6436L16.3484 26.6549C16.3428 26.6662 16.3314 26.6719 16.3258 26.6832L16.3088 26.7002C16.3031 26.7059 16.3031 26.7115 16.2975 26.7172C16.2918 26.7229 16.2861 26.7342 16.2805 26.7398C16.2748 26.7455 16.2748 26.7512 16.2691 26.7568C16.2635 26.7682 16.2578 26.7738 16.2521 26.7852C16.2465 26.7908 16.2465 26.7965 16.2408 26.8021L16.2352 26.8078L16.2012 26.8588V26.8645C16.2012 26.8701 16.1955 26.8701 16.1955 26.8758C16.1898 26.8871 16.1842 26.8984 16.1729 26.9154C16.1672 26.9211 16.1672 26.9268 16.1615 26.9324C16.1559 26.9381 16.1559 26.9437 16.1502 26.9494C16.1502 26.9551 16.1445 26.9607 16.1445 26.9664C16.1389 26.9834 16.1332 26.9947 16.1275 27.0117C16.1275 27.0117 16.1275 27.0174 16.1219 27.0174C16.1162 27.0344 16.1049 27.0514 16.0992 27.074C16.0992 27.0797 16.0992 27.0797 16.0936 27.0854C16.0936 27.091 16.0879 27.0967 16.0879 27.108C16.0822 27.1193 16.0822 27.125 16.0766 27.1363C16.0766 27.142 16.0709 27.1533 16.0709 27.159C16.0709 27.1646 16.0652 27.176 16.0652 27.1816C16.0652 27.1873 16.0596 27.193 16.0596 27.1986C16.0596 27.21 16.0539 27.2156 16.0539 27.227C16.0539 27.2383 16.0482 27.2496 16.0482 27.2553V27.2666C16.0482 27.2723 16.0482 27.2836 16.0426 27.2893C16.0369 27.3062 16.0369 27.3232 16.0369 27.3402V27.3629C16.0313 27.3969 16.0312 27.4365 16.0312 27.4705C16.0312 27.6631 16.0992 27.799 16.2068 27.8613L17.0451 28.3484C16.9375 28.2861 16.8695 28.1502 16.8695 27.9576C16.8695 27.9236 16.8695 27.8896 16.8752 27.85C16.8525 27.8387 16.8525 27.8273 16.8582 27.8217Z"
        fill="#ACC5EA" />
    <path
        d="M18.6957 26.8249C18.7014 26.8249 18.7127 26.8192 18.7184 26.8192C18.724 26.8192 18.7297 26.8136 18.7354 26.8136C18.7467 26.8136 18.7523 26.8079 18.758 26.8079H18.8146C18.826 26.8079 18.8373 26.8079 18.8486 26.8136H18.86C18.8713 26.8136 18.877 26.8192 18.8883 26.8192C18.8883 26.8192 18.8939 26.8192 18.8939 26.8249L18.9279 26.8419L18.0896 26.3548C18.084 26.3491 18.0727 26.3491 18.067 26.3435H18.0613C18.0613 26.3435 18.0557 26.3435 18.0557 26.3378C18.05 26.3378 18.05 26.3321 18.0443 26.3321C18.0387 26.3321 18.033 26.3321 18.033 26.3265H18.016C18.0047 26.3265 17.999 26.3265 17.9877 26.3208H17.9141C17.9084 26.3208 17.9027 26.3208 17.8971 26.3265H17.8857C17.8801 26.3265 17.8801 26.3265 17.8744 26.3321C17.8631 26.3378 17.8518 26.3378 17.8404 26.3435C17.8348 26.3435 17.8348 26.3435 17.8291 26.3491C17.8291 26.3491 17.8234 26.3491 17.8234 26.3548C17.8064 26.3604 17.7838 26.3718 17.7668 26.3831L17.2344 26.689L18.0727 27.1761L18.6051 26.8702C18.6277 26.8589 18.6447 26.8476 18.6617 26.8419C18.6674 26.8419 18.673 26.8362 18.6787 26.8362C18.673 26.8306 18.6844 26.8306 18.6957 26.8249Z"
        fill="#2A2ABC" />
    <path d="M17.0219 28.3484L16.1836 27.8613H16.1893L17.0219 28.3484Z" fill="#28289E" />
    <path
        d="M17.0258 28.3543L16.1875 27.8672C16.1988 27.8729 16.2102 27.8785 16.2158 27.8842L17.0541 28.3713C17.0428 28.36 17.0314 28.36 17.0258 28.3543Z"
        fill="#2929A3" />
    <path
        d="M17.0531 28.3655L16.2148 27.8784C16.2262 27.8841 16.2375 27.8841 16.2488 27.8897L17.0871 28.3769C17.0758 28.3769 17.0645 28.3712 17.0531 28.3655Z"
        fill="#2A2AA8" />
    <path
        d="M17.0883 28.3768L16.25 27.8896C16.2613 27.8953 16.2727 27.8953 16.284 27.8953L17.1223 28.3824C17.1109 28.3824 17.0996 28.3824 17.0883 28.3768Z"
        fill="#2C2CAD" />
    <path
        d="M17.1234 28.3885L16.2852 27.9014C16.2965 27.9014 16.3078 27.907 16.3191 27.907L17.1574 28.3941C17.1461 28.3885 17.1348 28.3885 17.1234 28.3885Z"
        fill="#2D2DB3" />
    <path d="M17.1547 28.3885L16.3164 27.9014H16.3561L17.1943 28.3885H17.1547Z" fill="#2E2EB8" />
    <path
        d="M17.1977 28.3883L16.3594 27.9012C16.3764 27.9012 16.3877 27.9012 16.4047 27.8955L17.243 28.3826C17.226 28.3883 17.2146 28.3883 17.1977 28.3883Z"
        fill="#2F2FBD" />
    <path
        d="M17.2406 28.3881L16.4023 27.901C16.4193 27.901 16.4363 27.8953 16.4533 27.8896L17.2916 28.3768C17.2746 28.3768 17.2576 28.3824 17.2406 28.3881Z"
        fill="#3131C2" />
    <path
        d="M17.2914 28.377L16.4531 27.8898C16.4758 27.8842 16.4984 27.8729 16.5268 27.8672L17.365 28.3543C17.3424 28.36 17.3197 28.3656 17.2914 28.377Z"
        fill="#3232C7" />
    <path
        d="M17.3656 28.3484L16.5273 27.8613C16.5557 27.85 16.584 27.833 16.6123 27.8217C16.6859 27.782 16.7539 27.7254 16.8162 27.6631L17.6545 28.1502C17.5922 28.2125 17.5242 28.2635 17.4506 28.3088C17.4223 28.3258 17.3939 28.3371 17.3656 28.3484Z"
        fill="#3333CC" />
    <path d="M17.6547 28.1503L16.8164 27.6632L16.8844 27.5952L17.7227 28.0823L17.6547 28.1503Z"
        fill="#3232C7" />
    <path
        d="M17.7211 28.0826L16.8828 27.5955C16.8998 27.5785 16.9168 27.5559 16.9338 27.5332L17.7721 28.0203C17.7494 28.043 17.7324 28.06 17.7211 28.0826Z"
        fill="#3131C2" />
    <path
        d="M17.768 28.0203L16.9297 27.5332C16.941 27.5162 16.958 27.4992 16.9693 27.4766L17.8076 27.9637C17.7963 27.9863 17.785 28.0033 17.768 28.0203Z"
        fill="#2F2FBD" />
    <path
        d="M17.807 27.9634L16.9688 27.4763L17.0027 27.4253L17.841 27.9124C17.8354 27.9294 17.8184 27.9464 17.807 27.9634Z"
        fill="#2E2EB8" />
    <path
        d="M17.8461 27.9126L17.0078 27.4255L17.0418 27.3745L17.8801 27.8616C17.8631 27.8786 17.8518 27.8956 17.8461 27.9126Z"
        fill="#2D2DB3" />
    <path
        d="M17.8773 27.8613L17.0391 27.3742C17.0504 27.3572 17.0561 27.3402 17.0674 27.3232L17.9057 27.8104C17.8943 27.8273 17.8887 27.8443 17.8773 27.8613Z"
        fill="#2C2CAD" />
    <path
        d="M17.9047 27.8105L17.0664 27.3234C17.0777 27.3064 17.0834 27.2895 17.0947 27.2725L17.933 27.7596C17.9217 27.7766 17.916 27.7936 17.9047 27.8105Z"
        fill="#2A2AA8" />
    <path
        d="M17.932 27.7598L17.0938 27.2727C17.0994 27.2557 17.1107 27.2387 17.1164 27.2217L17.9547 27.7088C17.949 27.7258 17.9377 27.7428 17.932 27.7598Z"
        fill="#2929A3" />
    <path
        d="M17.9555 27.7088L17.1172 27.2217C17.1229 27.2047 17.1342 27.1877 17.1398 27.165L17.9781 27.6521C17.9725 27.6691 17.9611 27.6861 17.9555 27.7088Z"
        fill="#28289E" />
    <path
        d="M17.9789 27.6521L17.1406 27.165C17.1463 27.148 17.1576 27.1254 17.1633 27.1084L18.0016 27.5955C17.9902 27.6125 17.9846 27.6352 17.9789 27.6521Z"
        fill="#262699" />
    <path
        d="M17.9945 27.5953L17.1562 27.1082C17.1619 27.0855 17.1676 27.0686 17.1732 27.0459L18.0115 27.533C18.0115 27.5557 18.0059 27.5727 17.9945 27.5953Z"
        fill="#252594" />
    <path d="M18.018 27.5331L17.1797 27.046L17.1967 26.978L18.035 27.4651L18.018 27.5331Z"
        fill="#24248F" />
    <path d="M18.0336 27.4651L17.1953 26.978L17.2123 26.8931L18.0506 27.3802L18.0336 27.4651Z"
        fill="#23238A" />
    <path
        d="M18.0453 27.3802L17.207 26.8931C17.2127 26.8534 17.2127 26.8138 17.2127 26.7741C17.2127 26.7458 17.2127 26.7231 17.207 26.6948L18.0453 27.1819C18.0453 27.2103 18.051 27.2329 18.051 27.2612C18.0566 27.3009 18.051 27.3405 18.0453 27.3802Z"
        fill="#212185" />
    <path
        d="M16.0047 27.3916L15.4723 27.6975C15.4439 27.7145 15.41 27.7371 15.3816 27.7598C15.3703 27.7654 15.3646 27.7768 15.3533 27.7824C15.342 27.7937 15.325 27.8051 15.3137 27.8164L15.2967 27.8334L15.2797 27.8504L15.2627 27.8674C15.2514 27.8844 15.2344 27.8957 15.223 27.9127C15.2174 27.9184 15.2117 27.924 15.2117 27.9297C15.2117 27.9354 15.2061 27.9354 15.2061 27.941C15.2004 27.9467 15.2004 27.9523 15.1947 27.958C15.1834 27.9693 15.1777 27.9863 15.1664 27.9977C15.1551 28.009 15.1494 28.026 15.1437 28.0373V28.0486L15.1268 28.0826C15.1211 28.0939 15.1154 28.1109 15.1041 28.1223L15.0871 28.1563C15.0814 28.1732 15.0758 28.1846 15.0701 28.2016C15.0645 28.2186 15.0588 28.2299 15.0531 28.2469C15.0531 28.2525 15.0475 28.2639 15.0475 28.2695C15.0475 28.2752 15.0475 28.2752 15.0418 28.2809C15.0418 28.2865 15.0361 28.2922 15.0361 28.2979C15.0305 28.3148 15.0248 28.3318 15.0248 28.3545C15.0248 28.3658 15.0191 28.3771 15.0191 28.3885C15.0191 28.3941 15.0191 28.3998 15.0135 28.4055V28.4225C15.0078 28.4564 15.0078 28.4848 15.0078 28.5131L15.0305 35.5648C15.0305 35.7121 15.0871 35.8197 15.1721 35.8707L16.0104 36.3578C15.9254 36.3068 15.8688 36.2049 15.8688 36.052L15.8461 29.0002C15.8461 28.9662 15.8518 28.9266 15.8574 28.8926C15.8574 28.8869 15.8574 28.8812 15.8631 28.8756C15.8688 28.8416 15.8744 28.8076 15.8857 28.7736C15.8857 28.768 15.8857 28.768 15.8914 28.7623C15.9027 28.7227 15.9141 28.6887 15.9311 28.649C15.948 28.6094 15.965 28.5754 15.9877 28.5357V28.5301L16.0557 28.4281C16.0557 28.4225 16.0613 28.4225 16.0613 28.4168L16.1293 28.3318L16.1463 28.3148C16.1633 28.2922 16.1859 28.2752 16.2086 28.2582C16.2199 28.2525 16.2256 28.2412 16.2369 28.2355C16.2652 28.2129 16.2936 28.1902 16.3275 28.1732L16.86 27.8674L16.0047 27.3916Z"
        fill="#2A2ABC" />
    <path
        d="M18.583 26.8761C18.8436 26.7231 19.0588 26.8477 19.0645 27.1479L19.0871 34.1997C19.0871 34.4999 18.8719 34.8737 18.6113 35.021L16.34 36.3294C16.0795 36.4823 15.8643 36.3577 15.8586 36.0575L15.8359 29.0057C15.8359 28.7056 16.0512 28.3317 16.3117 28.1845L16.8441 27.8786C16.8441 27.9069 16.8385 27.9352 16.8385 27.9636C16.8385 28.3487 17.1104 28.5016 17.4445 28.3091C17.7787 28.1165 18.0506 27.6464 18.0506 27.2612C18.0506 27.2329 18.0506 27.2102 18.0449 27.1819L18.583 26.8761Z"
        fill="#4040FF" />
    <path
        d="M17.3652 26.5703L17.892 26.8705L16.8555 27.8844L16.6289 27.7541L17.1443 26.5703H17.3652Z"
        fill="#ACC5EA" />
    <path
        d="M17.4498 26.9044C17.784 26.7119 18.0559 26.8648 18.0559 27.2499C18.0559 27.6351 17.784 28.1052 17.4498 28.2978C17.1156 28.4904 16.8438 28.3374 16.8438 27.9523C16.8438 27.5671 17.11 27.1027 17.4498 26.9044Z"
        fill="white" />
    <path
        d="M24.0506 20.4871C24.0619 20.4814 24.0732 20.4814 24.0846 20.4758C24.0902 20.4758 24.1016 20.4701 24.1072 20.4701C24.1129 20.4701 24.1186 20.4645 24.1242 20.4645C24.1355 20.4645 24.1412 20.4588 24.1469 20.4588H24.2035C24.2148 20.4588 24.2262 20.4588 24.2375 20.4645H24.2488C24.2602 20.4645 24.2658 20.4701 24.2771 20.4701C24.2771 20.4701 24.2828 20.4701 24.2828 20.4758L24.3168 20.4928L23.4785 20.0057C23.4729 20 23.4615 20 23.4559 19.9943H23.4502C23.4502 19.9943 23.4445 19.9943 23.4445 19.9887C23.4389 19.9887 23.4389 19.983 23.4332 19.983C23.4275 19.983 23.4219 19.983 23.4219 19.9773H23.4049C23.3936 19.9773 23.3879 19.9773 23.3766 19.9717H23.3029C23.2973 19.9717 23.2916 19.9717 23.2859 19.9773H23.2746C23.2689 19.9773 23.2689 19.9773 23.2633 19.983C23.252 19.9887 23.2406 19.9887 23.2293 19.9943C23.2236 19.9943 23.2236 19.9943 23.218 20C23.218 20 23.2123 20 23.2123 20.0057C23.1953 20.0113 23.1727 20.0227 23.1557 20.034L22.6289 20.3398L23.4672 20.827L23.9939 20.5211C24.0166 20.5098 24.0336 20.4984 24.0506 20.4928C24.0393 20.4928 24.0449 20.4871 24.0506 20.4871Z"
        fill="#2A2ABC" />
    <path
        d="M22.4086 21.9197L21.5703 21.4326H21.576L22.4086 21.9197C22.4143 21.9197 22.4143 21.9197 22.4086 21.9197Z"
        fill="#28289E" />
    <path
        d="M22.4125 21.9197L21.5742 21.4326C21.5855 21.4383 21.5969 21.4439 21.6025 21.4496L22.4408 21.9367C22.4352 21.9311 22.4238 21.9254 22.4125 21.9197Z"
        fill="#2929A3" />
    <path
        d="M22.4398 21.9368L21.6016 21.4497C21.6129 21.4554 21.6242 21.4554 21.6355 21.461L22.4738 21.9481C22.4625 21.9425 22.4512 21.9368 22.4398 21.9368Z"
        fill="#2A2AA8" />
    <path
        d="M22.475 21.948L21.6367 21.4609C21.648 21.4666 21.6594 21.4666 21.6707 21.4666L22.509 21.9537C22.4977 21.9537 22.4863 21.948 22.475 21.948Z"
        fill="#2C2CAD" />
    <path
        d="M22.5102 21.9539L21.6719 21.4668C21.6832 21.4668 21.6945 21.4725 21.7059 21.4725L22.5441 21.9596C22.5328 21.9596 22.5215 21.9539 22.5102 21.9539Z"
        fill="#2D2DB3" />
    <path d="M22.5492 21.9598L21.7109 21.4727H21.7506L22.5889 21.9598H22.5492Z" fill="#2E2EB8" />
    <path
        d="M22.5883 21.9596L21.75 21.4725C21.767 21.4725 21.7783 21.4725 21.7953 21.4668L22.6336 21.9539C22.6166 21.9539 22.5996 21.9596 22.5883 21.9596Z"
        fill="#2F2FBD" />
    <path
        d="M22.6352 21.954L21.7969 21.4669C21.8139 21.4669 21.8309 21.4612 21.8479 21.4556L22.6861 21.9427C22.6691 21.9483 22.6521 21.9483 22.6352 21.954Z"
        fill="#3131C2" />
    <path
        d="M22.6859 21.9424L21.8477 21.4553C21.8703 21.4496 21.893 21.4383 21.9213 21.4326L22.7596 21.9197C22.7312 21.9254 22.7086 21.9367 22.6859 21.9424Z"
        fill="#3232C7" />
    <path
        d="M22.7602 21.9197L21.9219 21.4326C21.9502 21.4213 21.9785 21.4043 22.0068 21.393C22.0805 21.3533 22.1484 21.2967 22.2107 21.2344L23.049 21.7215C22.9867 21.7838 22.9187 21.8348 22.8451 21.8801C22.8168 21.8914 22.7885 21.9084 22.7602 21.9197Z"
        fill="#3333CC" />
    <path
        d="M23.0414 21.7162L22.2031 21.2291L22.2711 21.1611L23.1094 21.6482C23.0867 21.6709 23.0641 21.6992 23.0414 21.7162Z"
        fill="#3232C7" />
    <path
        d="M23.1078 21.648L22.2695 21.1609C22.2865 21.1439 22.3035 21.1213 22.3205 21.0986L23.1588 21.5857C23.1418 21.6084 23.1248 21.6311 23.1078 21.648Z"
        fill="#3131C2" />
    <path
        d="M23.1586 21.5857L22.3203 21.0986C22.3316 21.0816 22.3486 21.0646 22.36 21.042L23.1982 21.5291C23.1869 21.5518 23.1699 21.5688 23.1586 21.5857Z"
        fill="#2F2FBD" />
    <path d="M23.2016 21.5347L22.3633 21.0476L22.3973 20.9966L23.2355 21.4837L23.2016 21.5347Z"
        fill="#2E2EB8" />
    <path d="M23.2328 21.4839L22.3945 20.9968L22.4285 20.9458L23.2668 21.4329L23.2328 21.4839Z"
        fill="#2D2DB3" />
    <path
        d="M23.268 21.4326L22.4297 20.9455C22.441 20.9285 22.4467 20.9115 22.458 20.8945L23.2963 21.3816C23.285 21.3986 23.2736 21.4156 23.268 21.4326Z"
        fill="#2C2CAD" />
    <path
        d="M23.2953 21.3818L22.457 20.8947C22.4684 20.8777 22.474 20.8607 22.4854 20.8438L23.3236 21.3309C23.3123 21.3422 23.301 21.3648 23.2953 21.3818Z"
        fill="#2A2AA8" />
    <path
        d="M23.3188 21.3252L22.4805 20.8381C22.4861 20.8211 22.4975 20.8041 22.5031 20.7871L23.3414 21.2742C23.3357 21.2912 23.3301 21.3082 23.3188 21.3252Z"
        fill="#2929A3" />
    <path
        d="M23.3422 21.2742L22.5039 20.7871C22.5096 20.7701 22.5209 20.7531 22.5266 20.7305L23.3648 21.2176C23.3592 21.2402 23.3535 21.2572 23.3422 21.2742Z"
        fill="#28289E" />
    <path
        d="M23.3656 21.2176L22.5273 20.7305C22.533 20.7135 22.5443 20.6908 22.55 20.6738L23.3883 21.1609C23.3826 21.1836 23.377 21.2006 23.3656 21.2176Z"
        fill="#262699" />
    <path
        d="M23.3852 21.1607L22.5469 20.6736C22.5525 20.651 22.5582 20.634 22.5639 20.6113L23.4021 21.0984C23.3965 21.1211 23.3908 21.1438 23.3852 21.1607Z"
        fill="#252594" />
    <path d="M23.4047 21.0985L22.5664 20.6114L22.5834 20.5435L23.4217 21.0306L23.4047 21.0985Z"
        fill="#24248F" />
    <path d="M23.4203 21.0306L22.582 20.5435L22.599 20.4585L23.4373 20.9456L23.4203 21.0306Z"
        fill="#23238A" />
    <path
        d="M23.4398 20.9459L22.6016 20.4588C22.6072 20.4191 22.6072 20.3795 22.6072 20.3398L23.4455 20.827C23.4455 20.8666 23.4455 20.9062 23.4398 20.9459Z"
        fill="#212185" />
    <path
        d="M21.3936 21.042L20.8668 21.3479C20.8385 21.3648 20.8045 21.3875 20.7762 21.4102C20.7648 21.4158 20.7592 21.4271 20.7479 21.4328C20.7365 21.4441 20.7195 21.4555 20.7082 21.4668C20.7025 21.4725 20.6969 21.4781 20.6912 21.4895L20.6742 21.5064L20.6572 21.5234C20.6459 21.5404 20.6289 21.5518 20.6176 21.5687C20.6119 21.5744 20.6062 21.5801 20.6062 21.5857C20.6062 21.5914 20.6006 21.5914 20.6006 21.5971C20.5949 21.6027 20.5949 21.6084 20.5893 21.6141C20.5779 21.6254 20.5723 21.6424 20.5609 21.6537C20.5496 21.665 20.5439 21.682 20.5383 21.6934V21.7047L20.5213 21.7387C20.5156 21.75 20.51 21.767 20.4986 21.7783L20.4816 21.8123C20.476 21.8293 20.4703 21.8406 20.4646 21.8576C20.459 21.8746 20.4533 21.8859 20.4477 21.9029C20.4477 21.9086 20.442 21.9199 20.442 21.9256C20.442 21.9313 20.442 21.9312 20.4363 21.9369C20.4363 21.9426 20.4307 21.9482 20.4307 21.9539C20.425 21.9709 20.4193 21.9879 20.4193 22.0105C20.4193 22.0219 20.4137 22.0332 20.4137 22.0445C20.4137 22.0502 20.4137 22.0559 20.408 22.0615V22.0785C20.4023 22.1125 20.4023 22.1408 20.4023 22.1691L20.4363 33.3953C20.4363 33.5426 20.4873 33.6502 20.5779 33.7012L21.4162 34.1883C21.3312 34.1373 21.2746 34.0354 21.2746 33.8824L21.2293 22.6563C21.2293 22.6223 21.235 22.5826 21.2406 22.5486C21.2406 22.543 21.2406 22.5373 21.2463 22.5316C21.252 22.4977 21.2576 22.4637 21.2689 22.4297C21.2689 22.424 21.2689 22.424 21.2746 22.4184C21.2859 22.3787 21.2973 22.3447 21.3143 22.3051C21.3312 22.2654 21.3482 22.2314 21.3709 22.1918V22.1861L21.4389 22.0842C21.4389 22.0785 21.4445 22.0785 21.4445 22.0729L21.5125 21.9879L21.5295 21.9709C21.5465 21.9482 21.5691 21.9312 21.5918 21.9143C21.6031 21.9086 21.6088 21.8973 21.6201 21.8916C21.6484 21.8689 21.6768 21.8463 21.7107 21.8293L22.2375 21.5234L21.3936 21.042Z"
        fill="#2A2ABC" />
    <path
        d="M23.9775 20.5211C24.2381 20.3681 24.4533 20.4928 24.459 20.793L24.493 32.0191C24.493 32.3193 24.2777 32.6931 24.0172 32.8404L21.7402 34.1545C21.4797 34.3074 21.2645 34.1828 21.2588 33.8826L21.2305 22.6564C21.2305 22.3562 21.4457 21.9824 21.7063 21.8351L22.233 21.5293C22.233 21.9144 22.5049 22.0674 22.8391 21.8748C23.1732 21.6822 23.4451 21.2121 23.4451 20.8269L23.9775 20.5211Z"
        fill="#4040FF" />
    <path d="M22.5777 20.3169L23.1215 20.6228L22.3342 21.5913L21.8867 21.3251L22.5777 20.3169Z"
        fill="#ACC5EA" />
    <path
        d="M22.8326 20.4645C23.1668 20.2719 23.4387 20.4248 23.4387 20.81C23.4387 21.1952 23.1668 21.6653 22.8326 21.8578C22.4984 22.0504 22.2266 21.8975 22.2266 21.5123C22.2322 21.1272 22.4984 20.6571 22.8326 20.4645Z"
        fill="white" />
    <path
        d="M22.4236 19.9376L22.3896 19.9206H22.384C22.3783 19.9206 22.3783 19.9206 22.3727 19.9149C22.367 19.9149 22.3613 19.9093 22.3557 19.9093C22.35 19.9093 22.3443 19.9093 22.3387 19.9036H22.3217C22.3104 19.9036 22.299 19.8979 22.2877 19.8979H22.2027C22.1971 19.8979 22.1914 19.8979 22.1857 19.9036C22.1801 19.9036 22.1688 19.9093 22.1631 19.9093C22.1574 19.9093 22.1518 19.9093 22.1518 19.9149C22.1461 19.9149 22.1404 19.9206 22.1404 19.9206C22.1291 19.9263 22.1121 19.9319 22.0951 19.9376C22.0895 19.9376 22.0838 19.9433 22.0781 19.9433C22.0781 19.9433 22.0725 19.9489 22.0668 19.9489C22.0441 19.9603 22.0158 19.9716 21.9932 19.9886C21.9592 20.0056 21.9309 20.0282 21.8969 20.0509C21.8912 20.0565 21.8855 20.0565 21.8799 20.0622C21.8516 20.0849 21.8232 20.1132 21.7949 20.1358L21.7893 20.1415L21.7779 20.1528C21.7666 20.1642 21.7496 20.1812 21.7383 20.1981L21.727 20.2095L21.7156 20.2208C21.71 20.2321 21.6986 20.2378 21.693 20.2491L21.676 20.2661C21.6703 20.2718 21.6703 20.2774 21.6646 20.2831C21.659 20.2888 21.6533 20.3001 21.6477 20.3058C21.642 20.3114 21.642 20.3171 21.6363 20.3228C21.6307 20.3341 21.625 20.3397 21.6193 20.3511C21.6137 20.3567 21.6137 20.3624 21.608 20.3681L21.6023 20.3737L21.5684 20.4247V20.4304C21.5684 20.436 21.5627 20.436 21.5627 20.4417C21.557 20.453 21.5514 20.4644 21.54 20.4757C21.5344 20.4813 21.5344 20.487 21.5287 20.4927C21.523 20.4983 21.523 20.504 21.5174 20.5097C21.5174 20.5153 21.5117 20.521 21.5117 20.5267C21.5061 20.5437 21.5004 20.555 21.4947 20.572C21.4947 20.572 21.4947 20.5776 21.4891 20.5776C21.4834 20.5946 21.4721 20.6116 21.4664 20.6343C21.4664 20.6399 21.4664 20.6399 21.4607 20.6456C21.4607 20.6513 21.4551 20.6569 21.4551 20.6683C21.4494 20.6796 21.4494 20.6853 21.4438 20.6966C21.4438 20.7022 21.4381 20.7136 21.4381 20.7192C21.4381 20.7249 21.4324 20.7362 21.4324 20.7419C21.4324 20.7476 21.4268 20.7532 21.4268 20.7589C21.4268 20.7702 21.4211 20.7759 21.4211 20.7872C21.4211 20.7985 21.4154 20.8099 21.4154 20.8155V20.8269C21.4154 20.8325 21.4154 20.8438 21.4098 20.8495C21.4041 20.8665 21.4041 20.8835 21.4041 20.9005V20.9231C21.3984 20.9571 21.3984 20.9968 21.3984 21.0308V21.0478L22.2367 21.5349V21.5179C22.2367 21.4839 22.2367 21.4499 22.2424 21.4103C22.2424 21.3989 22.2424 21.3933 22.248 21.3819C22.248 21.3649 22.2537 21.348 22.2537 21.331C22.2537 21.3196 22.2594 21.3083 22.2594 21.297C22.2594 21.2856 22.265 21.2743 22.265 21.2687C22.2707 21.2517 22.2707 21.2403 22.2764 21.2233C22.2764 21.2177 22.282 21.2063 22.282 21.2007L22.299 21.1497C22.299 21.144 22.3047 21.1384 22.3047 21.1271C22.3104 21.1044 22.3217 21.0817 22.333 21.0591C22.333 21.0591 22.333 21.0534 22.3387 21.0534C22.35 21.0364 22.3557 21.0138 22.367 20.9968C22.3727 20.9911 22.3727 20.9854 22.3783 20.9798C22.3896 20.9628 22.3953 20.9458 22.4066 20.9231C22.4066 20.9175 22.4123 20.9175 22.4123 20.9118C22.4236 20.8892 22.435 20.8722 22.452 20.8495C22.4576 20.8438 22.4576 20.8382 22.4633 20.8325C22.4746 20.8155 22.4859 20.8042 22.4916 20.7872C22.4973 20.7815 22.5029 20.7702 22.5086 20.7646C22.5199 20.7532 22.5256 20.7419 22.5369 20.7306C22.5426 20.7192 22.5539 20.7136 22.5596 20.7022C22.5652 20.6909 22.5766 20.6853 22.5822 20.6739C22.5936 20.6569 22.6105 20.6456 22.6219 20.6286L22.6445 20.606C22.6729 20.5776 22.7012 20.555 22.7295 20.5323C22.7352 20.5267 22.7408 20.5267 22.7465 20.521C22.7748 20.4983 22.8088 20.4757 22.8428 20.4587C22.8711 20.4417 22.8938 20.4304 22.9164 20.419C22.9221 20.4134 22.9334 20.4134 22.9391 20.4077C22.9561 20.4021 22.9674 20.3964 22.9844 20.3907C22.9957 20.3907 23.0014 20.3851 23.0127 20.3851C23.0184 20.3851 23.0297 20.3794 23.0354 20.3794C23.0467 20.3794 23.058 20.3737 23.0693 20.3737H23.1373C23.1543 20.3737 23.1656 20.3794 23.1826 20.3794H23.1939C23.2053 20.3794 23.2166 20.3851 23.2279 20.3907C23.2336 20.3907 23.2336 20.3907 23.2393 20.3964C23.2506 20.4021 23.2676 20.4077 23.2789 20.4134L22.4236 19.9376Z"
        fill="#ACC5EA" />
    <path
        d="M29.4547 20.8719C29.466 20.8662 29.4773 20.8662 29.4887 20.8605C29.4943 20.8605 29.5057 20.8549 29.5113 20.8549C29.517 20.8549 29.5227 20.8492 29.5283 20.8492C29.5396 20.8492 29.5453 20.8436 29.551 20.8436H29.602C29.6133 20.8436 29.6246 20.8436 29.6359 20.8492H29.6473C29.6586 20.8492 29.6643 20.8549 29.6756 20.8549C29.6756 20.8549 29.6813 20.8549 29.6813 20.8605L29.7152 20.8775L28.877 20.3904C28.8713 20.3848 28.86 20.3848 28.8543 20.3791H28.8486C28.8486 20.3791 28.843 20.3791 28.843 20.3734C28.8373 20.3734 28.8373 20.3678 28.8316 20.3678C28.826 20.3678 28.8203 20.3678 28.8203 20.3621H28.8033C28.792 20.3621 28.7863 20.3621 28.775 20.3564H28.7014C28.6957 20.3564 28.69 20.3564 28.6844 20.3621H28.673C28.6674 20.3621 28.6674 20.3621 28.6617 20.3678C28.6504 20.3734 28.6391 20.3734 28.6277 20.3791C28.6221 20.3791 28.6221 20.3791 28.6164 20.3848C28.6164 20.3848 28.6107 20.3848 28.6107 20.3904C28.5938 20.3961 28.5711 20.4074 28.5541 20.4188L28.0273 20.7246L28.8656 21.2117L29.3924 20.9059C29.415 20.8945 29.432 20.8832 29.449 20.8775C29.4434 20.8775 29.449 20.8775 29.4547 20.8719Z"
        fill="#2A2ABC" />
    <path d="M27.8109 22.305L26.9727 21.8179H26.9783L27.8109 22.305Z" fill="#28289E" />
    <path
        d="M27.8109 22.305L26.9727 21.8179C26.984 21.8235 26.9953 21.8292 27.001 21.8349L27.8393 22.322C27.8336 22.3163 27.8223 22.3106 27.8109 22.305Z"
        fill="#2929A3" />
    <path
        d="M27.8461 22.3221L27.0078 21.835C27.0191 21.8406 27.0305 21.8406 27.0418 21.8463L27.8801 22.3334C27.8631 22.3277 27.8574 22.3221 27.8461 22.3221Z"
        fill="#2A2AA8" />
    <path
        d="M27.8734 22.3333L27.0352 21.8462C27.0465 21.8519 27.0578 21.8519 27.0691 21.8519L27.9074 22.339C27.8961 22.339 27.8848 22.3333 27.8734 22.3333Z"
        fill="#2C2CAD" />
    <path
        d="M27.9086 22.3392L27.0703 21.8521C27.0816 21.8521 27.093 21.8577 27.1043 21.8577L27.9426 22.3448C27.9369 22.3448 27.9199 22.3392 27.9086 22.3392Z"
        fill="#2D2DB3" />
    <path d="M27.9477 22.3445L27.1094 21.8574H27.149L27.9873 22.3445H27.9477Z" fill="#2E2EB8" />
    <path
        d="M27.9867 22.3448L27.1484 21.8577C27.1654 21.8577 27.1768 21.8577 27.1938 21.8521L28.032 22.3392C28.015 22.3392 28.0037 22.3448 27.9867 22.3448Z"
        fill="#2F2FBD" />
    <path
        d="M28.0297 22.3393L27.1914 21.8521C27.2084 21.8521 27.2254 21.8465 27.2424 21.8408L28.0807 22.3279C28.0637 22.3336 28.0467 22.3393 28.0297 22.3393Z"
        fill="#3131C2" />
    <path
        d="M28.0805 22.3276L27.2422 21.8405C27.2648 21.8349 27.2875 21.8235 27.3158 21.8179L28.1541 22.305C28.1314 22.3106 28.1031 22.322 28.0805 22.3276Z"
        fill="#3232C7" />
    <path
        d="M28.1547 22.305L27.3164 21.8179C27.3447 21.8065 27.373 21.7896 27.4014 21.7782C27.475 21.7386 27.543 21.6819 27.6053 21.6196L28.4436 22.1067C28.3813 22.169 28.3133 22.22 28.2396 22.2653C28.2113 22.2767 28.183 22.2937 28.1547 22.305Z"
        fill="#3333CC" />
    <path
        d="M28.4438 22.101L27.6055 21.6139L27.6734 21.5459L28.5117 22.033C28.4891 22.0557 28.4664 22.084 28.4438 22.101Z"
        fill="#3232C7" />
    <path
        d="M28.5062 22.0333L27.668 21.5462C27.685 21.5292 27.702 21.5065 27.7189 21.4839L28.5572 21.971C28.5402 21.9937 28.5232 22.0163 28.5062 22.0333Z"
        fill="#3131C2" />
    <path
        d="M28.557 21.971L27.7188 21.4839C27.7301 21.4669 27.7471 21.4499 27.7584 21.4272L28.5967 21.9144C28.5854 21.937 28.574 21.954 28.557 21.971Z"
        fill="#2F2FBD" />
    <path d="M28.5961 21.9199L27.7578 21.4328L27.7918 21.3818L28.6301 21.8689L28.5961 21.9199Z"
        fill="#2E2EB8" />
    <path d="M28.6312 21.8691L27.793 21.382L27.827 21.3311L28.6652 21.8182L28.6312 21.8691Z"
        fill="#2D2DB3" />
    <path
        d="M28.6664 21.8125L27.8281 21.3254C27.8395 21.3084 27.8451 21.2914 27.8564 21.2744L28.6947 21.7615C28.6834 21.7785 28.6777 21.7955 28.6664 21.8125Z"
        fill="#2C2CAD" />
    <path
        d="M28.6938 21.7612L27.8555 21.2741C27.8668 21.2571 27.8725 21.2401 27.8838 21.2231L28.7221 21.7103C28.7107 21.7272 28.7051 21.7442 28.6938 21.7612Z"
        fill="#2A2AA8" />
    <path
        d="M28.7211 21.7104L27.8828 21.2233C27.8885 21.2063 27.8998 21.1894 27.9055 21.1724L28.7438 21.6595C28.7381 21.6765 28.7268 21.6935 28.7211 21.7104Z"
        fill="#2929A3" />
    <path
        d="M28.7445 21.6595L27.9062 21.1724C27.9119 21.1554 27.9232 21.1384 27.9289 21.1157L28.7672 21.6028C28.7615 21.6255 28.7502 21.6425 28.7445 21.6595Z"
        fill="#28289E" />
    <path
        d="M28.768 21.6028L27.9297 21.1157C27.9354 21.0987 27.941 21.0761 27.9523 21.0591L28.7906 21.5462C28.7793 21.5688 28.7736 21.5858 28.768 21.6028Z"
        fill="#262699" />
    <path
        d="M28.7836 21.546L27.9453 21.0589C27.951 21.0362 27.9566 21.0192 27.9623 20.9966L28.8006 21.4837C28.8006 21.5063 28.7949 21.529 28.7836 21.546Z"
        fill="#252594" />
    <path d="M28.807 21.4838L27.9688 20.9967L27.9857 20.9287L28.824 21.4158L28.807 21.4838Z"
        fill="#24248F" />
    <path d="M28.8227 21.4158L27.9844 20.9287L28.0014 20.8438L28.8396 21.3309L28.8227 21.4158Z"
        fill="#23238A" />
    <path
        d="M28.8344 21.3307L27.9961 20.8436C28.0018 20.8039 28.0018 20.7643 28.0018 20.7246L28.84 21.2117C28.8457 21.2514 28.84 21.291 28.8344 21.3307Z"
        fill="#212185" />
    <path
        d="M25.9537 31.1751L26.792 31.6622C26.707 31.6112 26.6504 31.5093 26.6504 31.3563L25.8121 30.8692C25.8178 31.0222 25.8688 31.1298 25.9537 31.1751ZM26.792 21.4272L26.2652 21.7331C26.2369 21.7501 26.2029 21.7728 26.1746 21.7954C26.1633 21.8011 26.1576 21.8124 26.1463 21.8181C26.135 21.8294 26.118 21.8407 26.1066 21.8521C26.101 21.8577 26.0953 21.8634 26.0896 21.8747L26.0727 21.8917L26.0557 21.9087C26.0443 21.9257 26.0273 21.937 26.016 21.954C26.0104 21.9597 26.0047 21.9653 26.0047 21.971C26.0047 21.9767 25.999 21.9767 25.999 21.9823C25.9934 21.988 25.9934 21.9937 25.9877 21.9993C25.9764 22.0106 25.9707 22.0276 25.9594 22.039C25.948 22.0503 25.9424 22.0673 25.9367 22.0786V22.0899L25.9197 22.1239C25.9141 22.1353 25.9084 22.1522 25.8971 22.1636C25.8914 22.1749 25.8857 22.1862 25.8801 22.2032C25.8744 22.2202 25.8688 22.2315 25.8631 22.2485C25.8574 22.2655 25.8518 22.2769 25.8461 22.2938C25.8461 22.2995 25.8404 22.3108 25.8404 22.3165C25.8404 22.3222 25.8404 22.3222 25.8348 22.3278C25.8348 22.3335 25.8291 22.3392 25.8291 22.3448C25.8234 22.3618 25.8178 22.3788 25.8178 22.4015C25.8178 22.4128 25.8121 22.4241 25.8121 22.4355C25.8121 22.4411 25.8121 22.4468 25.8064 22.4524V22.4694C25.8008 22.5034 25.8008 22.5317 25.8008 22.5601L25.8234 30.8749L26.6617 31.362L26.6391 23.0472C26.6391 23.0132 26.6447 22.9735 26.6504 22.9396C26.6504 22.9339 26.6504 22.9282 26.6561 22.9226C26.6617 22.8886 26.6674 22.8546 26.6787 22.8206C26.6787 22.8149 26.6787 22.8149 26.6844 22.8093C26.6957 22.7696 26.707 22.7356 26.724 22.696C26.741 22.6563 26.758 22.6224 26.7807 22.5827V22.5771L26.8486 22.4751C26.8486 22.4694 26.8543 22.4694 26.8543 22.4638L26.9223 22.3788L26.9393 22.3618C26.9563 22.3392 26.9789 22.3222 27.0016 22.3052C27.0129 22.2995 27.0186 22.2882 27.0299 22.2825C27.0582 22.2599 27.0865 22.2372 27.1205 22.2202L27.6473 21.9144L26.792 21.4272Z"
        fill="#2A2ABC" />
    <path
        d="M29.3742 20.9117C29.6348 20.7588 29.85 20.8834 29.85 21.1836L29.8727 29.4984C29.8727 29.7986 29.6574 30.1724 29.3969 30.3197L27.1312 31.6338C26.8707 31.7867 26.6555 31.6621 26.6555 31.3619L26.6328 23.0471C26.6328 22.7469 26.848 22.373 27.1086 22.2258L27.6354 21.9199C27.6354 22.3051 27.9072 22.458 28.2414 22.2654C28.5756 22.0728 28.8475 21.6027 28.8475 21.2176L29.3742 20.9117Z"
        fill="#4040FF" />
    <path
        d="M28.2428 20.8663C28.577 20.6738 28.8488 20.8267 28.8488 21.2119C28.8488 21.597 28.577 22.0671 28.2428 22.2597C27.9086 22.4523 27.6367 22.2994 27.6367 21.9142C27.6367 21.529 27.9086 21.0589 28.2428 20.8663Z"
        fill="white" />
    <path
        d="M27.8316 20.3395L27.7977 20.3225H27.792C27.7863 20.3225 27.7863 20.3225 27.7807 20.3168C27.775 20.3168 27.7693 20.3111 27.7637 20.3111C27.758 20.3111 27.7523 20.3111 27.7467 20.3055H27.7297C27.7184 20.3055 27.707 20.2998 27.6957 20.2998H27.6107C27.6051 20.2998 27.5994 20.2998 27.5938 20.3055C27.5881 20.3055 27.5768 20.3111 27.5711 20.3111C27.5654 20.3111 27.5598 20.3111 27.5598 20.3168C27.5541 20.3168 27.5484 20.3225 27.5484 20.3225C27.5371 20.3281 27.5201 20.3338 27.5031 20.3395C27.4975 20.3395 27.4918 20.3451 27.4861 20.3451C27.4861 20.3451 27.4805 20.3508 27.4748 20.3508C27.4521 20.3621 27.4238 20.3734 27.4012 20.3904C27.3672 20.4074 27.3389 20.4301 27.3049 20.4527C27.2992 20.4584 27.2936 20.4584 27.2879 20.4641C27.2596 20.4867 27.2312 20.515 27.2029 20.5377L27.1973 20.5434L27.1859 20.5547C27.1746 20.566 27.1576 20.583 27.1463 20.6C27.1406 20.6057 27.1406 20.6113 27.135 20.6113L27.1236 20.6227C27.118 20.634 27.1066 20.6396 27.101 20.651L27.084 20.668C27.0783 20.6736 27.0783 20.6793 27.0727 20.685C27.067 20.6906 27.0613 20.702 27.0557 20.7076C27.05 20.7133 27.05 20.7189 27.0443 20.7246C27.0387 20.7359 27.033 20.7416 27.0273 20.7529C27.0217 20.7586 27.0217 20.7643 27.016 20.7699L27.0104 20.7756L26.9764 20.8266V20.8322C26.9764 20.8379 26.9707 20.8379 26.9707 20.8436C26.965 20.8549 26.9594 20.8662 26.948 20.8832C26.9424 20.8889 26.9424 20.8945 26.9367 20.9002C26.9311 20.9059 26.9311 20.9115 26.9254 20.9172C26.9254 20.9229 26.9197 20.9285 26.9197 20.9342C26.9141 20.9512 26.9084 20.9625 26.8971 20.9795C26.8971 20.9795 26.8971 20.9852 26.8914 20.9852C26.8857 21.0021 26.8744 21.0191 26.8687 21.0418C26.8687 21.0475 26.8687 21.0475 26.8631 21.0531C26.8631 21.0588 26.8574 21.0645 26.8574 21.0758C26.8518 21.0871 26.8518 21.0928 26.8461 21.1041C26.8461 21.1098 26.8404 21.1154 26.8404 21.1268C26.8404 21.1324 26.8348 21.1438 26.8348 21.1494C26.8348 21.1551 26.8348 21.1607 26.8291 21.1664C26.8291 21.1777 26.8234 21.1834 26.8234 21.1947C26.8234 21.2061 26.8178 21.2174 26.8178 21.223V21.2344C26.8178 21.24 26.8121 21.2514 26.8121 21.257C26.8064 21.274 26.8064 21.291 26.8064 21.308V21.3307C26.8008 21.3646 26.8008 21.4043 26.8008 21.4383V21.4496L27.6391 21.9254C27.6391 21.8914 27.6391 21.8574 27.6447 21.8234V21.8008C27.6447 21.7838 27.6504 21.7668 27.6504 21.7498C27.6504 21.7441 27.6504 21.7328 27.6561 21.7271V21.7158C27.6561 21.7045 27.6617 21.6932 27.6617 21.6875C27.6617 21.6762 27.6674 21.6705 27.6674 21.6592C27.6674 21.6535 27.673 21.6479 27.673 21.6422C27.673 21.6365 27.6787 21.6252 27.6787 21.6195C27.6787 21.6139 27.6844 21.6025 27.6844 21.5969C27.69 21.5855 27.69 21.5799 27.6957 21.5686C27.6957 21.5629 27.7014 21.5572 27.7014 21.5459C27.7014 21.5402 27.7014 21.5402 27.707 21.5346C27.7127 21.5176 27.724 21.5006 27.7297 21.4779C27.7297 21.4779 27.7297 21.4723 27.7354 21.4723C27.741 21.4553 27.7467 21.4439 27.7523 21.427C27.7523 21.4213 27.758 21.4156 27.758 21.41C27.7637 21.4043 27.7637 21.3986 27.7693 21.393C27.775 21.3873 27.775 21.3816 27.7807 21.376C27.7863 21.3646 27.792 21.3533 27.8033 21.3363C27.8033 21.3307 27.809 21.3307 27.809 21.325V21.3193L27.843 21.2684L27.8486 21.2627C27.8543 21.257 27.8543 21.2514 27.86 21.2457C27.8656 21.2344 27.8713 21.2287 27.877 21.2174C27.8826 21.2117 27.8826 21.2061 27.8883 21.2004C27.8939 21.1947 27.8996 21.1834 27.9053 21.1777C27.9109 21.1721 27.9109 21.1664 27.9166 21.1607L27.9336 21.1437C27.9393 21.1324 27.9506 21.1268 27.9562 21.1154L27.9676 21.1041L27.9789 21.0928C27.9902 21.0758 28.0072 21.0645 28.0186 21.0475C28.0242 21.0418 28.0242 21.0361 28.0299 21.0361L28.0355 21.0305C28.0639 21.0021 28.0922 20.9795 28.1205 20.9568C28.1262 20.9512 28.1318 20.9512 28.1375 20.9455C28.1658 20.9229 28.1998 20.9002 28.2338 20.8832C28.2621 20.8662 28.2848 20.8549 28.3074 20.8436C28.3131 20.8379 28.3244 20.8379 28.3301 20.8322C28.3471 20.8266 28.3584 20.8209 28.3754 20.8152C28.3867 20.8152 28.3924 20.8096 28.4037 20.8096C28.4094 20.8096 28.4207 20.8039 28.4264 20.8039C28.4377 20.8039 28.449 20.7982 28.4604 20.7982H28.5283C28.5453 20.7982 28.5566 20.8039 28.5736 20.8039H28.585C28.5963 20.8039 28.6076 20.8096 28.6189 20.8152C28.6246 20.8152 28.6246 20.8152 28.6303 20.8209C28.6416 20.8266 28.6586 20.8322 28.6699 20.8379L27.8316 20.3395Z"
        fill="#ACC5EA" />
    <path
        d="M34.8357 10.7166C34.8471 10.7109 34.8584 10.7109 34.8697 10.7053C34.8754 10.7053 34.8867 10.6996 34.8924 10.6996C34.898 10.6996 34.9037 10.6939 34.9094 10.6939C34.9207 10.6939 34.9264 10.6883 34.932 10.6883H34.9887C35 10.6883 35.0113 10.6883 35.0227 10.6939H35.034C35.0453 10.6939 35.051 10.6996 35.0623 10.6996C35.0623 10.6996 35.068 10.6996 35.068 10.7053L35.102 10.7223L34.2637 10.2352C34.258 10.2295 34.2467 10.2295 34.241 10.2238H34.2354C34.2354 10.2238 34.2297 10.2238 34.2297 10.2182C34.224 10.2182 34.224 10.2125 34.2184 10.2125C34.2127 10.2125 34.207 10.2125 34.207 10.2068H34.19C34.1787 10.2068 34.173 10.2068 34.1617 10.2012H34.0881C34.0824 10.2012 34.0768 10.2012 34.0711 10.2068H34.0598C34.0541 10.2068 34.0541 10.2068 34.0484 10.2125C34.0371 10.2182 34.0258 10.2182 34.0145 10.2238C34.0088 10.2238 34.0088 10.2238 34.0031 10.2295C34.0031 10.2295 33.9975 10.2295 33.9975 10.2352C33.9805 10.2408 33.9578 10.2521 33.9408 10.2635L33.4141 10.5693L34.2523 11.0564L34.7791 10.7506C34.8018 10.7393 34.8187 10.7279 34.8357 10.7223C34.8244 10.7223 34.8301 10.7166 34.8357 10.7166Z"
        fill="#2A2ABC" />
    <path
        d="M33.1898 12.1492L32.3516 11.6621H32.3572L33.1898 12.1492C33.1955 12.1492 33.1955 12.1492 33.1898 12.1492Z"
        fill="#28289E" />
    <path
        d="M33.1977 12.1492L32.3594 11.6621C32.3707 11.6678 32.382 11.6734 32.3877 11.6791L33.226 12.1662C33.2146 12.1605 33.209 12.1549 33.1977 12.1492Z"
        fill="#2929A3" />
    <path
        d="M33.225 12.1663L32.3867 11.6792C32.398 11.6849 32.4094 11.6849 32.4207 11.6905L33.259 12.1776C33.2477 12.172 33.2363 12.1663 33.225 12.1663Z"
        fill="#2A2AA8" />
    <path
        d="M33.2602 12.1775L32.4219 11.6904C32.4332 11.6961 32.4445 11.6961 32.4559 11.6961L33.2941 12.1832C33.2828 12.1832 33.2715 12.1775 33.2602 12.1775Z"
        fill="#2C2CAD" />
    <path
        d="M33.2914 12.1834L32.4531 11.6963C32.4645 11.6963 32.4758 11.702 32.4871 11.702L33.3254 12.1891C33.3141 12.1891 33.3027 12.1834 33.2914 12.1834Z"
        fill="#2D2DB3" />
    <path d="M33.3266 12.1893L32.4883 11.7021H32.5279L33.3662 12.1893H33.3266Z" fill="#2E2EB8" />
    <path
        d="M33.3734 12.1891L32.5352 11.702C32.5521 11.702 32.5635 11.702 32.5805 11.6963L33.4187 12.1834C33.4018 12.1834 33.3848 12.1891 33.3734 12.1891Z"
        fill="#2F2FBD" />
    <path
        d="M33.4164 12.1835L32.5781 11.6964C32.5951 11.6964 32.6121 11.6907 32.6291 11.6851L33.4674 12.1722C33.4504 12.1778 33.4334 12.1835 33.4164 12.1835Z"
        fill="#3131C2" />
    <path
        d="M33.4672 12.1719L32.6289 11.6848C32.6516 11.6791 32.6742 11.6678 32.7025 11.6621L33.5408 12.1492C33.5125 12.1605 33.4898 12.1662 33.4672 12.1719Z"
        fill="#3232C7" />
    <path
        d="M33.5414 12.1492L32.7031 11.6621C32.7314 11.6508 32.7598 11.6338 32.7881 11.6225C32.8617 11.5828 32.9297 11.5262 32.992 11.4639L33.8303 11.951C33.768 12.0133 33.7 12.0643 33.6264 12.1096C33.5924 12.1209 33.5641 12.1379 33.5414 12.1492Z"
        fill="#3333CC" />
    <path d="M33.8266 11.9511L32.9883 11.464L33.0562 11.396L33.8945 11.8831L33.8266 11.9511Z"
        fill="#3232C7" />
    <path
        d="M33.893 11.8775L33.0547 11.3904C33.0717 11.3734 33.0887 11.3508 33.1057 11.3281L33.9439 11.8152C33.927 11.8379 33.91 11.8605 33.893 11.8775Z"
        fill="#3131C2" />
    <path
        d="M33.9437 11.8211L33.1055 11.334C33.1168 11.317 33.1338 11.3 33.1451 11.2773L33.9834 11.7645C33.9664 11.7814 33.9551 11.7984 33.9437 11.8211Z"
        fill="#2F2FBD" />
    <path d="M33.9828 11.7642L33.1445 11.2771L33.1785 11.2261L34.0168 11.7132L33.9828 11.7642Z"
        fill="#2E2EB8" />
    <path d="M34.018 11.7134L33.1797 11.2263L33.2137 11.1753L34.052 11.6624L34.018 11.7134Z"
        fill="#2D2DB3" />
    <path
        d="M34.0453 11.6621L33.207 11.175C33.2184 11.158 33.224 11.141 33.2354 11.124L34.0736 11.6111C34.068 11.6281 34.0566 11.6451 34.0453 11.6621Z"
        fill="#2C2CAD" />
    <path
        d="M34.0766 11.6113L33.2383 11.1242C33.2496 11.1072 33.2553 11.0902 33.2666 11.0732L34.1049 11.5604C34.0992 11.5773 34.0879 11.5943 34.0766 11.6113Z"
        fill="#2A2AA8" />
    <path
        d="M34.1039 11.5605L33.2656 11.0734C33.2713 11.0564 33.2826 11.0395 33.2883 11.0225L34.1266 11.5096C34.1209 11.5209 34.1152 11.5379 34.1039 11.5605Z"
        fill="#2929A3" />
    <path
        d="M34.1273 11.5037L33.2891 11.0166C33.2947 10.9996 33.3061 10.9826 33.3117 10.96L34.15 11.4471C34.1443 11.4697 34.1387 11.4867 34.1273 11.5037Z"
        fill="#28289E" />
    <path
        d="M34.1469 11.4529L33.3086 10.9658C33.3143 10.9488 33.3256 10.9262 33.3313 10.9092L34.1695 11.3963C34.1639 11.4133 34.1582 11.4303 34.1469 11.4529Z"
        fill="#262699" />
    <path
        d="M34.1703 11.3902L33.332 10.9031C33.3377 10.8805 33.3434 10.8635 33.349 10.8408L34.1873 11.3279C34.1816 11.3506 34.176 11.3732 34.1703 11.3902Z"
        fill="#252594" />
    <path
        d="M34.1898 11.3339L33.3516 10.8468L33.3686 10.7788L34.2068 11.2659C34.2012 11.2829 34.1955 11.3056 34.1898 11.3339Z"
        fill="#24248F" />
    <path d="M34.2055 11.2601L33.3672 10.7729L33.3842 10.688L34.2225 11.1751L34.2055 11.2601Z"
        fill="#23238A" />
    <path
        d="M34.2211 11.1754L33.3828 10.6883C33.3885 10.6486 33.3885 10.609 33.3885 10.5693L34.2268 11.0564C34.2268 11.0961 34.2268 11.1357 34.2211 11.1754Z"
        fill="#212185" />
    <path
        d="M31.3604 28.1901L32.1986 28.6772C32.1137 28.6263 32.057 28.5243 32.057 28.3714L31.2188 27.8843C31.2188 28.0372 31.2754 28.1448 31.3604 28.1901Z"
        fill="#2A2ABC" />
    <path
        d="M32.1826 11.2715L31.6559 11.5773C31.6275 11.5943 31.5936 11.617 31.5652 11.6396C31.5539 11.6453 31.5482 11.6566 31.5369 11.6623C31.5256 11.6736 31.5086 11.685 31.4973 11.6963L31.4803 11.7133L31.4633 11.7303L31.4463 11.7473C31.435 11.7643 31.418 11.7756 31.4066 11.7926C31.401 11.7982 31.3953 11.8039 31.3953 11.8096C31.3953 11.8152 31.3896 11.8152 31.3896 11.8209C31.384 11.8266 31.384 11.8322 31.3783 11.8379C31.367 11.8492 31.3613 11.8662 31.35 11.8775C31.3387 11.8889 31.333 11.9059 31.3273 11.9172V11.9285L31.3104 11.9625C31.3047 11.9738 31.299 11.9908 31.2877 12.0021L31.2707 12.0361C31.265 12.0531 31.2594 12.0645 31.2537 12.0814C31.248 12.0984 31.2424 12.1098 31.2367 12.1268C31.2367 12.1324 31.2311 12.1438 31.2311 12.1494C31.2311 12.1551 31.2311 12.1551 31.2254 12.1607C31.2254 12.1664 31.2197 12.1721 31.2197 12.1777C31.2141 12.1947 31.2084 12.2117 31.2084 12.2344C31.2084 12.2457 31.2027 12.257 31.2027 12.2684C31.2027 12.274 31.2027 12.2797 31.1971 12.2854V12.3023C31.1914 12.3363 31.1914 12.3646 31.1914 12.393L31.2367 27.8785L32.058 28.377L32.0127 12.8914C32.0127 12.8574 32.0184 12.8178 32.024 12.7838C32.024 12.7781 32.024 12.7725 32.0297 12.7668C32.0354 12.7328 32.041 12.6988 32.0523 12.6648C32.0523 12.6592 32.0523 12.6592 32.058 12.6535C32.0693 12.6139 32.0807 12.5799 32.0977 12.5402C32.1146 12.5006 32.1316 12.4666 32.1543 12.427V12.4213L32.2223 12.3193C32.2223 12.3137 32.2279 12.3137 32.2279 12.308L32.2959 12.223L32.3129 12.2061C32.3299 12.1834 32.3525 12.1664 32.3752 12.1494C32.3865 12.1438 32.3922 12.1324 32.4035 12.1268C32.4318 12.1041 32.4602 12.0814 32.4941 12.0645L33.0209 11.7586L32.1826 11.2715Z"
        fill="#2A2ABC" />
    <path
        d="M34.7549 10.7559C35.0154 10.603 35.2307 10.7276 35.2363 11.0278L35.2816 26.5134C35.2816 26.8136 35.0664 27.1874 34.8059 27.3347L32.5346 28.6431C32.274 28.796 32.0588 28.6714 32.0531 28.3712L32.0078 12.8856C32.0078 12.5854 32.223 12.2116 32.4836 12.0643L33.0104 11.7585C33.0104 12.1436 33.2822 12.2966 33.6164 12.104C33.9506 11.9114 34.2225 11.4413 34.2225 11.0561L34.7549 10.7559Z"
        fill="#4040FF" />
    <path
        d="M33.6295 10.7106C33.9637 10.518 34.2355 10.6709 34.2355 11.0561C34.2355 11.4412 33.9637 11.9114 33.6295 12.1039C33.2953 12.2965 33.0234 12.1436 33.0234 11.7584C33.0234 11.3733 33.2953 10.9032 33.6295 10.7106Z"
        fill="white" />
    <path
        d="M33.2184 10.1842L33.1844 10.1672H33.1787C33.173 10.1672 33.173 10.1672 33.1674 10.1615C33.1617 10.1615 33.1561 10.1559 33.1504 10.1559C33.1447 10.1559 33.1391 10.1559 33.1334 10.1502H33.1164C33.1051 10.1502 33.0937 10.1445 33.0824 10.1445H32.9975C32.9918 10.1445 32.9861 10.1445 32.9805 10.1502C32.9748 10.1502 32.9635 10.1559 32.9578 10.1559C32.9522 10.1559 32.9465 10.1559 32.9465 10.1615C32.9408 10.1615 32.9352 10.1672 32.9352 10.1672C32.9238 10.1729 32.9068 10.1785 32.8898 10.1842C32.8842 10.1842 32.8785 10.1898 32.8729 10.1898C32.8672 10.1898 32.8672 10.1955 32.8615 10.1955C32.8389 10.2068 32.8105 10.2182 32.7879 10.2352C32.7539 10.2521 32.7256 10.2748 32.6916 10.2975C32.6859 10.3031 32.6803 10.3031 32.6746 10.3088C32.6463 10.3314 32.618 10.3598 32.5897 10.3824L32.584 10.3881L32.5727 10.3994C32.5613 10.4107 32.5443 10.4277 32.533 10.4447C32.5273 10.4504 32.5273 10.4561 32.5217 10.4561L32.5104 10.4674C32.5047 10.4787 32.4934 10.4844 32.4877 10.4957L32.4707 10.5127C32.465 10.5184 32.465 10.524 32.4594 10.5297C32.4537 10.5354 32.448 10.5467 32.4424 10.5523C32.4367 10.558 32.4367 10.5637 32.4311 10.5693C32.4254 10.5807 32.4197 10.5863 32.4141 10.5977C32.4084 10.6033 32.4084 10.609 32.4027 10.6146L32.3971 10.6203L32.3631 10.6713V10.677C32.3631 10.6826 32.3574 10.6826 32.3574 10.6883C32.3518 10.6996 32.3461 10.7109 32.3348 10.7279C32.3291 10.7336 32.3291 10.7393 32.3234 10.7449C32.3178 10.7506 32.3178 10.7562 32.3121 10.7619C32.3121 10.7676 32.3064 10.7732 32.3064 10.7789C32.3008 10.7959 32.2951 10.8072 32.2838 10.8242C32.2838 10.8242 32.2838 10.8299 32.2781 10.8299C32.2725 10.8469 32.2611 10.8639 32.2555 10.8865C32.2555 10.8922 32.2555 10.8922 32.2498 10.8979C32.2498 10.9035 32.2441 10.9092 32.2441 10.9148C32.2385 10.9262 32.2385 10.9318 32.2328 10.9432C32.2328 10.9488 32.2271 10.9545 32.2271 10.9658C32.2271 10.9715 32.2215 10.9828 32.2215 10.9885C32.2215 10.9941 32.2215 10.9998 32.2158 11.0055C32.2158 11.0168 32.2102 11.0225 32.2102 11.0338C32.2102 11.0451 32.2045 11.0564 32.2045 11.0621V11.0734C32.2045 11.0791 32.1988 11.0904 32.1988 11.0961C32.1932 11.1131 32.1932 11.1301 32.1932 11.1471V11.1697C32.1875 11.2037 32.1875 11.2377 32.1875 11.2717L33.0258 11.7701V11.7645C33.0258 11.7305 33.0258 11.6965 33.0314 11.6568V11.6342C33.0314 11.6172 33.0371 11.6002 33.0371 11.5832C33.0371 11.5775 33.0371 11.5662 33.0428 11.5605V11.5492C33.0428 11.5379 33.0484 11.5266 33.0484 11.5209C33.0484 11.5096 33.0541 11.5039 33.0541 11.4926C33.0541 11.4869 33.0598 11.4813 33.0598 11.4756C33.0598 11.4699 33.0654 11.4586 33.0654 11.4529C33.0654 11.4473 33.0711 11.4359 33.0711 11.4303C33.0768 11.4189 33.0768 11.4133 33.0824 11.402C33.0824 11.3963 33.0881 11.3906 33.0881 11.385C33.0881 11.3793 33.0881 11.3793 33.0938 11.3736C33.0994 11.3566 33.1107 11.3396 33.1164 11.317C33.1164 11.317 33.1164 11.3113 33.1221 11.3113C33.1277 11.2943 33.1334 11.283 33.1391 11.266C33.1391 11.2604 33.1447 11.2547 33.1447 11.249C33.1504 11.2434 33.1504 11.2377 33.1561 11.232C33.1617 11.2264 33.1617 11.2207 33.1674 11.215C33.173 11.2037 33.1787 11.1924 33.19 11.1754C33.19 11.1697 33.1957 11.1697 33.1957 11.1641V11.1584L33.2297 11.1074L33.2354 11.1018C33.241 11.0961 33.241 11.0904 33.2467 11.0848C33.2523 11.0734 33.258 11.0678 33.2637 11.0564C33.2693 11.0508 33.2693 11.0451 33.275 11.0395C33.2807 11.0338 33.2863 11.0225 33.292 11.0168C33.2977 11.0111 33.2977 11.0055 33.3033 10.9998L33.3203 10.9828C33.326 10.9715 33.3373 10.9658 33.343 10.9545L33.3543 10.9432L33.3656 10.9318C33.377 10.9148 33.3939 10.9035 33.4053 10.8865L33.4166 10.8752L33.4223 10.8695C33.4506 10.8412 33.4789 10.8186 33.5072 10.7959C33.5129 10.7902 33.5186 10.7902 33.5242 10.7846C33.5525 10.7619 33.5865 10.7393 33.6205 10.7223C33.6488 10.7053 33.6715 10.6939 33.6941 10.6826C33.6998 10.677 33.7111 10.677 33.7168 10.6713C33.7338 10.6656 33.7451 10.66 33.7621 10.6543C33.7734 10.6543 33.7791 10.6486 33.7904 10.6486C33.7961 10.6486 33.8074 10.643 33.8131 10.643C33.8244 10.643 33.8357 10.6373 33.8471 10.6373H33.915C33.932 10.6373 33.9434 10.643 33.9604 10.643H33.9717C33.983 10.643 33.9943 10.6486 34.0057 10.6543C34.0113 10.6543 34.0113 10.6543 34.017 10.66C34.0283 10.6656 34.0453 10.6713 34.0566 10.677L33.2184 10.1842Z"
        fill="#ACC5EA" />
    <path
        d="M40.7377 24.5988C40.732 24.5988 40.732 24.5988 40.7377 24.5988C40.7207 24.5875 40.7094 24.5818 40.6924 24.5762H40.6867C40.6811 24.5762 40.6754 24.5705 40.6754 24.5705C40.6697 24.5705 40.6641 24.5648 40.6527 24.5648C40.6471 24.5648 40.6357 24.5592 40.6301 24.5592C40.6244 24.5592 40.6187 24.5592 40.6187 24.5535H40.6131C40.5961 24.5535 40.5848 24.5479 40.5678 24.5479H40.4602C40.4545 24.5479 40.4488 24.5535 40.4432 24.5535C40.4318 24.5535 40.4205 24.5592 40.4092 24.5592C40.4035 24.5592 40.3978 24.5592 40.3922 24.5648C40.3865 24.5648 40.3809 24.5705 40.3752 24.5705C40.3582 24.5762 40.3412 24.5818 40.3186 24.5875C40.3129 24.5875 40.3072 24.5932 40.3016 24.5932C40.2959 24.5932 40.2959 24.5988 40.2902 24.5988C40.2562 24.6102 40.2279 24.6271 40.1939 24.6441L32.2699 29.2264C32.2303 29.249 32.1906 29.2773 32.151 29.3057C32.1453 29.3113 32.1396 29.317 32.1283 29.3227C32.0887 29.351 32.0547 29.385 32.0207 29.4189C32.015 29.4246 32.015 29.4246 32.0094 29.4246L31.9924 29.4416C31.9754 29.4586 31.9584 29.4756 31.9414 29.4982L31.9244 29.5152C31.9187 29.5209 31.9187 29.5266 31.9131 29.5322C31.9018 29.5436 31.8904 29.5549 31.8848 29.5662C31.8791 29.5719 31.8734 29.5832 31.8678 29.5889C31.8621 29.5945 31.8564 29.6002 31.8508 29.6115C31.8451 29.6229 31.8338 29.6285 31.8281 29.6398C31.8225 29.6455 31.8168 29.6512 31.8111 29.6625C31.8055 29.6738 31.7941 29.6852 31.7885 29.6965C31.7828 29.7021 31.7771 29.7135 31.7715 29.7191C31.7715 29.7248 31.7658 29.7248 31.7658 29.7305C31.7545 29.7531 31.7375 29.7758 31.7262 29.7928V29.7984C31.7262 29.8041 31.7205 29.8098 31.7205 29.8098C31.7092 29.8268 31.7035 29.8437 31.6922 29.8551C31.6865 29.8607 31.6865 29.8721 31.6809 29.8777C31.6752 29.8834 31.6752 29.8947 31.6695 29.9004C31.6639 29.9061 31.6639 29.9117 31.6582 29.923C31.6469 29.94 31.6412 29.957 31.6355 29.974C31.6355 29.9797 31.6299 29.9797 31.6299 29.9854C31.6186 30.008 31.6129 30.0307 31.6016 30.0533C31.6016 30.059 31.5959 30.059 31.5959 30.0646C31.5902 30.0703 31.5902 30.0816 31.5846 30.0873C31.5789 30.0986 31.5732 30.11 31.5732 30.1213C31.5676 30.1326 31.5676 30.1383 31.5676 30.1496C31.5619 30.1609 31.5619 30.1723 31.5562 30.1836C31.5562 30.1893 31.5506 30.1949 31.5506 30.2062C31.5449 30.2176 31.5449 30.2289 31.5393 30.2402C31.5336 30.2516 31.5336 30.2686 31.5279 30.2799C31.5279 30.2855 31.5279 30.2912 31.5223 30.2912C31.5223 30.3025 31.5166 30.3082 31.5166 30.3195C31.5109 30.3422 31.5109 30.3592 31.5053 30.3818C31.5053 30.3875 31.5053 30.3932 31.4996 30.3988V30.4158C31.4939 30.4611 31.4883 30.5064 31.4883 30.5518L31.5053 35.8363C31.5053 36.0176 31.5562 36.1592 31.6355 36.2498C31.6639 36.2781 31.6922 36.3064 31.7262 36.3291L32.5645 36.8162C32.4285 36.7369 32.3436 36.567 32.3379 36.3234L32.3436 31.0389C32.3436 30.9936 32.3492 30.9482 32.3549 30.9029C32.3549 30.8916 32.3549 30.8803 32.3605 30.8689C32.3662 30.8463 32.3662 30.8293 32.3719 30.8066C32.3719 30.7953 32.3775 30.7783 32.3775 30.767C32.3832 30.7557 32.3832 30.7387 32.3889 30.7273C32.3945 30.7104 32.4002 30.6934 32.4059 30.6707C32.4115 30.6594 32.4115 30.648 32.4172 30.6367C32.4228 30.6141 32.4285 30.5971 32.4398 30.5744C32.4455 30.5687 32.4455 30.5574 32.4512 30.5518L32.4852 30.4668C32.4852 30.4611 32.4908 30.4611 32.4908 30.4555C32.5021 30.4328 32.5135 30.4045 32.5248 30.3818C32.5305 30.3762 32.5305 30.3648 32.5361 30.3592C32.5475 30.3365 32.5588 30.3139 32.5758 30.2912C32.5758 30.2855 32.5814 30.2799 32.5814 30.2799C32.5984 30.2516 32.6154 30.2289 32.6324 30.2006C32.6381 30.1949 32.6437 30.1836 32.6494 30.1779C32.6607 30.1609 32.6721 30.1439 32.6891 30.1213C32.6947 30.11 32.7004 30.1043 32.7117 30.093C32.723 30.076 32.7344 30.0646 32.7457 30.0477C32.757 30.0363 32.7627 30.025 32.774 30.0137C32.7853 30.0023 32.791 29.991 32.8023 29.9797C32.8193 29.9627 32.8363 29.94 32.8533 29.923C32.859 29.9117 32.8703 29.9061 32.876 29.9004C32.91 29.8664 32.9496 29.8324 32.9836 29.8041C32.9893 29.7984 32.9949 29.7928 33.0062 29.7871C33.0459 29.7588 33.0855 29.7305 33.1252 29.7078L41.0492 25.1369C41.0832 25.1199 41.1115 25.1029 41.1455 25.0916C41.1568 25.0859 41.1682 25.0859 41.1738 25.0803C41.1908 25.0746 41.2078 25.0689 41.2305 25.0633C41.2418 25.0576 41.2531 25.0576 41.2645 25.052C41.2758 25.052 41.2871 25.0463 41.2984 25.0463C41.3098 25.0463 41.3268 25.0406 41.3381 25.0406H41.423C41.44 25.0406 41.4627 25.0463 41.4797 25.0463C41.4853 25.0463 41.491 25.0463 41.491 25.052C41.508 25.0576 41.5193 25.0576 41.5307 25.0633C41.5363 25.0633 41.542 25.0689 41.542 25.0689C41.559 25.0746 41.576 25.0859 41.593 25.0916L40.7377 24.5988Z"
        fill="#C68620" />
    <path
        d="M41.0268 25.1371C41.4516 24.8935 41.7971 25.0861 41.7971 25.5732L41.8141 30.8578C41.8141 31.3449 41.4742 31.9396 41.0494 32.1832L33.1254 36.7541C32.7006 36.9976 32.3551 36.7994 32.3551 36.3179L32.3438 31.039C32.3438 30.5519 32.6836 29.9572 33.1084 29.7136L41.0268 25.1371Z"
        fill="#FFCD2E" />
    <path
        d="M39.1998 30.0819L38.6107 29.7421C38.6051 29.7364 38.5994 29.7364 38.5938 29.7251L39.1828 30.0649C39.1885 30.0763 39.1941 30.0819 39.1998 30.0819Z"
        fill="#674611" />
    <path d="M39.007 29.8213L38.418 29.4814L38.5992 29.725L39.1883 30.0705L39.007 29.8213Z"
        fill="#E8CFAC" />
    <path
        d="M39.1556 27.8161C39.2349 27.7708 39.2859 27.8387 39.2463 27.9407L38.7138 29.317C38.6969 29.368 38.6572 29.4077 38.6232 29.4303C38.5892 29.453 38.5553 29.453 38.5326 29.4247L38.357 29.1754L36.7597 31.1692C36.7314 31.2032 36.6974 31.2315 36.6691 31.2541C36.6068 31.2881 36.5445 31.2881 36.5105 31.2428L36.0574 30.6084L34.4658 32.5909C34.4375 32.6249 34.4035 32.6532 34.3752 32.6758C34.3129 32.7155 34.2506 32.7098 34.2166 32.6645C34.1656 32.5909 34.1939 32.4436 34.2845 32.336L36.0347 30.1553C36.0631 30.1213 36.097 30.093 36.1254 30.0704C36.1877 30.0307 36.25 30.0364 36.284 30.0817L36.7371 30.7161L38.1758 28.9206L38.0002 28.6713C37.9605 28.6147 38.0115 28.4901 38.0851 28.4448L39.1556 27.8161Z"
        fill="#C68620" />
    <path
        d="M36.793 31.0164L37.382 31.3562L38.8207 29.5607L38.6451 29.3115L38.0561 28.9717L38.2316 29.2152L36.793 31.0164Z"
        fill="#E8CFAC" />
    <path
        d="M39.8742 28.4563L39.574 28.2808L39.2852 28.1108H39.2229C39.2172 28.1108 39.2115 28.1165 39.2059 28.1165L38.1354 28.7396C38.124 28.7452 38.1127 28.7565 38.1014 28.7622L38.09 28.7735L38.0844 28.7792C38.0844 28.7849 38.0787 28.7849 38.0787 28.7905C38.0787 28.7962 38.073 28.7962 38.073 28.8019C38.073 28.8075 38.0674 28.8075 38.0674 28.8132V28.8188C38.0674 28.8245 38.0617 28.8245 38.0617 28.8302C38.0617 28.8358 38.0617 28.8358 38.0561 28.8415C38.0561 28.8472 38.0561 28.8472 38.0504 28.8528C38.0504 28.8585 38.0504 28.8585 38.0447 28.8642C38.0447 28.8698 38.0447 28.8698 38.0391 28.8755C38.0391 28.8812 38.0391 28.8812 38.0334 28.8868V28.9378C38.0334 28.9491 38.0391 28.9604 38.0447 28.9661L38.6338 29.306C38.6281 29.3003 38.6225 29.289 38.6225 29.2776V29.221C38.6281 29.1983 38.6338 29.1757 38.6451 29.1587C38.6508 29.1474 38.6564 29.136 38.6621 29.1304C38.6678 29.1247 38.6734 29.1134 38.6848 29.1077C38.6961 29.0964 38.7074 29.0907 38.7188 29.0851L39.7893 28.462C39.7949 28.4563 39.8006 28.4563 39.8063 28.4507H39.8119C39.8176 28.4507 39.8232 28.445 39.8289 28.445H39.8459C39.8686 28.4563 39.8742 28.4563 39.8742 28.4563C39.8799 28.4563 39.8799 28.4563 39.8742 28.4563ZM37.1555 31.8831L36.7023 31.2487L36.1133 30.9089L36.5664 31.5433C36.5721 31.5546 36.5834 31.5659 36.5947 31.5716L37.1838 31.9114C37.1725 31.9058 37.1668 31.8944 37.1555 31.8831Z"
        fill="#E8CFAC" />
    <path
        d="M36.307 30.3536C36.3014 30.3536 36.3014 30.3479 36.2957 30.3479C36.29 30.3479 36.29 30.3479 36.2844 30.3423H36.2447C36.2391 30.3423 36.2334 30.3423 36.2277 30.3479C36.2277 30.3479 36.2221 30.3479 36.2221 30.3536H36.2107C36.1994 30.3593 36.1937 30.3593 36.1824 30.3649C36.1711 30.3706 36.1541 30.3819 36.1428 30.3933L36.1314 30.4046L36.1201 30.4159L36.0975 30.4386L36.0861 30.4499L34.3359 32.6306L34.925 32.9704L36.6752 30.7897C36.6865 30.7728 36.7035 30.7614 36.7148 30.7444L36.7262 30.7331C36.7375 30.7218 36.7545 30.7104 36.7658 30.7048L36.7998 30.6878H36.8055C36.8168 30.6821 36.8281 30.6821 36.8338 30.6821H36.8621C36.8734 30.6821 36.8791 30.6878 36.8904 30.6935L36.307 30.3536Z"
        fill="#E8CFAC" />
    <path
        d="M34.318 32.6535C34.3123 32.6592 34.3123 32.6648 34.3066 32.6705V32.6762C34.3066 32.6818 34.301 32.6818 34.301 32.6875C34.2953 32.6932 34.2953 32.6988 34.2896 32.7045C34.2896 32.7102 34.284 32.7158 34.284 32.7215C34.284 32.7272 34.2783 32.7272 34.2783 32.7328C34.2783 32.7385 34.2727 32.7441 34.2727 32.7498C34.2727 32.7555 34.267 32.7611 34.267 32.7668C34.267 32.7725 34.2613 32.7781 34.2613 32.7838C34.2613 32.7895 34.2557 32.8008 34.2557 32.8064V32.8121C34.2557 32.8178 34.2557 32.8234 34.25 32.8291V32.9027C34.2557 32.9197 34.2613 32.9424 34.2727 32.9537C34.2783 32.965 34.2896 32.9764 34.301 32.982L34.89 33.3219C34.8787 33.3162 34.8674 33.3049 34.8617 33.2936C34.8504 33.2766 34.8447 33.2596 34.8391 33.2426V33.2369C34.8334 33.2199 34.8334 33.1973 34.8391 33.1746C34.8391 33.1689 34.8391 33.1576 34.8447 33.152V33.1463C34.8504 33.1293 34.8504 33.118 34.8561 33.101C34.8617 33.084 34.8674 33.0727 34.873 33.0557C34.8787 33.0387 34.89 33.0273 34.8957 33.0104C34.907 32.9934 34.9127 32.982 34.924 32.9707L34.335 32.6309L34.3293 32.6365C34.3236 32.6422 34.3236 32.6479 34.318 32.6535Z"
        fill="#E8CFAC" />
    <path
        d="M39.8058 28.4674C39.8851 28.4221 39.9361 28.4901 39.8965 28.592L39.364 29.9627C39.347 30.0137 39.3074 30.0534 39.2734 30.076C39.2394 30.0987 39.2054 30.0987 39.1828 30.0704L39.0072 29.8211L37.4043 31.8149C37.376 31.8489 37.342 31.8772 37.3136 31.8999C37.2513 31.9395 37.189 31.9338 37.1551 31.8885L36.7019 31.2541L35.1103 33.2366C35.082 33.2706 35.048 33.2989 35.0197 33.3215C34.9574 33.3612 34.8951 33.3555 34.8611 33.3102C34.8101 33.2366 34.8385 33.0893 34.9291 32.9817L36.6793 30.801C36.7076 30.767 36.7416 30.7387 36.7699 30.7161C36.8322 30.6764 36.8945 30.6821 36.9285 30.7274L37.3816 31.3618L38.8203 29.5663L38.6447 29.317C38.6051 29.2604 38.656 29.1358 38.7297 29.0905L39.8058 28.4674Z"
        fill="white" />
</svg>
    