<svg width="58" height="59" viewBox="0 0 58 59" fill="none" xmlns="http://www.w3.org/2000/svg">
    <path
        d="M53.9526 41.7097C53.8805 42.4304 53.2187 42.7908 52.6552 43.1185C52.131 43.4199 51.6068 43.7278 51.0892 44.0293C50.2504 44.5142 49.4183 44.999 48.5795 45.4839C47.5311 46.0933 46.4893 46.7027 45.4409 47.3055C44.2876 47.9739 43.1344 48.6488 41.9746 49.3172C40.8148 49.9921 39.655 50.667 38.4886 51.3419C37.4206 51.9644 36.359 52.5803 35.291 53.2028C34.4195 53.7074 33.5546 54.2119 32.6831 54.7165C32.113 55.0441 31.5429 55.3783 30.9728 55.7059C30.5404 55.9549 30.1341 56.2039 29.6427 56.348C28.3649 56.715 26.9496 56.5905 25.7963 55.9221C25.3835 55.6797 24.9642 55.4438 24.5514 55.2013C23.7913 54.7623 23.0377 54.3299 22.2776 53.8908C21.2816 53.3142 20.2857 52.7376 19.2897 52.1675C18.1561 51.5123 17.0159 50.857 15.8823 50.2018C14.7094 49.5268 13.5365 48.8454 12.3636 48.1705C11.2562 47.5283 10.1489 46.8927 9.03493 46.2506L6.20424 44.619C5.52932 44.2258 4.84786 43.8392 4.17295 43.4461C3.86498 43.2692 3.55701 43.0922 3.24904 42.9088C2.76415 42.627 2.28581 42.1814 2.28581 41.5786C2.28581 42.129 2.28581 42.6794 2.27926 43.2364C2.27926 43.433 2.26616 43.6361 2.27926 43.8392C2.31858 44.37 2.73794 44.7828 3.17696 45.0449C3.44562 45.2087 3.72082 45.3594 3.99603 45.5167C4.7037 45.9229 5.41138 46.3358 6.11905 46.742C7.14125 47.3317 8.15689 47.9215 9.17909 48.5112C10.3913 49.2123 11.6101 49.9134 12.8223 50.6146C14.0869 51.3485 15.3516 52.0758 16.6228 52.8097C17.8284 53.5042 19.0276 54.1988 20.2332 54.8934C21.2358 55.47 22.2318 56.0466 23.2343 56.6233C23.9092 57.0164 24.5907 57.403 25.2656 57.7962C25.6587 58.0189 26.0453 58.2745 26.4713 58.4317C27.8014 58.9166 29.3609 58.8118 30.5863 58.0976C31.0515 57.8289 31.5167 57.5537 31.9819 57.2851C32.8403 56.7871 33.6987 56.2891 34.5505 55.7911C35.671 55.1424 36.785 54.4937 37.9054 53.8384C39.157 53.1111 40.4085 52.3838 41.6535 51.6564L45.4081 49.4744C46.5286 48.8192 47.6491 48.1705 48.7761 47.5152C49.6476 47.0107 50.5191 46.5061 51.3906 45.995C51.8689 45.7133 52.3538 45.4381 52.8321 45.1563C52.9763 45.0711 53.127 44.9859 53.2646 44.8876C53.6315 44.6124 53.9199 44.2324 53.9264 43.7541C53.933 43.5116 53.9264 43.2757 53.9264 43.0333C53.9264 42.5549 53.9264 42.0701 53.933 41.5917C53.9592 41.6441 53.9592 41.6769 53.9526 41.7097C53.9592 41.6966 53.9526 41.7293 53.9526 41.7097Z"
        fill="#7A9EFD" />
    <path
        d="M53.0222 40.3009C54.2672 41.0216 54.2737 42.1945 53.0353 42.9153L30.4684 56.027C29.2299 56.7477 27.2052 56.7477 25.9602 56.027L3.24254 42.9153C1.99755 42.1945 1.991 41.0216 3.22943 40.3009L25.7964 27.1827C27.0348 26.4619 29.0596 26.4619 30.3045 27.1827L53.0222 40.3009Z"
        fill="#E4ECF9" />
    <path
        d="M15.6797 25.9624C15.6797 28.0581 17.3789 29.7517 19.4689 29.7517H37.5373C38.0811 29.7517 38.5229 30.1935 38.5229 30.7372V44.0308C38.5229 44.5745 38.0811 45.0163 37.5373 45.0163H22.0518C18.5287 45.0163 15.6797 42.1616 15.6797 38.6442V25.5376"
        fill="#4040FF" />
    <path
        d="M37.5424 45.543H22.0512C18.2449 45.543 15.1523 42.4504 15.1523 38.6441V25.5375C15.1523 25.2486 15.3846 25.0107 15.6791 25.0107C15.9736 25.0107 16.2059 25.243 16.2059 25.5375V25.968C16.2059 27.7691 17.6729 29.2361 19.474 29.2361H37.5424C38.375 29.2361 39.049 29.9158 39.049 30.7428V44.0363C39.049 44.8633 38.375 45.543 37.5424 45.543ZM16.2059 28.783V38.6441C16.2059 41.8727 18.8283 44.4951 22.0568 44.4951H37.5424C37.7973 44.4951 38.0012 44.2912 38.0012 44.0363V30.7428C38.0012 30.4879 37.7973 30.284 37.5424 30.284H19.474C18.8534 30.2835 18.2402 30.1491 17.6762 29.8901C17.1122 29.6311 16.6107 29.2535 16.2059 28.783Z"
        fill="#151B28" />
    <path
        d="M37.5424 45.5428H22.0512C18.2449 45.5428 15.1523 42.4502 15.1523 38.6439V25.8092C15.1523 23.5096 17.0271 21.6348 19.3268 21.6348H37.4348C37.7236 21.6348 37.9615 21.867 37.9615 22.1615C37.9615 22.4561 37.7293 22.6883 37.4348 22.6883H19.3268C17.6049 22.6883 16.2002 24.093 16.2002 25.8148V25.9678C16.2002 27.7689 17.6672 29.2359 19.4684 29.2359H37.5367C38.3693 29.2359 39.0434 29.9156 39.0434 30.7426V44.0361C39.0441 44.2337 39.0058 44.4295 38.9307 44.6123C38.8556 44.795 38.7452 44.9612 38.6057 45.1011C38.4663 45.2411 38.3006 45.3522 38.1181 45.428C37.9356 45.5038 37.74 45.5428 37.5424 45.5428ZM16.2059 28.7828V38.6439C16.2059 41.8725 18.8283 44.4949 22.0568 44.4949H37.5424C37.7973 44.4949 38.0012 44.291 38.0012 44.0361V30.7426C38.0012 30.4877 37.7973 30.2838 37.5424 30.2838H19.474C18.8534 30.2833 18.2402 30.1489 17.6762 29.8899C17.1122 29.6309 16.6107 29.2533 16.2059 28.7828Z"
        fill="#4F5A73" />
    <path
        d="M33.3777 29.7684H21.7891V18.6271C21.7891 18.0494 22.2592 17.585 22.8312 17.585H32.3299C32.9076 17.585 33.3721 18.0551 33.3721 18.6271V29.7684H33.3777Z"
        fill="#FFCD2E" />
    <path
        d="M33.3787 30.2498H21.79C21.6624 30.2498 21.5399 30.1991 21.4496 30.1088C21.3593 30.0185 21.3086 29.896 21.3086 29.7684V18.6271C21.3086 17.7889 21.9939 17.1035 22.8322 17.1035H32.3309C33.1691 17.1035 33.8545 17.7889 33.8545 18.6271V29.7684C33.8602 30.0346 33.6449 30.2498 33.3787 30.2498ZM22.2715 29.2869H32.9029V18.6271C32.9029 18.3156 32.648 18.0607 32.3365 18.0607H22.8322C22.5207 18.0607 22.2658 18.3156 22.2658 18.6271V29.2869H22.2715Z"
        fill="#151B28" />
    <path d="M23.9141 17.9136H26.4572V29.4286H23.9141V17.9136Z" fill="white" />
    <path
        d="M26.4557 29.6947H23.9125C23.8404 29.6947 23.7712 29.6661 23.7203 29.6151C23.6693 29.5641 23.6406 29.495 23.6406 29.4229V17.9135C23.6406 17.7662 23.7596 17.6416 23.9125 17.6416H26.4557C26.6029 17.6416 26.7275 17.7605 26.7275 17.9135V29.4285C26.7275 29.5758 26.6029 29.6947 26.4557 29.6947ZM24.1844 29.1566H26.1895V18.1797H24.1844V29.1566ZM28.4098 19.0746H29.2877V21.4818H28.4098V19.0746ZM28.4098 22.3541H29.2877V28.273H28.4098V22.3541ZM30.7094 19.0746H31.5873V28.273H30.7094V19.0746Z"
        fill="#151B28" />
    <path
        d="M39.3147 33.8354H29.5385C28.0828 33.8354 26.7858 34.9003 26.6498 36.3446C26.4912 38.0042 27.794 39.4032 29.4195 39.4032H39.3147C39.6432 39.4032 39.9037 39.137 39.9037 38.8142V34.4245C39.9037 34.1017 39.6432 33.8354 39.3147 33.8354Z"
        fill="#464BD8" />
    <path
        d="M39.3137 39.9127H29.4186C28.4953 39.9127 27.6061 39.5219 26.983 38.8365C26.674 38.4955 26.4397 38.0935 26.2954 37.6565C26.151 37.2195 26.0997 36.7571 26.1447 36.299C26.3033 34.6338 27.793 33.3311 29.5432 33.3311H39.3194C39.9254 33.3311 40.4182 33.8238 40.4182 34.4299V38.8195C40.4125 39.4199 39.9197 39.9127 39.3137 39.9127ZM29.5375 34.3449C28.3084 34.3449 27.2606 35.2455 27.153 36.3953C27.1198 36.7126 27.1547 37.0334 27.2553 37.3361C27.3559 37.6389 27.5199 37.9168 27.7364 38.1512C27.9501 38.3865 28.2107 38.5745 28.5013 38.7032C28.792 38.832 29.1063 38.8986 29.4242 38.8988H39.3194C39.3647 38.8988 39.4043 38.8592 39.4043 38.8139V34.4242C39.4043 34.3789 39.3647 34.3393 39.3194 34.3393L29.5375 34.3449Z"
        fill="#151B28" />
    <path
        d="M28.3477 36.622C28.3477 36.9645 28.4837 37.2929 28.7259 37.5351C28.9681 37.7773 29.2966 37.9134 29.6391 37.9134C29.9816 37.9134 30.31 37.7773 30.5522 37.5351C30.7944 37.2929 30.9305 36.9645 30.9305 36.622C30.9305 36.2795 30.7944 35.951 30.5522 35.7088C30.31 35.4666 29.9816 35.3306 29.6391 35.3306C29.2966 35.3306 28.9681 35.4666 28.7259 35.7088C28.4837 35.951 28.3477 36.2795 28.3477 36.622Z"
        fill="white" />
</svg>
    