<svg width="59" height="59" viewBox="0 0 59 59" fill="none" xmlns="http://www.w3.org/2000/svg">
    <path
        d="M52.1999 32.1733C52.1365 32.8071 51.5545 33.124 51.059 33.4121C50.5981 33.6771 50.1372 33.9479 49.682 34.213C48.9445 34.6394 48.2127 35.0657 47.4752 35.4921C46.5534 36.0279 45.6373 36.5638 44.7154 37.0938C43.7013 37.6815 42.6873 38.275 41.6674 38.8627C40.6476 39.4562 39.6278 40.0496 38.6022 40.6431C37.663 41.1904 36.7296 41.732 35.7905 42.2794C35.0242 42.723 34.2636 43.1667 33.4973 43.6104C32.996 43.8984 32.4948 44.1923 31.9935 44.4804C31.6132 44.6993 31.256 44.9183 30.8239 45.045C29.7003 45.3677 28.4558 45.2582 27.4417 44.6705C27.0788 44.4573 26.71 44.2499 26.347 44.0367C25.6787 43.6507 25.0161 43.2704 24.3477 42.8844C23.4719 42.3773 22.5961 41.8703 21.7204 41.369C20.7236 40.7929 19.721 40.2167 18.7243 39.6405C17.6929 39.0471 16.6616 38.4478 15.6302 37.8544C14.6565 37.2897 13.6828 36.7309 12.7033 36.1662L10.2142 34.7315C9.62075 34.3858 9.02153 34.0459 8.42807 33.7002C8.15727 33.5446 7.88647 33.3891 7.61567 33.2277C7.1893 32.98 6.7687 32.5882 6.7687 32.0581C6.7687 32.5421 6.7687 33.0261 6.76293 33.5158C6.76293 33.6887 6.75141 33.8673 6.76293 34.0459C6.7975 34.5126 7.16625 34.8756 7.55229 35.1061C7.78852 35.2501 8.03051 35.3826 8.2725 35.5209C8.89477 35.8781 9.51704 36.2411 10.1393 36.5983C11.0381 37.1169 11.9312 37.6354 12.83 38.154C13.8959 38.7705 14.9676 39.387 16.0335 40.0035C17.1456 40.6488 18.2576 41.2884 19.3753 41.9337C20.4355 42.5444 21.4899 43.1552 22.55 43.7659C23.4316 44.2729 24.3074 44.78 25.1889 45.287C25.7824 45.6327 26.3816 45.9727 26.975 46.3184C27.3207 46.5143 27.6607 46.739 28.0352 46.8772C29.2048 47.3036 30.5761 47.2114 31.6536 46.5834C32.0626 46.3472 32.4717 46.1052 32.8808 45.8689C33.6356 45.4311 34.3904 44.9932 35.1394 44.5553C36.1247 43.9849 37.1041 43.4145 38.0894 42.8383C39.1899 42.1987 40.2904 41.5592 41.3851 40.9196L44.6866 39.001C45.6718 38.4248 46.6571 37.8544 47.6481 37.2782C48.4144 36.8346 49.1807 36.3909 49.947 35.9415C50.3676 35.6937 50.794 35.4518 51.2146 35.204C51.3414 35.1291 51.4739 35.0542 51.5949 34.9678C51.9175 34.7258 52.171 34.3916 52.1768 33.971C52.1826 33.7578 52.1768 33.5504 52.1768 33.3372C52.1768 32.9166 52.1768 32.4902 52.1826 32.0696C52.2056 32.1157 52.2056 32.1445 52.1999 32.1733C52.2056 32.1618 52.1999 32.1906 52.1999 32.1733Z"
        fill="#7A9EFD" />
    <path
        d="M51.3816 30.9346C52.4763 31.5684 52.4821 32.5998 51.3931 33.2335L31.5498 44.7627C30.4608 45.3965 28.6804 45.3965 27.5857 44.7627L7.60982 33.2335C6.51509 32.5998 6.50933 31.5684 7.59829 30.9346L27.4417 19.3997C28.5306 18.7659 30.311 18.7659 31.4057 19.3997L51.3816 30.9346Z"
        fill="#E4ECF9" />
    <path
        d="M28.4277 31.8969L28.0129 30.9692L27.1602 30.4737L27.575 31.4014C27.6096 31.4763 27.6614 31.5339 27.7248 31.5685L28.5775 32.064C28.5142 32.0294 28.4623 31.9718 28.4277 31.8969ZM36.3731 16.8415C36.3962 16.83 36.4192 16.8242 36.4423 16.8185C36.4538 16.8185 36.4596 16.8127 36.4711 16.8127C36.4826 16.8127 36.4884 16.8069 36.4999 16.8069C36.5114 16.8069 36.5229 16.8012 36.5345 16.8012H36.6036C36.6151 16.8012 36.6324 16.8069 36.6439 16.8069H36.6555C36.667 16.8069 36.6785 16.8127 36.6843 16.8185C36.69 16.8185 36.69 16.8185 36.6958 16.8242C36.7073 16.83 36.7246 16.8357 36.7361 16.8415L35.8834 16.346H35.8776C35.8661 16.3402 35.8604 16.3345 35.8488 16.3287H35.8431C35.8373 16.3287 35.8373 16.3287 35.8315 16.3229C35.8258 16.3229 35.82 16.3172 35.8143 16.3172C35.8085 16.3172 35.8027 16.3172 35.797 16.3114H35.7854H35.7797C35.7682 16.3114 35.7566 16.3057 35.7451 16.3057H35.699H35.6529H35.6472C35.6356 16.3057 35.6299 16.3114 35.6184 16.3114C35.6126 16.3114 35.6068 16.3114 35.6011 16.3172H35.5953C35.5723 16.3229 35.5492 16.3287 35.5262 16.3402C35.5031 16.346 35.4858 16.3575 35.4628 16.369L34.4487 16.8991L35.3015 17.3946L36.3155 16.8646C36.3328 16.8588 36.3501 16.853 36.3731 16.8415ZM32.5358 18.8984C32.5416 18.8984 32.5416 18.8984 32.5358 18.8984C32.5416 18.8581 32.5416 18.8235 32.5474 18.789C32.5589 18.5009 32.4609 18.2992 32.2996 18.207L31.4469 17.7115C31.6082 17.8037 31.7062 18.0111 31.6946 18.2935C31.6946 18.328 31.6889 18.3626 31.6831 18.3972C31.6831 18.4087 31.6773 18.4145 31.6773 18.426C31.6716 18.4548 31.6716 18.4778 31.6658 18.5066C31.6601 18.5297 31.6543 18.5527 31.6485 18.5815C31.6485 18.5931 31.6428 18.5988 31.6428 18.6104C31.6313 18.6449 31.6255 18.6737 31.614 18.7083C31.614 18.7141 31.6082 18.7256 31.6082 18.7313C31.5967 18.7544 31.5909 18.7832 31.5794 18.8062C31.5736 18.8178 31.5736 18.8235 31.5679 18.8351C31.5563 18.8639 31.5448 18.8927 31.5275 18.9215V18.9272C31.5103 18.9561 31.4987 18.9906 31.4814 19.0194C31.4757 19.0252 31.4699 19.0367 31.4699 19.0425C31.4584 19.0655 31.4411 19.0886 31.4296 19.1116C31.4238 19.1174 31.4181 19.1289 31.4123 19.1347C31.395 19.1635 31.3777 19.1923 31.3604 19.2153L31.3547 19.2211C31.3316 19.2499 31.3144 19.2787 31.2913 19.3075C31.2798 19.3248 31.2625 19.3421 31.251 19.3594C31.2395 19.3709 31.2279 19.3882 31.2164 19.3997C31.1876 19.4343 31.153 19.4688 31.1242 19.4977C31.1127 19.5092 31.0954 19.5265 31.0781 19.538L31.0436 19.5726C31.0263 19.5898 31.009 19.6014 30.9917 19.6129C30.9802 19.6244 30.9687 19.6302 30.9571 19.6417C30.9398 19.659 30.9168 19.6705 30.8995 19.682C30.888 19.6878 30.8822 19.6936 30.8707 19.7051C30.8419 19.7224 30.8131 19.7454 30.7843 19.7627C30.767 19.7742 30.7497 19.78 30.7324 19.7915C30.7036 19.8088 30.669 19.8203 30.6402 19.8318C30.6057 19.8491 30.5711 19.8606 30.5365 19.8664C30.525 19.8722 30.5077 19.8722 30.4962 19.8779C30.4789 19.8837 30.4674 19.8837 30.4501 19.8895C30.4328 19.8895 30.4155 19.8952 30.3982 19.8952H30.2945C30.2772 19.8952 30.2542 19.8895 30.2369 19.8895C30.2312 19.8895 30.2254 19.8895 30.2196 19.8837C30.2023 19.8779 30.1908 19.8779 30.1735 19.8722C30.1678 19.8722 30.162 19.8664 30.1563 19.8664C30.139 19.8606 30.1159 19.8491 30.0986 19.8376L30.9514 20.3331H30.9571C30.9744 20.3389 30.9859 20.3504 31.0032 20.3562H31.009C31.0147 20.3562 31.0205 20.3619 31.0263 20.3619C31.032 20.3677 31.0436 20.3677 31.0493 20.3734C31.0551 20.3734 31.0608 20.3792 31.0724 20.3792C31.0781 20.3792 31.0839 20.385 31.0896 20.385H31.1012C31.1185 20.385 31.13 20.3907 31.1473 20.3907H31.251C31.2625 20.3907 31.274 20.3907 31.2913 20.385H31.3028C31.3201 20.385 31.3316 20.3792 31.3489 20.3734C31.3604 20.3734 31.372 20.3677 31.3777 20.3677C31.3835 20.3677 31.3835 20.3677 31.3893 20.3619L31.493 20.3273C31.5218 20.3158 31.5506 20.2985 31.5794 20.287C31.5967 20.2755 31.614 20.2697 31.6313 20.2582C31.6601 20.2409 31.6889 20.2236 31.7177 20.2006C31.7292 20.1948 31.735 20.1891 31.7465 20.1775C31.7638 20.166 31.7868 20.1487 31.8041 20.1372C31.8156 20.1257 31.8271 20.1199 31.8387 20.1084C31.856 20.0969 31.8732 20.0796 31.8905 20.0681L31.9251 20.0335L31.9597 19.9989C31.9597 19.9989 31.9654 19.9932 31.9654 19.9874C32 19.9528 32.0288 19.924 32.0576 19.8895C32.0691 19.8779 32.0749 19.8664 32.0864 19.8549C32.098 19.8376 32.1152 19.8203 32.1268 19.803L32.1325 19.7973C32.1556 19.7685 32.1729 19.7396 32.1959 19.7166L32.2017 19.7108C32.2189 19.6878 32.2362 19.6647 32.2478 19.6417C32.2478 19.6359 32.2535 19.6359 32.2535 19.6302C32.2593 19.6244 32.265 19.6129 32.2708 19.6071C32.2766 19.5956 32.2881 19.5841 32.2938 19.5726C32.2996 19.561 32.3054 19.5495 32.3111 19.5438C32.3169 19.538 32.3227 19.5265 32.3227 19.5207C32.3284 19.5149 32.3284 19.5092 32.3342 19.5034C32.3457 19.4804 32.3572 19.4573 32.3688 19.4285V19.4228C32.3803 19.3997 32.3918 19.3767 32.3976 19.3536C32.4033 19.3479 32.4033 19.3421 32.4033 19.3306C32.4091 19.319 32.4091 19.3133 32.4148 19.3018C32.4206 19.2902 32.4206 19.2845 32.4264 19.2729C32.4321 19.2557 32.4379 19.2441 32.4437 19.2269C32.4437 19.2211 32.4494 19.2096 32.4494 19.2038C32.4494 19.198 32.4494 19.198 32.4552 19.1923C32.4667 19.1635 32.4725 19.1347 32.4782 19.1059V19.1001C32.4782 19.0886 32.484 19.0828 32.484 19.0713C32.4897 19.0482 32.4955 19.031 32.5013 19.0079V19.0021C32.507 18.9733 32.5128 18.9503 32.5128 18.9215C32.5358 18.9157 32.5358 18.91 32.5358 18.8984Z"
        fill="#2A2ABC" />
    <path
        d="M33.4191 15.2743L32.5664 14.7788C32.6586 14.8191 32.7508 14.8652 32.8372 14.9171L33.6899 15.4126C33.6035 15.3607 33.5113 15.3146 33.4191 15.2743Z"
        fill="#A35F0F" />
    <path
        d="M33.6887 15.4125L32.8359 14.917C32.8475 14.9228 32.8647 14.9343 32.8763 14.94L33.729 15.4355C33.7175 15.424 33.7002 15.4183 33.6887 15.4125Z"
        fill="#9E5C0E" />
    <path
        d="M33.3733 11.7483C33.3676 11.7483 33.3618 11.7426 33.356 11.7426C33.3445 11.7368 33.3272 11.7311 33.3157 11.7253C33.3099 11.7253 33.3042 11.7195 33.3042 11.7195H33.2811C33.2696 11.7195 33.2581 11.7138 33.2466 11.7138C33.2408 11.7138 33.2293 11.7138 33.2235 11.708H33.2005C33.1832 11.708 33.1717 11.7138 33.1544 11.7138C33.1429 11.7138 33.1371 11.7138 33.1256 11.7195C33.1198 11.7195 33.114 11.7195 33.1083 11.7253C33.1025 11.7253 33.0968 11.7311 33.091 11.7311C33.0679 11.7368 33.0391 11.7426 33.0103 11.7541H33.0046C32.6473 11.9039 32.1922 12.1113 31.6967 12.3994C31.616 12.4455 31.5411 12.4916 31.4604 12.5435C31.4431 12.555 31.4316 12.5607 31.4143 12.5723C31.3337 12.6184 31.2588 12.6702 31.1781 12.7221C31.1608 12.7336 31.1493 12.7394 31.132 12.7509C31.0513 12.8027 30.9764 12.8546 30.8958 12.9122C30.89 12.918 30.8843 12.918 30.8785 12.9237C30.7978 12.9813 30.7114 13.039 30.6307 13.1023C30.6135 13.1139 30.5962 13.1254 30.5789 13.1427C30.4982 13.2061 30.4118 13.2694 30.3311 13.3328C30.3196 13.3443 30.3023 13.3559 30.2908 13.3674C30.2101 13.4308 30.1352 13.4941 30.0546 13.5633C30.043 13.5748 30.0315 13.5806 30.0258 13.5921C29.9393 13.6612 29.8587 13.7361 29.778 13.811C29.7607 13.8283 29.7434 13.8456 29.7262 13.8571C29.6455 13.932 29.5591 14.0127 29.4784 14.0934L29.4669 14.1049L29.4381 14.1337C29.3804 14.1913 29.3171 14.2547 29.2595 14.3181C29.2422 14.3411 29.2191 14.3584 29.2018 14.3814C29.1327 14.4563 29.0578 14.537 28.9887 14.6177C28.9771 14.6234 28.9598 14.6292 28.9368 14.635C28.931 14.635 28.9253 14.6407 28.9195 14.6407C28.9022 14.6465 28.8849 14.6522 28.8619 14.6638H28.8561C28.8388 14.6695 28.8216 14.6811 28.7985 14.6868C28.7928 14.6868 28.787 14.6926 28.787 14.6926C28.7755 14.6983 28.7639 14.6983 28.7582 14.7041C28.7409 14.7099 28.7236 14.7214 28.7006 14.7271L28.666 14.7444C28.6429 14.756 28.6257 14.7617 28.6026 14.7732L28.568 14.7905C28.5392 14.8021 28.5104 14.8193 28.4759 14.8309C28.4701 14.8366 28.4643 14.8366 28.4586 14.8424C28.4182 14.8597 28.3779 14.8827 28.3376 14.9C28.3261 14.9058 28.3088 14.9115 28.2972 14.9173C28.2684 14.9346 28.2396 14.9461 28.2051 14.9634C28.1878 14.9691 28.1705 14.9807 28.1532 14.9864C28.1244 15.0037 28.0956 15.0152 28.061 15.0325C28.0437 15.044 28.0264 15.0498 28.0092 15.0613L27.9054 15.1132C27.8882 15.1189 27.8766 15.1305 27.8594 15.1362C27.8133 15.1593 27.7672 15.1823 27.7211 15.2111C27.7153 15.2169 27.7095 15.2169 27.7038 15.2227C27.6519 15.2515 27.5943 15.2803 27.5425 15.3091C27.5252 15.3206 27.5079 15.3264 27.4906 15.3379C27.4503 15.3609 27.4099 15.3782 27.3696 15.4013C27.3466 15.4128 27.3293 15.4243 27.3062 15.4358C27.2659 15.4589 27.2313 15.4762 27.191 15.4992C27.1679 15.5107 27.1507 15.5223 27.1276 15.5338C27.0873 15.5568 27.0412 15.5799 27.0009 15.6029C26.9836 15.6145 26.9605 15.626 26.9432 15.6375C26.8799 15.6721 26.8165 15.7066 26.7531 15.747C25.3761 16.5421 23.6303 17.6656 22.2532 18.8525C22.1898 18.9102 22.1207 18.9678 22.0573 19.0196C22.0343 19.0427 22.0112 19.06 21.9882 19.083C21.9478 19.1176 21.9075 19.1521 21.8729 19.1867C21.8441 19.2098 21.8211 19.2328 21.798 19.2559C21.7635 19.2847 21.7289 19.3192 21.7001 19.348C21.677 19.3711 21.654 19.3941 21.6252 19.4172C21.5964 19.446 21.5618 19.4748 21.533 19.5036L21.5272 19.5094L21.4927 19.5439C21.4523 19.5843 21.412 19.6246 21.3774 19.6649C21.3601 19.6822 21.3429 19.7053 21.3256 19.7226C21.2968 19.7571 21.2622 19.7859 21.2334 19.8205C21.2161 19.8436 21.193 19.8608 21.1758 19.8839C21.147 19.9127 21.1181 19.9415 21.0951 19.9761C21.0778 19.9991 21.0548 20.0164 21.0375 20.0395C21.0202 20.0567 21.0029 20.074 20.9914 20.0971C20.9856 20.1028 20.9799 20.1144 20.9683 20.1201C20.928 20.1662 20.8877 20.2123 20.8531 20.2584C20.8416 20.2699 20.8301 20.2872 20.8185 20.2987C20.7667 20.3563 20.7206 20.4197 20.6745 20.4773L20.6687 20.4831C20.663 20.4889 20.663 20.4946 20.6572 20.4946C20.5765 20.5983 20.5016 20.6963 20.4325 20.8C20.4325 20.8058 20.4267 20.8058 20.4267 20.8115C20.421 20.8173 20.4152 20.823 20.4152 20.8346C20.3518 20.9268 20.2885 21.0189 20.2308 21.1111L20.2251 21.1169C20.2193 21.1227 20.2193 21.1284 20.2136 21.1342C20.1559 21.2264 20.0983 21.3186 20.0465 21.4107C20.0349 21.428 20.0292 21.4396 20.0177 21.4568C19.9831 21.5087 19.9543 21.5663 19.9255 21.6182C19.8909 21.6815 19.8563 21.7392 19.8218 21.8025C19.7872 21.8659 19.7526 21.9235 19.718 21.9869C19.6835 22.0503 19.6489 22.1079 19.6201 22.1713C19.6143 22.1771 19.6143 22.1886 19.6086 22.1943C19.5682 22.275 19.5221 22.3557 19.4818 22.4363C19.4645 22.4651 19.4472 22.4997 19.4357 22.5285L19.2629 22.8742C19.2629 22.8742 19.2629 22.88 19.2571 22.88C19.2456 22.903 19.2398 22.9203 19.2283 22.9434C19.1822 23.0355 19.1361 23.1335 19.0958 23.2257L19.0439 23.3467C19.0209 23.4043 18.9921 23.4562 18.969 23.5138C18.9633 23.5311 18.9517 23.5541 18.946 23.5714C18.9287 23.6117 18.9114 23.6578 18.8941 23.6981C18.8653 23.7673 18.8365 23.8422 18.8077 23.9113C18.7904 23.9574 18.7731 23.9978 18.7558 24.0438L18.7213 24.1303C18.704 24.1706 18.6925 24.2109 18.6752 24.257C18.6579 24.3031 18.6406 24.3435 18.6291 24.3896C18.6003 24.4645 18.5772 24.5394 18.5484 24.6143C18.5369 24.6546 18.5196 24.6892 18.5081 24.7295C18.5023 24.741 18.5023 24.7468 18.4966 24.7583L18.4274 24.983C18.4159 25.0118 18.4044 25.0464 18.3986 25.0752C18.364 25.1847 18.3295 25.2999 18.3007 25.4094V25.4151C18.2776 25.49 18.2603 25.5649 18.243 25.6398L18.2085 25.7781C18.1854 25.8646 18.1681 25.9452 18.1509 26.0316C18.1451 26.0662 18.1336 26.1008 18.1278 26.1296C18.099 26.2679 18.0702 26.4004 18.0471 26.5387C18.0414 26.579 18.0356 26.6193 18.0241 26.6654C18.0068 26.7634 17.9953 26.8556 17.978 26.9535C17.9722 26.9766 17.9722 26.9996 17.9665 27.0284C17.9607 27.086 17.955 27.1379 17.9492 27.1955C17.8167 28.3767 17.9262 29.4368 18.2661 30.278C18.9633 31.9835 19.9428 33.4585 20.8358 34.9681C20.8704 35.0199 20.9107 35.066 20.9626 35.0948L21.8153 35.5903C21.7635 35.5615 21.7231 35.5212 21.6886 35.4636C20.7955 33.954 19.816 32.479 19.1188 30.7735C18.7731 29.9323 18.6637 28.8722 18.8019 27.691C18.8135 27.6104 18.8192 27.5354 18.8307 27.4548C18.8423 27.3568 18.8595 27.2646 18.8768 27.1667C18.8826 27.1264 18.8884 27.086 18.8999 27.0399C18.9229 26.9017 18.9517 26.7691 18.9805 26.6309C18.9863 26.5963 18.9978 26.5617 19.0036 26.5271C19.0209 26.4407 19.0439 26.3601 19.0612 26.2736L19.0958 26.1354C19.1131 26.0604 19.1361 25.9855 19.1534 25.9164C19.1822 25.8012 19.2168 25.6917 19.2513 25.5765C19.2629 25.5477 19.2744 25.5131 19.2802 25.4843C19.309 25.4036 19.332 25.3172 19.3608 25.2365C19.3723 25.1962 19.3896 25.1616 19.4012 25.1213C19.4242 25.0464 19.453 24.9715 19.4818 24.8966C19.4991 24.8505 19.5164 24.8102 19.5279 24.7641C19.5567 24.6949 19.5798 24.6258 19.6086 24.5509C19.6259 24.5048 19.6431 24.4645 19.6604 24.4184C19.6892 24.3492 19.718 24.2743 19.7469 24.2052C19.7641 24.1648 19.7814 24.1187 19.7987 24.0784C19.8333 24.0035 19.8621 23.9286 19.8967 23.8537L19.9485 23.7327C19.9888 23.6405 20.0349 23.5426 20.081 23.4504C20.0926 23.4273 20.0983 23.4101 20.1098 23.387C20.1675 23.2718 20.2251 23.1508 20.2827 23.0355C20.3 23.0067 20.3173 22.9722 20.3288 22.9434C20.3749 22.8569 20.421 22.7705 20.4671 22.6783C20.5016 22.6149 20.5362 22.5573 20.565 22.4939C20.5996 22.4306 20.6342 22.373 20.6687 22.3096C20.7033 22.2462 20.7379 22.1886 20.7724 22.1252L20.8934 21.9178C20.9453 21.8256 21.0029 21.7334 21.0605 21.6412C21.0663 21.6297 21.072 21.6239 21.0778 21.6124C21.1354 21.5202 21.1988 21.428 21.2622 21.3301C21.2679 21.3186 21.2737 21.307 21.2852 21.3013C21.3601 21.1976 21.435 21.0938 21.5099 20.9959C21.5157 20.9901 21.5215 20.9844 21.5272 20.9729C21.5733 20.9152 21.6194 20.8519 21.6713 20.7942C21.6828 20.7827 21.6943 20.7654 21.7058 20.7539C21.7462 20.7078 21.7807 20.6617 21.8211 20.6156C21.8441 20.5868 21.8672 20.5638 21.8902 20.535C21.9075 20.5119 21.9305 20.4946 21.9478 20.4716C21.9766 20.4428 21.9997 20.414 22.0285 20.3794C22.0458 20.3563 22.0688 20.3391 22.0861 20.316C22.1149 20.2814 22.1495 20.2526 22.1783 20.2181C22.1956 20.2008 22.2129 20.1777 22.2359 20.1604C22.2705 20.1201 22.3108 20.0855 22.3512 20.0452L22.3915 20.0049C22.4203 19.9761 22.4549 19.9473 22.4837 19.9127C22.5067 19.8896 22.5298 19.8666 22.5586 19.8436C22.5931 19.8147 22.622 19.7802 22.6565 19.7514C22.6796 19.7283 22.7084 19.7053 22.7314 19.6822C22.766 19.6477 22.8006 19.6188 22.8409 19.5843C22.8639 19.5612 22.8928 19.5382 22.9158 19.5151C22.9792 19.4575 23.0426 19.4057 23.1059 19.348C24.483 18.1611 26.2288 17.0376 27.6058 16.2425C27.6692 16.2079 27.7326 16.1676 27.796 16.133C27.8133 16.1215 27.8363 16.11 27.8536 16.0984C27.8939 16.0754 27.94 16.0523 27.9804 16.0293C28.0034 16.0178 28.0264 16.0063 28.0437 15.9947C28.0841 15.9717 28.1186 15.9544 28.159 15.9313C28.182 15.9198 28.1993 15.9083 28.2223 15.8968L28.3433 15.8276C28.3606 15.8161 28.3779 15.8104 28.3894 15.7988C28.4471 15.77 28.4989 15.7412 28.5565 15.7124C28.5623 15.7124 28.5623 15.7066 28.568 15.7066C28.6199 15.6778 28.666 15.6548 28.7121 15.6317C28.7294 15.6202 28.7467 15.6145 28.7639 15.6087C28.7985 15.5914 28.8331 15.5741 28.8619 15.5568C28.8792 15.5453 28.8965 15.5396 28.9137 15.528C28.9426 15.5107 28.9771 15.4992 29.0059 15.4819C29.0232 15.4762 29.0405 15.4646 29.052 15.4589C29.0866 15.4416 29.1154 15.4301 29.1442 15.4128L29.1788 15.3955C29.2191 15.3725 29.2595 15.3552 29.2998 15.3379C29.3055 15.3379 29.3113 15.3321 29.3113 15.3321C29.3459 15.3148 29.3747 15.3033 29.4093 15.286L29.4438 15.2688C29.4669 15.2572 29.4899 15.2457 29.513 15.2399L29.5475 15.2227C29.5706 15.2111 29.5879 15.2054 29.6052 15.1996C29.6167 15.1938 29.6224 15.1938 29.634 15.1881C29.657 15.1766 29.6858 15.165 29.7031 15.1593H29.7089C29.7319 15.1535 29.7492 15.142 29.7665 15.1362C29.7722 15.1362 29.778 15.1305 29.7838 15.1305L29.8356 15.1132C29.9048 15.0325 29.9797 14.9576 30.0488 14.877C30.0661 14.8539 30.0891 14.8366 30.1064 14.8136C30.164 14.7502 30.2274 14.6868 30.285 14.6292L30.3254 14.5889C30.406 14.5082 30.4925 14.4275 30.5731 14.3526C30.5904 14.3354 30.6077 14.3181 30.625 14.3065C30.7056 14.2316 30.7921 14.1567 30.8727 14.0876C30.8843 14.0761 30.8958 14.0703 30.9015 14.0588C30.9822 13.9896 31.0571 13.9263 31.1378 13.8629C31.1493 13.8514 31.1666 13.8398 31.1781 13.8283C31.2588 13.7649 31.3452 13.7016 31.4259 13.6382C31.4431 13.6267 31.4604 13.6151 31.4777 13.5979C31.5641 13.5345 31.6448 13.4769 31.7255 13.4192C31.7312 13.4135 31.737 13.4135 31.7428 13.4077C31.8234 13.3501 31.9041 13.2982 31.979 13.2464C31.9963 13.2349 32.0078 13.2291 32.0251 13.2176C32.1057 13.1657 32.1864 13.1139 32.2613 13.0678C32.2786 13.0563 32.2901 13.0505 32.3074 13.039C32.3881 12.9929 32.4687 12.941 32.5436 12.8949C33.0391 12.6068 33.4943 12.3994 33.8515 12.2496C33.8515 12.2496 33.8573 12.2496 33.8573 12.2438C33.8746 12.2381 33.8919 12.2323 33.9149 12.2266C33.9264 12.2208 33.938 12.2208 33.9495 12.215C33.9553 12.215 33.961 12.215 33.9668 12.2093C33.9956 12.2035 34.0244 12.1978 34.0474 12.1978H34.059C34.0878 12.1978 34.1108 12.2035 34.1339 12.2093H34.1396C34.1627 12.215 34.1915 12.2266 34.2088 12.2381L33.3733 11.7483Z"
        fill="#2A2ABC" />
    <path
        d="M36.3098 16.8702C36.6497 16.6915 36.9148 16.8529 36.8975 17.2274L36.7938 19.728C36.7823 19.9872 36.644 20.2869 36.4366 20.5L35.0941 21.9405C34.4776 23.8995 33.2791 25.9218 31.7408 27.6849L31.6486 29.9032C31.6313 30.3238 31.3144 30.825 30.9399 31.044L29.0616 32.0235C28.785 32.1733 28.5372 32.1214 28.422 31.891L28.0072 30.9633C27.7767 31.1131 27.5462 31.2572 27.31 31.3897C26.4976 31.8564 25.691 32.2194 24.9016 32.4671L24.8613 33.4351C24.844 33.8557 24.5271 34.3627 24.1468 34.5817L22.28 35.5554C22.0207 35.6937 21.7845 35.6591 21.6635 35.469C20.7704 33.9594 19.791 32.4844 19.0938 30.7789C18.7481 29.9377 18.6386 28.8776 18.7769 27.6964C18.9901 25.8354 19.716 23.9052 20.8799 21.9174C21.3869 21.0532 22.038 20.258 23.0982 19.3477C24.4752 18.1608 26.221 17.0372 27.5981 16.2421C28.6986 15.6083 29.5686 15.182 29.8279 15.1071C30.7209 14.0988 31.7004 13.3843 32.5532 12.8946C33.0487 12.6065 33.5038 12.3991 33.8611 12.2493C34.2874 12.0706 34.5179 12.4452 34.3162 12.9637L33.4117 15.2684C34.299 15.6717 34.95 16.3919 35.29 17.4002L36.3098 16.8702ZM32.5474 18.7888C32.5704 18.2242 32.1786 17.9879 31.6659 18.253C31.6486 18.2645 31.6313 18.2703 31.614 18.2818C31.1243 18.5641 30.7209 19.2094 30.7036 19.751C30.6806 20.3099 31.0724 20.5519 31.5852 20.2869C31.6025 20.2753 31.6198 20.2696 31.637 20.258C32.121 19.9815 32.5243 19.3362 32.5474 18.7888Z"
        fill="#4040FF" />
    <path
        d="M26.8911 18.4204C27.4097 18.1208 27.957 17.8673 28.4929 17.7232C28.66 17.6771 28.7579 17.8154 28.7176 18.0343C28.683 18.2187 28.5562 18.3973 28.418 18.4722C28.3892 18.4895 28.3661 18.501 28.3373 18.5068C27.8706 18.6336 27.3751 18.8583 26.8969 19.1348C26.0902 19.6015 25.3182 20.2123 24.7477 20.702C24.1773 21.1975 23.8086 21.572 23.8086 21.5778C23.7683 21.6181 23.7337 21.6469 23.6934 21.67C23.5666 21.7391 23.4514 21.7218 23.4053 21.6124C23.3419 21.4626 23.4168 21.2091 23.5781 21.0477C23.5896 21.0362 23.9757 20.6386 24.5807 20.1143C25.1799 19.5842 26.0038 18.9332 26.8911 18.4204Z"
        fill="#FDFDFF" />
    <path
        d="M30.8927 17.7924C31.3997 17.4986 31.8146 17.7348 31.8146 18.3167C31.8146 18.8987 31.4055 19.6074 30.8984 19.9012C30.3914 20.1951 29.9766 19.9588 29.9766 19.3769C29.9766 18.795 30.3856 18.0863 30.8927 17.7924Z"
        fill="#2828CE" />
    <path
        d="M31.9954 18.2475C32.0069 18.2417 32.0242 18.2417 32.0357 18.2359C32.0473 18.2302 32.0588 18.2302 32.0761 18.2302C32.0934 18.2244 32.1106 18.2244 32.1222 18.2244H32.2201C32.2432 18.2244 32.2662 18.2302 32.2893 18.2302C32.295 18.2302 32.3008 18.2302 32.3065 18.2359L32.3584 18.2532C32.3642 18.2532 32.3699 18.259 32.3757 18.259C32.3987 18.2647 32.416 18.2763 32.4333 18.2878L31.811 17.9248H31.8053C31.788 17.919 31.7765 17.9075 31.7592 17.9018C31.7534 17.9018 31.7534 17.9018 31.7477 17.896C31.7419 17.896 31.7361 17.8902 31.7304 17.8902C31.7246 17.8902 31.7131 17.8845 31.7073 17.8845C31.7016 17.8845 31.69 17.8787 31.6785 17.8787C31.6728 17.8787 31.667 17.8787 31.6612 17.8729H31.6497C31.6324 17.8672 31.6151 17.8672 31.5921 17.8672H31.4596C31.4538 17.8672 31.4423 17.8729 31.4365 17.8729C31.425 17.8729 31.4135 17.8787 31.3962 17.8787C31.3904 17.8787 31.3847 17.8787 31.3731 17.8845C31.3674 17.8845 31.3616 17.8902 31.3501 17.8902C31.3271 17.896 31.3098 17.9018 31.2867 17.9133C31.281 17.919 31.2694 17.919 31.2637 17.919C31.2579 17.919 31.2522 17.9248 31.2522 17.9248C31.2118 17.9421 31.1772 17.9594 31.1369 17.9824C31.1081 17.9997 31.0793 18.017 31.0505 18.04C31.039 18.0458 31.0332 18.0516 31.0217 18.0631C31.0044 18.0746 30.9814 18.0919 30.9641 18.1092C30.9525 18.1149 30.941 18.1265 30.9353 18.138C30.918 18.1553 30.9007 18.1668 30.8834 18.1841C30.8719 18.1956 30.8604 18.2014 30.8546 18.2129L30.8373 18.2302C30.8315 18.2359 30.8258 18.2417 30.82 18.2532L30.7566 18.3166C30.7509 18.3224 30.7451 18.3281 30.7394 18.3396L30.7221 18.3569C30.7105 18.3685 30.699 18.3857 30.6875 18.403C30.6817 18.4146 30.6702 18.4203 30.6645 18.4318C30.6587 18.4376 30.6529 18.4491 30.6472 18.4549C30.6414 18.4664 30.6299 18.4779 30.6241 18.4895C30.6184 18.4952 30.6126 18.5067 30.6068 18.5125C30.5953 18.524 30.5896 18.5413 30.578 18.5528C30.5723 18.5644 30.5665 18.5701 30.5607 18.5816C30.5607 18.5874 30.555 18.5874 30.555 18.5932C30.5377 18.6162 30.5204 18.645 30.5089 18.6738C30.5089 18.6738 30.5089 18.6796 30.5031 18.6796C30.4974 18.6854 30.4974 18.6911 30.4916 18.6969C30.4801 18.7142 30.4686 18.7314 30.4628 18.7545C30.457 18.766 30.4513 18.7718 30.4513 18.7833C30.4455 18.7948 30.4397 18.8006 30.4397 18.8121C30.434 18.8179 30.434 18.8294 30.4282 18.8352C30.4167 18.8582 30.4109 18.8755 30.3994 18.8985C30.3994 18.9043 30.3937 18.9043 30.3937 18.9101V18.9158C30.3821 18.9446 30.3706 18.9734 30.3591 18.9965C30.3591 19.0022 30.3533 19.008 30.3533 19.0138C30.3476 19.0253 30.3476 19.0368 30.3418 19.0426C30.336 19.0541 30.3303 19.0714 30.3245 19.0829C30.3188 19.0944 30.3188 19.106 30.313 19.1175C30.3072 19.129 30.3072 19.1405 30.3015 19.1578C30.3015 19.1636 30.2957 19.1751 30.2957 19.1809C30.2899 19.1924 30.2899 19.2097 30.2842 19.2212C30.2784 19.2385 30.2784 19.25 30.2727 19.2673C30.2727 19.273 30.2727 19.2788 30.2669 19.2846C30.2669 19.2961 30.2611 19.3076 30.2611 19.3191C30.2554 19.3422 30.2496 19.3652 30.2496 19.394C30.2496 19.3998 30.2496 19.4056 30.2439 19.4171C30.2439 19.4344 30.2381 19.4459 30.2381 19.4632C30.2381 19.4747 30.2381 19.4862 30.2323 19.4978C30.2323 19.5323 30.2266 19.5669 30.2266 19.6015C30.2266 19.8896 30.3303 20.097 30.4974 20.1892L31.1196 20.5521C30.9525 20.4542 30.8546 20.2525 30.8488 19.9645C30.8488 19.9299 30.8488 19.8953 30.8546 19.8607C30.8546 19.8492 30.8546 19.8377 30.8604 19.8262C30.8604 19.8031 30.8661 19.7801 30.8661 19.7628C30.8719 19.7397 30.8719 19.7167 30.8776 19.6879C30.8834 19.6706 30.8834 19.6533 30.8892 19.636C30.8949 19.6187 30.8949 19.6072 30.9007 19.5899C30.9064 19.5669 30.9122 19.5438 30.918 19.5266C30.9237 19.515 30.9237 19.5035 30.9295 19.4862C30.9353 19.4632 30.9468 19.4344 30.9525 19.4113C30.9583 19.3998 30.9583 19.3883 30.9641 19.3825C30.9756 19.3479 30.9929 19.3134 31.0044 19.2846C31.0044 19.2788 31.0102 19.2788 31.0102 19.273C31.0217 19.2442 31.039 19.2154 31.0505 19.1866C31.0563 19.1751 31.062 19.1693 31.062 19.1578C31.0735 19.129 31.0908 19.1002 31.1081 19.0771C31.1139 19.0714 31.1139 19.0656 31.1196 19.0599C31.1369 19.0253 31.16 18.9965 31.1772 18.9677C31.183 18.9562 31.1888 18.9504 31.1945 18.9389C31.2118 18.9158 31.2233 18.8928 31.2406 18.8755C31.2464 18.864 31.2579 18.8524 31.2637 18.8409C31.2752 18.8236 31.2925 18.8063 31.304 18.7891C31.3155 18.7718 31.3271 18.7603 31.3386 18.743C31.3501 18.7314 31.3616 18.7142 31.3731 18.7026C31.3904 18.6796 31.4135 18.6565 31.4365 18.6393C31.448 18.6277 31.4596 18.6104 31.4769 18.5989C31.4884 18.5874 31.4999 18.5816 31.5057 18.5701C31.5229 18.5528 31.5402 18.5413 31.5575 18.524C31.569 18.5125 31.5806 18.5067 31.5863 18.4952C31.6036 18.4779 31.6267 18.4664 31.6439 18.4491C31.6555 18.4434 31.6612 18.4376 31.6728 18.4261C31.7016 18.4088 31.7304 18.3857 31.7592 18.3685C31.7995 18.3454 31.8341 18.3281 31.8744 18.3108L31.909 18.2936C31.9493 18.2647 31.9724 18.2532 31.9954 18.2475Z"
        fill="#ACC5EA" />
    <path
        d="M31.7755 18.3452C32.2825 18.0513 32.6974 18.2875 32.6974 18.8695C32.6974 19.4514 32.2883 20.1601 31.7812 20.454C31.2742 20.7478 30.8594 20.5116 30.8594 19.9296C30.8594 19.3477 31.2685 18.639 31.7755 18.3452Z"
        fill="#FDFDFF" />
    <path
        d="M42.1945 32.1101C42.1945 32.1331 42.1945 32.1562 42.1888 32.1792C42.1888 32.2022 42.183 32.2195 42.183 32.2426C42.1772 32.2656 42.1772 32.2887 42.1715 32.3117C42.1657 32.3348 42.1657 32.3521 42.16 32.3751L42.1427 32.4442C42.1369 32.4673 42.1312 32.4846 42.1254 32.5076C42.1196 32.5307 42.1139 32.5537 42.1023 32.5768C42.0966 32.594 42.0851 32.6171 42.0793 32.6344C42.0678 32.6574 42.062 32.6805 42.0505 32.7035C42.039 32.7208 42.0332 32.7438 42.0217 32.7611L41.9871 32.8303C41.9756 32.8476 41.9641 32.8648 41.9583 32.8879C41.941 32.9167 41.9237 32.9397 41.9064 32.9686L41.8719 33.0204C41.8488 33.0492 41.8315 33.078 41.8085 33.1126C41.797 33.1241 41.7912 33.1414 41.7797 33.1529C41.7451 33.199 41.7048 33.2451 41.6587 33.2912L41.6241 33.3258L41.5204 33.4295C41.5031 33.4468 41.4858 33.4583 41.4686 33.4756C41.4455 33.4929 41.4225 33.5159 41.3994 33.5332C41.3764 33.5505 41.3591 33.5678 41.336 33.5851C41.313 33.6023 41.2899 33.6254 41.2611 33.6427L41.192 33.6945C41.1689 33.7118 41.1401 33.7291 41.1113 33.7521C41.0883 33.7694 41.0652 33.7867 41.0364 33.804L40.95 33.8559C40.9154 33.8789 40.8809 33.902 40.8405 33.9192C40.7714 33.9596 40.7022 33.9999 40.6273 34.0345C40.6043 34.046 40.587 34.0575 40.564 34.0633C40.5063 34.0921 40.4487 34.1151 40.3911 34.1439C40.3738 34.1555 40.3508 34.1612 40.3335 34.1728C40.2586 34.2073 40.1837 34.2361 40.103 34.2649C40.0915 34.2707 40.0742 34.2765 40.0627 34.2822C39.9993 34.3053 39.9302 34.3283 39.861 34.3514C39.8322 34.3629 39.8034 34.3687 39.7746 34.3802C39.74 34.3917 39.6997 34.4032 39.6594 34.4147C39.6248 34.4263 39.596 34.432 39.5614 34.4436C39.5211 34.4551 39.4865 34.4666 39.4462 34.4724C39.4116 34.4781 39.3828 34.4896 39.3482 34.4954C39.3079 34.5069 39.2676 34.5127 39.233 34.5242C39.1984 34.53 39.1696 34.5415 39.1351 34.5473C39.0947 34.553 39.0544 34.5646 39.0141 34.5703C38.9853 34.5761 38.9507 34.5818 38.9219 34.5876C38.8354 34.6049 38.749 34.6164 38.6626 34.6279C38.6511 34.6279 38.6395 34.6337 38.6223 34.6337C38.5474 34.6452 38.4725 34.651 38.3918 34.6625C38.363 34.6683 38.3342 34.6683 38.3054 34.674C38.2535 34.6798 38.2074 34.6855 38.1556 34.6855C38.1268 34.6855 38.0922 34.6913 38.0634 34.6913C38.0115 34.6971 37.9597 34.6971 37.9078 34.6971C37.879 34.6971 37.8502 34.6971 37.8214 34.7028H37.3662C37.3201 34.7028 37.2798 34.6971 37.2337 34.6971C37.2049 34.6971 37.1703 34.6971 37.1415 34.6913C37.0954 34.6913 37.0436 34.6855 36.9975 34.6798C36.9687 34.6798 36.9456 34.674 36.9168 34.674L36.7439 34.6567C36.7267 34.6567 36.7094 34.651 36.6921 34.651C36.6172 34.6452 36.5423 34.6337 36.4731 34.6222C36.4616 34.6222 36.4501 34.6164 36.4386 34.6164C36.3752 34.6049 36.3118 34.5991 36.2484 34.5876C36.2254 34.5818 36.1966 34.5761 36.1735 34.5761C36.1274 34.5645 36.0756 34.5588 36.0295 34.5473C36.0064 34.5415 35.9834 34.5357 35.9546 34.53L35.799 34.4954C35.7702 34.4896 35.7414 34.4839 35.7126 34.4724L35.5743 34.4378C35.5455 34.432 35.5225 34.4205 35.4937 34.4147C35.4187 34.3917 35.3496 34.3687 35.2747 34.3456C35.2632 34.3398 35.2459 34.3398 35.2344 34.3341L34.9924 34.2477C34.9751 34.2419 34.9578 34.2361 34.9405 34.2246C34.8368 34.1843 34.7331 34.1382 34.6352 34.0921C34.6236 34.0863 34.6179 34.0806 34.6063 34.0748C34.5026 34.023 34.3989 33.9711 34.301 33.9135C33.9034 33.683 33.5923 33.4237 33.3676 33.1414C33.1774 32.8994 33.0449 32.6517 32.9815 32.3924C32.97 32.3521 32.9643 32.306 32.9527 32.2656C32.9412 32.1792 32.9297 32.0928 32.9297 32.0063V32.9916C32.9297 33.683 33.3849 34.3744 34.2952 34.8987C34.3932 34.9563 34.4969 35.0082 34.6006 35.0601C34.6121 35.0658 34.6179 35.0716 34.6294 35.0773C34.7273 35.1234 34.8311 35.1695 34.9348 35.2099C34.9463 35.2156 34.952 35.2156 34.9636 35.2214C34.9693 35.2271 34.9809 35.2271 34.9866 35.2271C35.0673 35.256 35.148 35.2905 35.2286 35.3136C35.2401 35.3193 35.2574 35.3193 35.2689 35.3251C35.3381 35.3481 35.413 35.3712 35.4879 35.3942C35.4994 35.4 35.5109 35.4 35.5225 35.4058C35.534 35.4115 35.5513 35.4115 35.5628 35.4173L35.7011 35.4519C35.7299 35.4576 35.7587 35.4691 35.7875 35.4749L35.9431 35.5095C35.9604 35.5152 35.9834 35.521 36.0007 35.521C36.0064 35.521 36.0122 35.521 36.018 35.5268C36.0641 35.5383 36.1159 35.544 36.162 35.5556C36.1851 35.5613 36.2139 35.5671 36.2369 35.5671C36.3003 35.5786 36.3637 35.5901 36.4271 35.5959C36.4386 35.5959 36.4501 35.6017 36.4616 35.6017C36.5365 35.6132 36.6114 35.6189 36.6806 35.6305C36.6978 35.6305 36.7094 35.6305 36.7267 35.6362C36.7843 35.642 36.8419 35.6478 36.9053 35.6535H36.911C36.9398 35.6535 36.9629 35.6593 36.9917 35.6593C37.0378 35.665 37.0839 35.665 37.1357 35.6708C37.1646 35.6708 37.1991 35.6708 37.2279 35.6766C37.274 35.6766 37.3144 35.6823 37.3605 35.6823H37.8444C37.8675 35.6823 37.8848 35.6823 37.9078 35.6766C37.9597 35.6766 38.0115 35.6708 38.0634 35.6708C38.0922 35.6708 38.1268 35.665 38.1556 35.665C38.2074 35.6593 38.2535 35.6593 38.3054 35.6535C38.3227 35.6535 38.3399 35.6535 38.3572 35.6478C38.3688 35.6478 38.3803 35.642 38.3918 35.642C38.4667 35.6362 38.5474 35.6247 38.6223 35.6132C38.6338 35.6132 38.6453 35.6074 38.6568 35.6074C38.7433 35.5959 38.8297 35.5786 38.9161 35.5671C38.9219 35.5671 38.9334 35.5671 38.9392 35.5613C38.9622 35.5556 38.9853 35.5498 39.0083 35.5498C39.0486 35.544 39.089 35.5325 39.1293 35.5268C39.1639 35.521 39.1927 35.5152 39.2272 35.5037C39.2676 35.4922 39.3079 35.4864 39.3482 35.4749C39.3828 35.4691 39.4116 35.4576 39.4462 35.4519C39.4865 35.4403 39.5211 35.4346 39.5614 35.423C39.596 35.4115 39.6248 35.4058 39.6594 35.3942C39.6997 35.3827 39.7343 35.3712 39.7688 35.3597L39.8207 35.3424C39.8322 35.3366 39.8438 35.3366 39.8553 35.3309C39.9244 35.3078 39.9878 35.2848 40.0569 35.2617C40.0685 35.256 40.0857 35.2502 40.0973 35.2444C40.1779 35.2156 40.2528 35.1811 40.3277 35.1522C40.345 35.1465 40.3681 35.135 40.3854 35.1234C40.443 35.0946 40.5006 35.0716 40.5582 35.0428C40.5813 35.0313 40.5985 35.0197 40.6216 35.014C40.6965 34.9794 40.7656 34.9391 40.8348 34.8987C40.8521 34.8872 40.8751 34.8757 40.8924 34.8642L40.9442 34.8296L41.0307 34.7777C41.0537 34.7604 41.0825 34.7432 41.1056 34.7259C41.1344 34.7086 41.1574 34.6913 41.1862 34.6683L41.2554 34.6164C41.2784 34.5991 41.3015 34.5761 41.3303 34.5588C41.3533 34.5415 41.3706 34.5242 41.3937 34.5069C41.4167 34.4897 41.4397 34.4666 41.4628 34.4493C41.4743 34.4436 41.4801 34.432 41.4916 34.4263L41.5146 34.4032L41.6184 34.2995L41.6529 34.2649L41.7739 34.1267L41.7797 34.1209C41.7854 34.1094 41.797 34.0979 41.8027 34.0863C41.8258 34.0575 41.8488 34.0287 41.8661 33.9941L41.9007 33.9423C41.918 33.9135 41.9353 33.8904 41.9525 33.8616C41.9583 33.8559 41.9641 33.8443 41.9641 33.8386L41.9813 33.804L42.0159 33.7349C42.0274 33.7176 42.0332 33.6945 42.0447 33.6772C42.0563 33.6542 42.0678 33.6312 42.0735 33.6081C42.0793 33.5966 42.0851 33.5851 42.0851 33.5793C42.0908 33.5678 42.0908 33.562 42.0966 33.5505C42.1023 33.5274 42.1139 33.5044 42.1196 33.4813C42.1254 33.4583 42.1312 33.441 42.1369 33.418L42.1542 33.3488C42.1542 33.3373 42.16 33.3258 42.1657 33.3143C42.1657 33.3085 42.1657 33.297 42.1715 33.2912C42.1772 33.2682 42.1772 33.2451 42.183 33.2221C42.183 33.199 42.1888 33.1817 42.1888 33.1587C42.1888 33.1356 42.1945 33.1126 42.1945 33.0896C42.1945 33.078 42.1945 33.0607 42.2003 33.0492V32.0236C42.2003 32.0582 42.2003 32.087 42.1945 32.1101Z"
        fill="#C68620" />
    <path
        d="M40.8319 30.1225C42.6411 31.1654 42.6526 32.8651 40.8549 33.9079C39.0573 34.9508 36.1303 34.9508 34.3211 33.9079C32.512 32.8593 32.5004 31.1654 34.2981 30.1225C36.0958 29.0796 39.0227 29.0796 40.8319 30.1225Z"
        fill="#FFCD2E" />
    <path
        d="M42.1945 30.7907C42.1945 30.8138 42.1945 30.8368 42.1888 30.8599C42.1888 30.8829 42.183 30.9002 42.183 30.9232C42.1772 30.9463 42.1772 30.9693 42.1715 30.9924C42.1657 31.0154 42.1657 31.0327 42.16 31.0558L42.1427 31.1249C42.1369 31.148 42.1312 31.1652 42.1254 31.1883C42.1196 31.2113 42.1139 31.2344 42.1023 31.2574C42.0966 31.2747 42.0851 31.2978 42.0793 31.315C42.0678 31.3381 42.062 31.3611 42.0505 31.3842C42.039 31.4015 42.0332 31.4245 42.0217 31.4418L41.9871 31.5109C41.9756 31.5282 41.9641 31.5455 41.9583 31.5686C41.941 31.5974 41.9237 31.6204 41.9064 31.6492L41.8719 31.7011C41.8488 31.7299 41.8315 31.7587 41.8085 31.7933C41.797 31.8048 41.7912 31.8221 41.7797 31.8336C41.7451 31.8797 41.7048 31.9258 41.6587 31.9719L41.6241 32.0064L41.5204 32.1102C41.5031 32.1274 41.4858 32.139 41.4686 32.1562C41.4455 32.1735 41.4225 32.1966 41.3994 32.2139C41.3764 32.2312 41.3591 32.2484 41.336 32.2657C41.313 32.283 41.2899 32.3061 41.2611 32.3233L41.192 32.3752C41.1689 32.3925 41.1401 32.4098 41.1113 32.4328C41.0883 32.4501 41.0652 32.4674 41.0364 32.4847L40.95 32.5365C40.9154 32.5596 40.8809 32.5826 40.8405 32.5999C40.7714 32.6402 40.7022 32.6806 40.6273 32.7151C40.6043 32.7267 40.587 32.7382 40.564 32.7439C40.5063 32.7728 40.4487 32.7958 40.3911 32.8246C40.3738 32.8361 40.3508 32.8419 40.3335 32.8534C40.2586 32.888 40.1837 32.9168 40.103 32.9456C40.0915 32.9514 40.0742 32.9571 40.0627 32.9629C39.9993 32.9859 39.9302 33.009 39.861 33.032C39.8322 33.0436 39.8034 33.0493 39.7746 33.0608C39.74 33.0724 39.6997 33.0839 39.6594 33.0954C39.6248 33.1069 39.596 33.1127 39.5614 33.1242C39.5211 33.1357 39.4865 33.1473 39.4462 33.153C39.4116 33.1588 39.3828 33.1703 39.3482 33.1761C39.3079 33.1876 39.2676 33.1934 39.233 33.2049C39.1984 33.2106 39.1696 33.2222 39.1351 33.2279C39.0947 33.2337 39.0544 33.2452 39.0141 33.251C38.9853 33.2567 38.9507 33.2625 38.9219 33.2683C38.8354 33.2855 38.749 33.2971 38.6626 33.3086C38.6511 33.3086 38.6395 33.3144 38.6223 33.3144C38.5474 33.3259 38.4725 33.3316 38.3918 33.3432C38.363 33.3489 38.3342 33.3489 38.3054 33.3547C38.2535 33.3605 38.2074 33.3662 38.1556 33.3662C38.1268 33.3662 38.0922 33.372 38.0634 33.372C38.0115 33.3777 37.9597 33.3777 37.9078 33.3777C37.879 33.3777 37.8502 33.3777 37.8214 33.3835H37.3662C37.3201 33.3835 37.2798 33.3777 37.2337 33.3777C37.2049 33.3777 37.1703 33.3777 37.1415 33.372C37.0954 33.372 37.0436 33.3662 36.9975 33.3605C36.9687 33.3605 36.9456 33.3547 36.9168 33.3547L36.7439 33.3374C36.7267 33.3374 36.7094 33.3316 36.6921 33.3316C36.6172 33.3259 36.5423 33.3144 36.4731 33.3028C36.4616 33.3028 36.4501 33.2971 36.4386 33.2971C36.3752 33.2855 36.3118 33.2798 36.2484 33.2683C36.2254 33.2625 36.1966 33.2567 36.1735 33.2567C36.1274 33.2452 36.0756 33.2395 36.0295 33.2279C36.0064 33.2222 35.9834 33.2164 35.9546 33.2106L35.799 33.1761C35.7702 33.1703 35.7414 33.1646 35.7126 33.153L35.5743 33.1185C35.5455 33.1127 35.5225 33.1012 35.4937 33.0954C35.4187 33.0724 35.3496 33.0493 35.2747 33.0263C35.2632 33.0205 35.2459 33.0205 35.2344 33.0147L34.9924 32.9283C34.9751 32.9226 34.9578 32.9168 34.9405 32.9053C34.8368 32.8649 34.7331 32.8188 34.6352 32.7728C34.6236 32.767 34.6179 32.7612 34.6063 32.7555C34.5026 32.7036 34.3989 32.6518 34.301 32.5941C33.9034 32.3637 33.5923 32.1044 33.3676 31.8221C33.1774 31.5801 33.0449 31.3323 32.9815 31.073C32.97 31.0327 32.9643 30.9866 32.9527 30.9463C32.9412 30.8599 32.9297 30.7734 32.9297 30.687V31.6723C32.9297 32.3637 33.3849 33.0551 34.2952 33.5794C34.3932 33.637 34.4969 33.6889 34.6006 33.7407C34.6121 33.7465 34.6179 33.7522 34.6294 33.758C34.7273 33.8041 34.8311 33.8502 34.9348 33.8905C34.9463 33.8963 34.952 33.8963 34.9636 33.9021C34.9693 33.9078 34.9809 33.9078 34.9866 33.9078C35.0673 33.9366 35.148 33.9712 35.2286 33.9942C35.2401 34 35.2574 34 35.2689 34.0058C35.3381 34.0288 35.413 34.0519 35.4879 34.0749C35.4994 34.0807 35.5109 34.0807 35.5225 34.0864C35.534 34.0922 35.5513 34.0922 35.5628 34.0979L35.7011 34.1325C35.7299 34.1383 35.7587 34.1498 35.7875 34.1556L35.9431 34.1901C35.9604 34.1959 35.9834 34.2017 36.0007 34.2017C36.0064 34.2017 36.0122 34.2017 36.018 34.2074C36.0641 34.2189 36.1159 34.2247 36.162 34.2362C36.1851 34.242 36.2139 34.2478 36.2369 34.2478C36.3003 34.2593 36.3637 34.2708 36.4271 34.2766C36.4386 34.2766 36.4501 34.2823 36.4616 34.2823C36.5365 34.2938 36.6114 34.2996 36.6806 34.3111C36.6978 34.3111 36.7094 34.3111 36.7267 34.3169C36.7843 34.3227 36.8419 34.3284 36.9053 34.3342H36.911C36.9398 34.3342 36.9629 34.3399 36.9917 34.3399C37.0378 34.3457 37.0839 34.3457 37.1357 34.3515C37.1646 34.3515 37.1991 34.3515 37.2279 34.3572C37.274 34.3572 37.3144 34.363 37.3605 34.363H37.8444C37.8675 34.363 37.8848 34.363 37.9078 34.3572C37.9597 34.3572 38.0115 34.3515 38.0634 34.3515C38.0922 34.3515 38.1268 34.3457 38.1556 34.3457C38.2074 34.3399 38.2535 34.3399 38.3054 34.3342C38.3227 34.3342 38.3399 34.3342 38.3572 34.3284C38.3688 34.3284 38.3803 34.3227 38.3918 34.3227C38.4667 34.3169 38.5474 34.3054 38.6223 34.2938C38.6338 34.2938 38.6453 34.2881 38.6568 34.2881C38.7433 34.2766 38.8297 34.2593 38.9161 34.2478C38.9219 34.2478 38.9334 34.2478 38.9392 34.242C38.9622 34.2362 38.9853 34.2305 39.0083 34.2305C39.0486 34.2247 39.089 34.2132 39.1293 34.2074C39.1639 34.2017 39.1927 34.1959 39.2272 34.1844C39.2676 34.1729 39.3079 34.1671 39.3482 34.1556C39.3828 34.1498 39.4116 34.1383 39.4462 34.1325C39.4865 34.121 39.5211 34.1152 39.5614 34.1037C39.596 34.0922 39.6248 34.0864 39.6594 34.0749C39.6997 34.0634 39.7343 34.0519 39.7688 34.0403L39.8207 34.023C39.8322 34.0173 39.8438 34.0173 39.8553 34.0115C39.9244 33.9885 39.9878 33.9654 40.0569 33.9424C40.0685 33.9366 40.0857 33.9309 40.0973 33.9251C40.1779 33.8963 40.2528 33.8617 40.3277 33.8329C40.345 33.8272 40.3681 33.8156 40.3854 33.8041C40.443 33.7753 40.5006 33.7522 40.5582 33.7234C40.5813 33.7119 40.5985 33.7004 40.6216 33.6946C40.6965 33.6601 40.7656 33.6197 40.8348 33.5794C40.8521 33.5679 40.8751 33.5563 40.8924 33.5448L40.9442 33.5103L41.0307 33.4584C41.0537 33.4411 41.0825 33.4238 41.1056 33.4065C41.1344 33.3893 41.1574 33.372 41.1862 33.3489L41.2554 33.2971C41.2784 33.2798 41.3015 33.2567 41.3303 33.2395C41.3533 33.2222 41.3706 33.2049 41.3937 33.1876C41.4167 33.1703 41.4397 33.1473 41.4628 33.13C41.4743 33.1242 41.4801 33.1127 41.4916 33.1069L41.5146 33.0839L41.6184 32.9802L41.6529 32.9456L41.7739 32.8073L41.7797 32.8016C41.7854 32.79 41.797 32.7785 41.8027 32.767C41.8258 32.7382 41.8488 32.7094 41.8661 32.6748L41.9007 32.623C41.918 32.5941 41.9353 32.5711 41.9525 32.5423C41.9583 32.5365 41.9641 32.525 41.9641 32.5192L41.9813 32.4847L42.0159 32.4155C42.0274 32.3982 42.0332 32.3752 42.0447 32.3579C42.0563 32.3349 42.0678 32.3118 42.0735 32.2888C42.0793 32.2772 42.0851 32.2657 42.0851 32.26C42.0908 32.2484 42.0908 32.2427 42.0966 32.2312C42.1023 32.2081 42.1139 32.1851 42.1196 32.162C42.1254 32.139 42.1312 32.1217 42.1369 32.0986L42.1542 32.0295C42.1542 32.018 42.16 32.0064 42.1657 31.9949C42.1657 31.9892 42.1657 31.9776 42.1715 31.9719C42.1772 31.9488 42.1772 31.9258 42.183 31.9027C42.183 31.8797 42.1888 31.8624 42.1888 31.8394C42.1888 31.8163 42.1945 31.7933 42.1945 31.7702C42.1945 31.7587 42.1945 31.7414 42.2003 31.7299V30.7043C42.2003 30.7389 42.2003 30.7619 42.1945 30.7907Z"
        fill="#C68620" />
    <path
        d="M40.8319 28.8027C42.6411 29.8455 42.6526 31.5452 40.8549 32.5881C39.0573 33.631 36.1303 33.631 34.3211 32.5881C32.512 31.5395 32.5004 29.8455 34.2981 28.8027C36.0958 27.7598 39.0227 27.7598 40.8319 28.8027Z"
        fill="#FFCD2E" />
    <path
        d="M42.1945 29.3615C42.1945 29.3846 42.1945 29.4076 42.1888 29.4307C42.1888 29.4537 42.183 29.471 42.183 29.494C42.1772 29.5171 42.1772 29.5401 42.1715 29.5632C42.1657 29.5862 42.1657 29.6035 42.16 29.6266L42.1427 29.6957C42.1369 29.7188 42.1312 29.736 42.1254 29.7591C42.1196 29.7821 42.1139 29.8052 42.1023 29.8282C42.0966 29.8455 42.0851 29.8686 42.0793 29.8858C42.0678 29.9089 42.062 29.9319 42.0505 29.955C42.039 29.9723 42.0332 29.9953 42.0217 30.0126L41.9871 30.0817C41.9756 30.099 41.9641 30.1163 41.9583 30.1394C41.941 30.1682 41.9237 30.1912 41.9064 30.22L41.8719 30.2719C41.8488 30.3007 41.8315 30.3295 41.8085 30.3641C41.797 30.3756 41.7912 30.3929 41.7797 30.4044C41.7451 30.4505 41.7048 30.4966 41.6587 30.5427L41.6241 30.5772L41.5204 30.681C41.5031 30.6982 41.4858 30.7098 41.4686 30.7271C41.4455 30.7443 41.4225 30.7674 41.3994 30.7847C41.3764 30.802 41.3591 30.8192 41.336 30.8365C41.313 30.8538 41.2899 30.8769 41.2611 30.8941L41.192 30.946C41.1689 30.9633 41.1401 30.9806 41.1113 31.0036C41.0883 31.0209 41.0652 31.0382 41.0364 31.0555L40.95 31.1073C40.9154 31.1304 40.8809 31.1534 40.8405 31.1707C40.7714 31.211 40.7022 31.2514 40.6273 31.2859C40.6043 31.2975 40.587 31.309 40.564 31.3147C40.5063 31.3436 40.4487 31.3666 40.3911 31.3954C40.3738 31.4069 40.3508 31.4127 40.3335 31.4242C40.2586 31.4588 40.1837 31.4876 40.103 31.5164C40.0915 31.5222 40.0742 31.5279 40.0627 31.5337C39.9993 31.5567 39.9302 31.5798 39.861 31.6028C39.8322 31.6144 39.8034 31.6201 39.7746 31.6316C39.74 31.6432 39.6997 31.6547 39.6594 31.6662C39.6248 31.6777 39.596 31.6835 39.5614 31.695C39.5211 31.7065 39.4865 31.7181 39.4462 31.7238C39.4116 31.7296 39.3828 31.7411 39.3482 31.7469C39.3079 31.7584 39.2676 31.7642 39.233 31.7757C39.1984 31.7814 39.1696 31.793 39.1351 31.7987C39.0947 31.8045 39.0544 31.816 39.0141 31.8218C38.9853 31.8275 38.9507 31.8333 38.9219 31.8391C38.8354 31.8563 38.749 31.8679 38.6626 31.8794C38.6511 31.8794 38.6395 31.8852 38.6223 31.8852C38.5474 31.8967 38.4725 31.9024 38.3918 31.914C38.363 31.9197 38.3342 31.9197 38.3054 31.9255C38.2535 31.9312 38.2074 31.937 38.1556 31.937C38.1268 31.937 38.0922 31.9428 38.0634 31.9428C38.0115 31.9485 37.9597 31.9485 37.9078 31.9485C37.879 31.9485 37.8502 31.9485 37.8214 31.9543H37.3662C37.3201 31.9543 37.2798 31.9485 37.2337 31.9485C37.2049 31.9485 37.1703 31.9485 37.1415 31.9428C37.0954 31.9428 37.0436 31.937 36.9975 31.9313C36.9687 31.9313 36.9456 31.9255 36.9168 31.9255L36.7439 31.9082C36.7267 31.9082 36.7094 31.9024 36.6921 31.9024C36.6172 31.8967 36.5423 31.8852 36.4731 31.8736C36.4616 31.8736 36.4501 31.8679 36.4386 31.8679C36.3752 31.8563 36.3118 31.8506 36.2484 31.8391C36.2254 31.8333 36.1966 31.8275 36.1735 31.8275C36.1274 31.816 36.0756 31.8103 36.0295 31.7987C36.0064 31.793 35.9834 31.7872 35.9546 31.7814L35.799 31.7469C35.7702 31.7411 35.7414 31.7354 35.7126 31.7238L35.5743 31.6893C35.5455 31.6835 35.5225 31.672 35.4937 31.6662C35.4187 31.6432 35.3496 31.6201 35.2747 31.5971C35.2632 31.5913 35.2459 31.5913 35.2344 31.5855L34.9924 31.4991C34.9751 31.4934 34.9578 31.4876 34.9405 31.4761C34.8368 31.4357 34.7331 31.3896 34.6352 31.3436C34.6236 31.3378 34.6179 31.332 34.6063 31.3263C34.5026 31.2744 34.3989 31.2226 34.301 31.1649C33.9034 30.9345 33.5923 30.6752 33.3676 30.3929C33.1774 30.1509 33.0449 29.9031 32.9815 29.6438C32.97 29.6035 32.9643 29.5574 32.9527 29.5171C32.9412 29.4307 32.9297 29.3442 32.9297 29.2578V30.2431C32.9297 30.9345 33.3849 31.6259 34.2952 32.1502C34.3932 32.2078 34.4969 32.2597 34.6006 32.3115C34.6121 32.3173 34.6179 32.323 34.6294 32.3288C34.7273 32.3749 34.8311 32.421 34.9348 32.4613C34.9463 32.4671 34.952 32.4671 34.9636 32.4729C34.9693 32.4786 34.9809 32.4786 34.9866 32.4786C35.0673 32.5074 35.148 32.542 35.2286 32.565C35.2401 32.5708 35.2574 32.5708 35.2689 32.5766C35.3381 32.5996 35.413 32.6227 35.4879 32.6457C35.4994 32.6515 35.5109 32.6515 35.5225 32.6572C35.534 32.663 35.5513 32.663 35.5628 32.6688L35.7011 32.7033C35.7299 32.7091 35.7587 32.7206 35.7875 32.7264L35.9431 32.7609C35.9604 32.7667 35.9834 32.7725 36.0007 32.7725C36.0064 32.7725 36.0122 32.7725 36.018 32.7782C36.0641 32.7897 36.1159 32.7955 36.162 32.807C36.1851 32.8128 36.2139 32.8186 36.2369 32.8186C36.3003 32.8301 36.3637 32.8416 36.4271 32.8474C36.4386 32.8474 36.4501 32.8531 36.4616 32.8531C36.5365 32.8647 36.6114 32.8704 36.6806 32.8819C36.6978 32.8819 36.7094 32.8819 36.7267 32.8877C36.7843 32.8935 36.8419 32.8992 36.9053 32.905H36.911C36.9398 32.905 36.9629 32.9107 36.9917 32.9107C37.0378 32.9165 37.0839 32.9165 37.1357 32.9223C37.1646 32.9223 37.1991 32.9223 37.2279 32.928C37.274 32.928 37.3144 32.9338 37.3605 32.9338H37.8444C37.8675 32.9338 37.8848 32.9338 37.9078 32.928C37.9597 32.928 38.0115 32.9223 38.0634 32.9223C38.0922 32.9223 38.1268 32.9165 38.1556 32.9165C38.2074 32.9107 38.2535 32.9107 38.3054 32.905C38.3227 32.905 38.3399 32.905 38.3572 32.8992C38.3688 32.8992 38.3803 32.8935 38.3918 32.8935C38.4667 32.8877 38.5474 32.8762 38.6223 32.8647C38.6338 32.8647 38.6453 32.8589 38.6568 32.8589C38.7433 32.8474 38.8297 32.8301 38.9161 32.8186C38.9219 32.8186 38.9334 32.8186 38.9392 32.8128C38.9622 32.807 38.9853 32.8013 39.0083 32.8013C39.0486 32.7955 39.089 32.784 39.1293 32.7782C39.1639 32.7725 39.1927 32.7667 39.2272 32.7552C39.2676 32.7437 39.3079 32.7379 39.3482 32.7264C39.3828 32.7206 39.4116 32.7091 39.4462 32.7033C39.4865 32.6918 39.5211 32.686 39.5614 32.6745C39.596 32.663 39.6248 32.6572 39.6594 32.6457C39.6997 32.6342 39.7343 32.6227 39.7688 32.6111L39.8207 32.5938C39.8322 32.5881 39.8438 32.5881 39.8553 32.5823C39.9244 32.5593 39.9878 32.5362 40.0569 32.5132C40.0685 32.5074 40.0857 32.5017 40.0973 32.4959C40.1779 32.4671 40.2528 32.4325 40.3277 32.4037C40.345 32.398 40.3681 32.3864 40.3854 32.3749C40.443 32.3461 40.5006 32.323 40.5582 32.2942C40.5813 32.2827 40.5985 32.2712 40.6216 32.2654C40.6965 32.2309 40.7656 32.1905 40.8348 32.1502C40.8521 32.1387 40.8751 32.1272 40.8924 32.1156L40.9442 32.0811L41.0307 32.0292C41.0537 32.0119 41.0825 31.9946 41.1056 31.9773C41.1344 31.9601 41.1574 31.9428 41.1862 31.9197L41.2554 31.8679C41.2784 31.8506 41.3015 31.8275 41.3303 31.8103C41.3533 31.793 41.3706 31.7757 41.3937 31.7584C41.4167 31.7411 41.4397 31.7181 41.4628 31.7008C41.4743 31.695 41.4801 31.6835 41.4916 31.6777L41.5146 31.6547L41.6184 31.551L41.6529 31.5164L41.7739 31.3781L41.7797 31.3724C41.7854 31.3608 41.797 31.3493 41.8027 31.3378C41.8258 31.309 41.8488 31.2802 41.8661 31.2456L41.9007 31.1938C41.918 31.1649 41.9353 31.1419 41.9525 31.1131C41.9583 31.1073 41.9641 31.0958 41.9641 31.09L41.9813 31.0555L42.0159 30.9863C42.0274 30.969 42.0332 30.946 42.0447 30.9287C42.0563 30.9057 42.0678 30.8826 42.0735 30.8596C42.0793 30.848 42.0851 30.8365 42.0851 30.8308C42.0908 30.8192 42.0908 30.8135 42.0966 30.802C42.1023 30.7789 42.1139 30.7559 42.1196 30.7328C42.1254 30.7098 42.1312 30.6925 42.1369 30.6694L42.1542 30.6003C42.1542 30.5888 42.16 30.5772 42.1657 30.5657C42.1657 30.56 42.1657 30.5484 42.1715 30.5427C42.1772 30.5196 42.1772 30.4966 42.183 30.4735C42.183 30.4505 42.1888 30.4332 42.1888 30.4102C42.1888 30.3871 42.1945 30.3641 42.1945 30.341C42.1945 30.3295 42.1945 30.3122 42.2003 30.3007V29.2751C42.2003 29.3039 42.2003 29.3327 42.1945 29.3615Z"
        fill="#C68620" />
    <path
        d="M40.8319 27.3739C42.6411 28.4167 42.6526 30.1165 40.8549 31.1593C39.0573 32.2022 36.1303 32.2022 34.3211 31.1593C32.512 30.1107 32.5004 28.4167 34.2981 27.3739C36.0958 26.3252 39.0227 26.3252 40.8319 27.3739Z"
        fill="#FFCD2E" />
    <path
        d="M42.1945 28.0363C42.1945 28.0594 42.1945 28.0824 42.1888 28.1055C42.1888 28.1285 42.183 28.1458 42.183 28.1688C42.1772 28.1919 42.1772 28.2149 42.1715 28.238C42.1657 28.261 42.1657 28.2783 42.16 28.3014L42.1427 28.3705C42.1369 28.3936 42.1312 28.4108 42.1254 28.4339C42.1196 28.4569 42.1139 28.48 42.1023 28.503C42.0966 28.5203 42.0851 28.5434 42.0793 28.5606C42.0678 28.5837 42.062 28.6067 42.0505 28.6298C42.039 28.6471 42.0332 28.6701 42.0217 28.6874L41.9871 28.7565C41.9756 28.7738 41.9641 28.7911 41.9583 28.8142C41.941 28.843 41.9237 28.866 41.9064 28.8948L41.8719 28.9467C41.8488 28.9755 41.8315 29.0043 41.8085 29.0389C41.797 29.0504 41.7912 29.0677 41.7797 29.0792C41.7451 29.1253 41.7048 29.1714 41.6587 29.2175L41.6241 29.2521L41.5204 29.3558C41.5031 29.373 41.4858 29.3846 41.4686 29.4019C41.4455 29.4191 41.4225 29.4422 41.3994 29.4595C41.3764 29.4768 41.3591 29.494 41.336 29.5113C41.313 29.5286 41.2899 29.5517 41.2611 29.5689L41.192 29.6208C41.1689 29.6381 41.1401 29.6554 41.1113 29.6784C41.0883 29.6957 41.0652 29.713 41.0364 29.7303L40.95 29.7821C40.9154 29.8052 40.8809 29.8282 40.8405 29.8455C40.7714 29.8858 40.7022 29.9262 40.6273 29.9607C40.6043 29.9723 40.587 29.9838 40.564 29.9896C40.5063 30.0184 40.4487 30.0414 40.3911 30.0702C40.3738 30.0817 40.3508 30.0875 40.3335 30.099C40.2586 30.1336 40.1837 30.1624 40.103 30.1912C40.0915 30.197 40.0742 30.2027 40.0627 30.2085C39.9993 30.2315 39.9302 30.2546 39.861 30.2776C39.8322 30.2892 39.8034 30.2949 39.7746 30.3064C39.74 30.318 39.6997 30.3295 39.6594 30.341C39.6248 30.3525 39.596 30.3583 39.5614 30.3698C39.5211 30.3813 39.4865 30.3929 39.4462 30.3986C39.4116 30.4044 39.3828 30.4159 39.3482 30.4217C39.3079 30.4332 39.2676 30.439 39.233 30.4505C39.1984 30.4563 39.1696 30.4678 39.1351 30.4735C39.0947 30.4793 39.0544 30.4908 39.0141 30.4966C38.9853 30.5023 38.9507 30.5081 38.9219 30.5139C38.8354 30.5312 38.749 30.5427 38.6626 30.5542C38.6511 30.5542 38.6395 30.56 38.6223 30.56C38.5474 30.5715 38.4725 30.5772 38.3918 30.5888C38.363 30.5945 38.3342 30.5945 38.3054 30.6003C38.2535 30.6061 38.2074 30.6118 38.1556 30.6118C38.1268 30.6118 38.0922 30.6176 38.0634 30.6176C38.0115 30.6233 37.9597 30.6233 37.9078 30.6233C37.879 30.6233 37.8502 30.6233 37.8214 30.6291H37.3662C37.3201 30.6291 37.2798 30.6233 37.2337 30.6233C37.2049 30.6233 37.1703 30.6233 37.1415 30.6176C37.0954 30.6176 37.0436 30.6118 36.9975 30.6061C36.9687 30.6061 36.9456 30.6003 36.9168 30.6003L36.7439 30.583C36.7267 30.583 36.7094 30.5772 36.6921 30.5772C36.6172 30.5715 36.5423 30.56 36.4731 30.5484C36.4616 30.5484 36.4501 30.5427 36.4386 30.5427C36.3752 30.5312 36.3118 30.5254 36.2484 30.5139C36.2254 30.5081 36.1966 30.5023 36.1735 30.5023C36.1274 30.4908 36.0756 30.4851 36.0295 30.4735C36.0064 30.4678 35.9834 30.462 35.9546 30.4562L35.799 30.4217C35.7702 30.4159 35.7414 30.4102 35.7126 30.3986L35.5743 30.3641C35.5455 30.3583 35.5225 30.3468 35.4937 30.341C35.4187 30.318 35.3496 30.2949 35.2747 30.2719C35.2632 30.2661 35.2459 30.2661 35.2344 30.2604L34.9924 30.1739C34.9751 30.1682 34.9578 30.1624 34.9405 30.1509C34.8368 30.1105 34.7331 30.0645 34.6352 30.0184C34.6236 30.0126 34.6179 30.0068 34.6063 30.0011C34.5026 29.9492 34.3989 29.8974 34.301 29.8397C33.9034 29.6093 33.5923 29.35 33.3676 29.0677C33.1774 28.8257 33.0449 28.5779 32.9815 28.3187C32.97 28.2783 32.9643 28.2322 32.9527 28.1919C32.9412 28.1055 32.9297 28.019 32.9297 27.9326V28.9179C32.9297 29.6093 33.3849 30.3007 34.2952 30.825C34.3932 30.8826 34.4969 30.9345 34.6006 30.9863C34.6121 30.9921 34.6179 30.9979 34.6294 31.0036C34.7273 31.0497 34.8311 31.0958 34.9348 31.1361C34.9463 31.1419 34.952 31.1419 34.9636 31.1477C34.9693 31.1534 34.9809 31.1534 34.9866 31.1534C35.0673 31.1822 35.148 31.2168 35.2286 31.2398C35.2401 31.2456 35.2574 31.2456 35.2689 31.2514C35.3381 31.2744 35.413 31.2975 35.4879 31.3205C35.4994 31.3263 35.5109 31.3263 35.5225 31.332C35.534 31.3378 35.5513 31.3378 35.5628 31.3436L35.7011 31.3781C35.7299 31.3839 35.7587 31.3954 35.7875 31.4012L35.9431 31.4357C35.9604 31.4415 35.9834 31.4473 36.0007 31.4473C36.0064 31.4473 36.0122 31.4473 36.018 31.453C36.0641 31.4646 36.1159 31.4703 36.162 31.4818C36.1851 31.4876 36.2139 31.4934 36.2369 31.4934C36.3003 31.5049 36.3637 31.5164 36.4271 31.5222C36.4386 31.5222 36.4501 31.5279 36.4616 31.5279C36.5365 31.5395 36.6114 31.5452 36.6806 31.5567C36.6978 31.5567 36.7094 31.5567 36.7267 31.5625C36.7843 31.5683 36.8419 31.574 36.9053 31.5798H36.911C36.9398 31.5798 36.9629 31.5855 36.9917 31.5855C37.0378 31.5913 37.0839 31.5913 37.1357 31.5971C37.1646 31.5971 37.1991 31.5971 37.2279 31.6028C37.274 31.6028 37.3144 31.6086 37.3605 31.6086H37.8444C37.8675 31.6086 37.8848 31.6086 37.9078 31.6028C37.9597 31.6028 38.0115 31.5971 38.0634 31.5971C38.0922 31.5971 38.1268 31.5913 38.1556 31.5913C38.2074 31.5855 38.2535 31.5855 38.3054 31.5798C38.3227 31.5798 38.3399 31.5798 38.3572 31.574C38.3688 31.574 38.3803 31.5683 38.3918 31.5683C38.4667 31.5625 38.5474 31.551 38.6223 31.5395C38.6338 31.5395 38.6453 31.5337 38.6568 31.5337C38.7433 31.5222 38.8297 31.5049 38.9161 31.4934C38.9219 31.4934 38.9334 31.4934 38.9392 31.4876C38.9622 31.4818 38.9853 31.4761 39.0083 31.4761C39.0486 31.4703 39.089 31.4588 39.1293 31.453C39.1639 31.4473 39.1927 31.4415 39.2272 31.43C39.2676 31.4185 39.3079 31.4127 39.3482 31.4012C39.3828 31.3954 39.4116 31.3839 39.4462 31.3781C39.4865 31.3666 39.5211 31.3608 39.5614 31.3493C39.596 31.3378 39.6248 31.332 39.6594 31.3205C39.6997 31.309 39.7343 31.2975 39.7688 31.2859L39.8207 31.2687C39.8322 31.2629 39.8438 31.2629 39.8553 31.2571C39.9244 31.2341 39.9878 31.211 40.0569 31.188C40.0685 31.1822 40.0857 31.1765 40.0973 31.1707C40.1779 31.1419 40.2528 31.1073 40.3277 31.0785C40.345 31.0728 40.3681 31.0612 40.3854 31.0497C40.443 31.0209 40.5006 30.9979 40.5582 30.969C40.5813 30.9575 40.5985 30.946 40.6216 30.9402C40.6965 30.9057 40.7656 30.8653 40.8348 30.825C40.8521 30.8135 40.8751 30.802 40.8924 30.7904L40.9442 30.7559L41.0307 30.704C41.0537 30.6867 41.0825 30.6694 41.1056 30.6521C41.1344 30.6349 41.1574 30.6176 41.1862 30.5945L41.2554 30.5427C41.2784 30.5254 41.3015 30.5023 41.3303 30.4851C41.3533 30.4678 41.3706 30.4505 41.3937 30.4332C41.4167 30.4159 41.4397 30.3929 41.4628 30.3756C41.4743 30.3698 41.4801 30.3583 41.4916 30.3525L41.5146 30.3295L41.6184 30.2258L41.6529 30.1912L41.7739 30.0529L41.7797 30.0472C41.7854 30.0356 41.797 30.0241 41.8027 30.0126C41.8258 29.9838 41.8488 29.955 41.8661 29.9204L41.9007 29.8686C41.918 29.8397 41.9353 29.8167 41.9525 29.7879C41.9583 29.7821 41.9641 29.7706 41.9641 29.7648L41.9813 29.7303L42.0159 29.6611C42.0274 29.6438 42.0332 29.6208 42.0447 29.6035C42.0563 29.5805 42.0678 29.5574 42.0735 29.5344C42.0793 29.5229 42.0851 29.5113 42.0851 29.5056C42.0908 29.494 42.0908 29.4883 42.0966 29.4768C42.1023 29.4537 42.1139 29.4307 42.1196 29.4076C42.1254 29.3846 42.1312 29.3673 42.1369 29.3442L42.1542 29.2751C42.1542 29.2636 42.16 29.2521 42.1657 29.2405C42.1657 29.2348 42.1657 29.2232 42.1715 29.2175C42.1772 29.1944 42.1772 29.1714 42.183 29.1483C42.183 29.1253 42.1888 29.108 42.1888 29.085C42.1888 29.0619 42.1945 29.0389 42.1945 29.0158C42.1945 29.0043 42.1945 28.987 42.2003 28.9755V27.9499C42.2003 27.9845 42.2003 28.0133 42.1945 28.0363Z"
        fill="#C68620" />
    <path
        d="M40.8319 26.0545C42.6411 27.0974 42.6526 28.7971 40.8549 29.84C39.0573 30.8829 36.1303 30.8829 34.3211 29.84C32.512 28.7914 32.5004 27.0974 34.2981 26.0545C36.0958 25.0059 39.0227 25.0059 40.8319 26.0545Z"
        fill="#FFCD2E" />
    <path
        d="M39.4314 27.8061C39.4717 27.8292 39.5005 27.858 39.5178 27.8925C39.5466 27.9617 39.5178 28.0308 39.4314 28.0827L38.7572 28.4745L39.4544 28.8778C39.4602 28.8778 39.4659 28.8835 39.4717 28.8835C39.5523 28.9296 39.5869 29.0045 39.5639 29.0679C39.5351 29.1371 39.4371 29.1947 39.3161 29.212C39.2009 29.2292 39.0799 29.2062 38.9935 29.1601C38.9877 29.1601 38.9819 29.1543 38.9819 29.1486L38.2848 28.7453L37.5415 29.1774C37.409 29.2465 37.2073 29.2408 37.0806 29.1716C36.9538 29.0967 36.948 28.9815 37.069 28.9008L37.8123 28.4687L37.4954 28.2843L36.7522 28.7165C36.6657 28.7741 36.539 28.7971 36.418 28.7798C36.3546 28.7683 36.3027 28.751 36.2566 28.728C36.2163 28.7049 36.1817 28.6704 36.1645 28.6358C36.1356 28.5667 36.176 28.4917 36.2682 28.4399L36.8155 28.123H35.5998C35.5076 28.123 35.4212 28.1 35.3636 28.0654C35.3002 28.0308 35.2656 27.979 35.2656 27.9271C35.2656 27.8176 35.4154 27.7312 35.5998 27.7312H37.0345L37.0287 26.9015C37.0287 26.8324 37.0921 26.769 37.1958 26.7344C37.2995 26.6999 37.4263 26.6999 37.53 26.7344C37.553 26.7402 37.5761 26.7517 37.5991 26.7632C37.6625 26.7978 37.6971 26.8497 37.6971 26.9015L37.7028 27.6044L38.1522 27.3452C38.2387 27.2933 38.3597 27.276 38.4749 27.2933C38.5325 27.3048 38.5844 27.3221 38.6247 27.3452C38.665 27.3682 38.6996 27.397 38.7111 27.4316C38.7399 27.5007 38.7111 27.5699 38.6247 27.6217L37.9506 28.0135L38.2675 28.1979L38.9416 27.8061C39.028 27.7542 39.149 27.737 39.27 27.7542C39.3392 27.7658 39.391 27.7831 39.4314 27.8061Z"
        fill="#C68620" />
    <path
        d="M39.4314 27.5639C39.4717 27.587 39.5005 27.6158 39.5178 27.6503C39.5466 27.7195 39.5178 27.7886 39.4314 27.8405L38.7572 28.2323L39.4544 28.6356C39.4602 28.6356 39.4659 28.6414 39.4717 28.6414C39.5523 28.6875 39.5869 28.7624 39.5639 28.8257C39.5351 28.8949 39.4371 28.9525 39.3161 28.9698C39.2009 28.9871 39.0799 28.964 38.9935 28.9179C38.9877 28.9179 38.9819 28.9122 38.9819 28.9064L38.2848 28.5031L37.5415 28.9352C37.409 29.0043 37.2073 28.9986 37.0806 28.9294C36.9538 28.8545 36.948 28.7393 37.069 28.6586L37.8123 28.2265L37.4954 28.0421L36.7522 28.4743C36.6657 28.5319 36.539 28.5549 36.418 28.5376C36.3546 28.5261 36.3027 28.5088 36.2566 28.4858C36.2163 28.4627 36.1817 28.4282 36.1645 28.3936C36.1356 28.3245 36.176 28.2496 36.2682 28.1977L36.8155 27.8808H35.5998C35.5076 27.8808 35.4212 27.8578 35.3636 27.8232C35.3002 27.7886 35.2656 27.7368 35.2656 27.6849C35.2656 27.5754 35.4154 27.489 35.5998 27.489H37.0345L37.0287 26.6593C37.0287 26.5902 37.0921 26.5268 37.1958 26.4922C37.2995 26.4577 37.4263 26.4577 37.53 26.4922C37.553 26.498 37.5761 26.5095 37.5991 26.521C37.6625 26.5556 37.6971 26.6075 37.6971 26.6593L37.7028 27.3623L38.1522 27.103C38.2387 27.0511 38.3597 27.0338 38.4749 27.0511C38.5325 27.0626 38.5844 27.0799 38.6247 27.103C38.665 27.126 38.6996 27.1548 38.7111 27.1894C38.7399 27.2585 38.7111 27.3277 38.6247 27.3795L37.9506 27.7713L38.2675 27.9557L38.9416 27.5639C39.028 27.5121 39.149 27.4948 39.27 27.5121C39.3392 27.5236 39.391 27.5409 39.4314 27.5639Z"
        fill="white" />
</svg>
    